<svg width="77" height="63" viewBox="0 0 77 63" fill="none" xmlns="http://www.w3.org/2000/svg">
<g clip-path="url(#clip0_271_688)">
<path d="M42.0353 43.7041C41.5147 43.7041 41.044 43.3475 40.9204 42.8198C40.2511 39.9826 40.9296 38.4035 41.6146 37.5797C42.1142 36.9783 42.9859 36.3177 43.8353 35.6939C44.1627 35.4531 44.3796 35.3084 44.5466 35.1952C44.7649 35.0491 44.8293 35.0044 44.9805 34.8583C45.3039 34.5412 45.4196 34.324 45.5682 34.0477C45.747 33.7134 45.9692 33.2989 46.4754 32.8594C46.7581 32.6133 47.7731 31.9435 49.0735 31.7711C49.8899 31.6632 50.4343 31.7711 50.8721 31.8606C51.2153 31.9303 51.4059 31.9685 51.7267 31.9079C51.9687 31.8619 52.0396 31.8132 52.3052 31.6329C52.5156 31.4895 52.8022 31.2934 53.2295 31.0789C54.4825 30.4512 55.4437 30.4117 56.2168 30.3801C56.7834 30.3564 57.2318 30.338 57.7709 30.0959C58.6294 29.7103 59.1067 29.0299 59.7141 28.1693C61.0868 26.2177 61.3484 23.9859 61.3208 22.4423C59.2934 22.1988 57.3265 22.0396 55.4621 21.9685C55.2964 21.9606 55.1202 21.9646 54.9362 21.9659C53.9408 21.9712 52.584 21.9869 51.5887 20.9552C51.0851 20.4315 50.9181 19.8801 50.7945 19.4787C50.7051 19.184 50.6407 18.9721 50.4579 18.7379C50.1963 18.4036 49.8137 18.1694 48.4516 17.8141C48.2044 17.7496 47.9559 17.6811 47.7034 17.6127C46.0231 17.1534 44.2876 16.6797 42.2168 17.01C41.4726 17.1311 40.7771 17.3298 40.4418 17.4245C39.6437 17.6522 38.7457 17.9088 37.7294 18.4352C36.7209 18.9576 35.5783 19.5485 35.1576 20.4262C35.0629 20.6236 34.8394 21.1579 34.6396 21.7646C34.4805 22.2501 34.3858 22.6239 34.3608 22.7252C33.6877 25.3847 29.9549 31.3631 29.5316 32.0356C26.6443 36.6283 26.3143 36.9796 25.62 37.4928C24.8811 38.0363 24.2671 38.3324 23.5558 38.6746L23.4151 38.743C22.8445 39.0167 22.1582 38.7785 21.8847 38.2074C21.6099 37.6363 21.8479 36.9507 22.4185 36.6756L22.5631 36.6059C23.2205 36.2887 23.6965 36.0598 24.2618 35.6426C24.6208 35.3794 24.9311 35.0438 27.5922 30.8104C28.6888 29.0668 31.6445 24.1162 32.1362 22.1738C32.1691 22.0448 32.2769 21.6119 32.4623 21.046C32.6845 20.3736 32.9422 19.738 33.0907 19.4314C33.8428 17.8588 35.414 17.0455 36.6762 16.3928C37.8963 15.7599 38.9574 15.4572 39.8081 15.2137C40.1591 15.1137 40.973 14.8808 41.8526 14.7387C44.4085 14.3294 46.4794 14.894 48.3069 15.3927C48.5515 15.4585 48.7921 15.5256 49.0301 15.5875C50.5605 15.9862 51.5282 16.381 52.2632 17.3166C52.7102 17.8877 52.8706 18.4168 52.9889 18.8023C53.0875 19.1247 53.1283 19.2392 53.2414 19.3577C53.5504 19.6788 54.2459 19.6722 54.9151 19.6656C55.1386 19.663 55.3529 19.663 55.5528 19.6696C57.7735 19.7551 60.1322 19.9617 62.562 20.2802L63.4692 20.3999L63.5547 21.3105C63.7217 23.0818 63.6901 26.4994 61.5917 29.4813C60.8777 30.4959 60.1428 31.5395 58.7109 32.1843C57.7656 32.608 56.9938 32.6396 56.3114 32.6686C55.6435 32.6962 55.069 32.7199 54.2564 33.1278C53.9671 33.2726 53.7791 33.4002 53.5964 33.5252C53.2532 33.7595 52.864 34.024 52.1501 34.1595C51.3928 34.3003 50.8524 34.1951 50.4198 34.1069C50.0661 34.0358 49.8137 33.9845 49.3732 34.0424C48.5594 34.1503 47.9625 34.6004 47.9572 34.6043C47.7902 34.7504 47.7271 34.8675 47.589 35.1281C47.4076 35.4663 47.1591 35.9308 46.5872 36.4927C46.2834 36.7901 46.081 36.9257 45.8246 37.0981C45.6773 37.1968 45.4854 37.3257 45.1948 37.5389C44.6873 37.9126 43.7419 38.6075 43.3791 39.0444C43.1463 39.3233 42.6599 40.1984 43.1529 42.2908C43.2989 42.908 42.9162 43.5252 42.2996 43.6699C42.2115 43.691 42.1221 43.7002 42.0366 43.7002V43.7028L42.0353 43.7041Z" fill="#FFF8EE"/>
<path d="M41.78 38.3311C41.3658 38.3311 40.953 38.2903 40.548 38.2088C35.4926 37.1744 34.5276 30.1999 34.4342 29.4077C34.1765 27.2429 34.5302 24.9834 35.4571 22.87C35.7109 22.2897 36.3893 22.0252 36.9678 22.2804C37.549 22.5344 37.8119 23.2121 37.5569 23.7925C36.7943 25.5295 36.5024 27.3771 36.7114 29.1379C36.7193 29.1997 37.4701 35.236 41.0069 35.9598C42.6333 36.2954 44.5503 35.5295 45.4641 34.1819C46.1964 33.1002 46.0833 31.9172 45.7796 29.5537C45.2484 25.4322 43.6549 22.2331 42.4111 20.2762C40.2916 16.939 39.0137 14.9256 37.4845 14.7914C37.3439 14.7782 37.1729 14.7742 36.9797 14.769C35.7871 14.7321 33.7913 14.6703 32.4541 13.1714C32.3489 13.053 32.2582 12.9306 32.2582 12.9306C32.1517 12.774 32.0833 12.6437 31.9637 12.3832C31.8717 12.1831 31.727 11.8673 31.4444 11.3159C30.7567 9.97364 30.2295 9.13011 29.8048 8.45371C29.1474 7.40358 28.7122 6.71007 28.5255 5.43886C28.3309 4.10975 28.3414 3.22279 28.3427 3.18463C28.3454 3.03067 28.3506 2.88591 28.3572 2.74905C28.0088 3.00435 27.8536 3.23595 27.6643 3.5202C27.4053 3.90709 27.0832 4.39005 26.3837 4.74404C25.7947 5.03881 25.4462 5.01249 23.975 4.89801C23.6226 4.87037 23.1874 4.83747 22.647 4.79799C22.0698 4.7572 20.8707 4.67034 20.6643 4.70719C20.3948 4.80589 20.3159 4.90327 20.024 5.29937C19.7702 5.64415 19.4231 6.11658 18.8144 6.63243C17.8243 7.47333 16.9855 7.71809 16.4306 7.87996C15.9586 8.01813 15.9442 8.0405 15.8797 8.14052C15.4169 8.85113 15.8521 10.6632 16.9342 11.5423C17.3286 11.8634 17.5969 11.891 18.1872 11.9528C18.7368 12.0107 19.4218 12.0818 20.3014 12.4411C22.576 13.3662 24.4194 15.5691 25.4909 18.6405C26.8123 22.4226 25.9919 25.7046 25.5777 26.9402C25.3765 27.5416 24.727 27.8654 24.1262 27.664C23.5266 27.4627 23.2019 26.8126 23.403 26.2125C23.6673 25.4229 24.443 22.5976 23.3255 19.3985C22.4748 16.9574 21.0929 15.2414 19.435 14.5663C18.8564 14.3294 18.4147 14.2834 17.9492 14.2347C17.23 14.1597 16.4135 14.0742 15.4906 13.3227C13.7235 11.8857 12.694 8.82876 13.9614 6.88641C14.5045 6.05341 15.2184 5.84418 15.793 5.67837C16.2676 5.53887 16.7173 5.40859 17.3339 4.88484C17.7389 4.54138 17.9637 4.23476 18.182 3.93736C18.5435 3.44651 18.9524 2.89117 19.8754 2.55429C20.4 2.36479 20.73 2.35953 22.8153 2.50955C23.361 2.54903 23.8001 2.58193 24.1564 2.61088C24.7875 2.65957 25.2871 2.70036 25.4094 2.68325C25.5001 2.62272 25.558 2.54903 25.7631 2.24504C26.0431 1.82394 26.4297 1.24755 27.3277 0.680371C27.8602 0.347435 29.0764 -0.413187 30.0638 0.294797C30.8014 0.81723 30.7383 1.6647 30.687 2.34505C30.6686 2.58587 30.6463 2.87538 30.641 3.22016C30.641 3.22543 30.6344 3.97684 30.8001 5.10856C30.9158 5.90208 31.1617 6.29292 31.7533 7.23777C32.1767 7.91417 32.7578 8.8406 33.4915 10.2724C33.7965 10.8711 33.953 11.2106 34.0529 11.4278C34.0897 11.5107 34.1134 11.5659 34.1371 11.6107C34.1423 11.6186 34.1555 11.6331 34.1699 11.6489C34.851 12.4121 36.125 12.4516 37.0546 12.4805C37.2965 12.4884 37.5108 12.4963 37.691 12.5108C40.3456 12.7464 41.8523 15.119 44.3478 19.0485C46.3108 22.141 47.5927 25.673 48.0555 29.2668C48.3685 31.7027 48.617 33.6279 47.3627 35.4768C46.1662 37.2415 43.9534 38.3377 41.7813 38.3377L41.7839 38.3351L41.78 38.3311Z" fill="#FFF8EE"/>
<path d="M4.71619 51.0604H1.17543C0.53118 51.0604 0 51.5973 0 52.2369V61.6788C0 62.3184 0.532494 62.8553 1.17543 62.8553H4.71619C7.97032 62.8553 10.6091 60.2194 10.6091 56.9572C10.6091 53.6949 7.97164 51.0591 4.71619 51.0591V51.0604ZM4.71619 60.5024H2.36401V53.4317H4.71619C6.67393 53.4317 8.25695 54.9977 8.25695 56.9572C8.25695 58.9166 6.67393 60.5011 4.71619 60.5011V60.5024Z" fill="#FFF8EE"/>
<path d="M15.9115 53.4331C13.3135 53.4331 11.1953 55.5544 11.1953 58.1363C11.1953 60.7182 13.3148 62.8567 15.9115 62.8567H17.0869C17.7259 62.8567 18.2624 62.3197 18.2624 61.6802C18.2624 61.0406 17.7259 60.5037 17.0869 60.5037H15.9115C15.0214 60.5037 14.2746 60.0431 13.8644 59.3128H19.4352C20.0794 59.3128 20.6106 58.7759 20.6106 58.1363C20.6106 55.5544 18.4911 53.4331 15.9115 53.4331ZM13.8644 56.9585C14.2759 56.265 15.0398 55.7821 15.9115 55.7821C16.7832 55.7821 17.5484 56.265 17.9416 56.9585H13.8644Z" fill="#FFF8EE"/>
<path d="M24.0026 61.6749C24.0026 62.3198 23.4688 62.854 22.8245 62.854C22.1803 62.854 21.6465 62.3198 21.6465 61.6749V51.067C21.6465 50.4222 22.1803 49.8879 22.8245 49.8879C23.4688 49.8879 24.0026 50.4222 24.0026 51.067V61.6749Z" fill="#FFF8EE"/>
<path d="M26.6459 50.188C25.9122 50.188 25.3271 50.7789 25.3271 51.5079C25.3271 52.2369 25.9122 52.841 26.6459 52.841C27.3796 52.841 27.9778 52.2369 27.9778 51.5079C27.9778 50.7789 27.3927 50.188 26.6459 50.188ZM26.6459 53.4318C26.0016 53.4318 25.4705 53.9648 25.4705 54.6083V61.6789C25.4705 62.3185 26.003 62.8554 26.6459 62.8554C27.2888 62.8554 27.8345 62.3185 27.8345 61.6789V54.6083C27.8345 53.9635 27.302 53.4318 26.6459 53.4318Z" fill="#FFF8EE"/>
<path d="M39.2617 60.2932C39.2617 60.4959 39.2065 60.6788 39.1145 60.8459C39.2999 61.0854 39.409 61.3618 39.409 61.675C39.409 62.4119 38.82 63.0014 38.0824 63.0014C37.6222 63.0014 37.2172 62.7804 36.9779 62.4119C36.2587 62.7067 35.5054 62.854 34.7507 62.854C31.4926 62.854 28.8604 60.2208 28.8604 56.9612C28.8604 53.7016 31.4926 51.0684 34.7507 51.0684C36.2614 51.0684 37.751 51.6579 38.912 52.7988C39.1329 53.0199 39.2604 53.3331 39.2604 53.6279C39.2604 54.2727 38.7095 54.807 38.0824 54.807C37.7694 54.807 37.4762 54.6978 37.254 54.4583C36.573 53.7595 35.6526 53.4265 34.7507 53.4265C32.8008 53.4265 31.2165 55.0096 31.2165 56.9625C31.2165 58.9154 32.7995 60.4985 34.7507 60.4985C35.5054 60.4985 36.2614 60.2774 36.9043 59.78V58.1403H35.9274C35.2832 58.1403 34.7493 57.606 34.7493 56.9612C34.7493 56.3164 35.2845 55.7821 35.9274 55.7821H38.0811C38.7253 55.7821 39.2591 56.3164 39.2591 56.9612V60.2945L39.2617 60.2919V60.2932Z" fill="#FFF8EE"/>
<path d="M49.9177 58.1389C49.9177 58.9864 49.6784 59.7786 49.2918 60.4773C49.7533 60.68 50.0649 61.1393 50.0649 61.6735C50.0649 62.4105 49.4759 63 48.7396 63C48.2058 63 47.7443 62.6868 47.5247 62.2262C46.8436 62.6316 46.0521 62.8526 45.2054 62.8526C42.6087 62.8526 40.4932 60.7353 40.4932 58.1389V54.6029C40.4932 53.9581 41.027 53.4238 41.6712 53.4238C42.3155 53.4238 42.8493 53.9581 42.8493 54.6029V58.1389C42.8493 59.4469 43.8985 60.4958 45.2054 60.4958C46.5123 60.4958 47.5615 59.4456 47.5615 58.1389V54.6029C47.5615 53.9581 48.0953 53.4238 48.7396 53.4238C49.3838 53.4238 49.9177 53.9581 49.9177 54.6029V58.1389Z" fill="#FFF8EE"/>
<path d="M59.7529 60.467C60.1236 59.7735 60.3748 58.9905 60.3748 58.1351C60.3748 55.5348 58.2553 53.4319 55.6586 53.4319C53.0618 53.4319 50.9424 55.5348 50.9424 58.1351C50.9424 60.7354 53.0618 62.8554 55.6586 62.8554C56.5119 62.8554 57.2955 62.6225 57.9739 62.233C58.2014 62.6765 58.6668 62.9976 59.1993 62.9976C59.933 62.9976 60.5181 62.4067 60.5181 61.6777C60.5181 61.1447 60.2144 60.6802 59.7542 60.4643L59.7529 60.467ZM55.6573 60.5025C54.3609 60.5025 53.3103 59.455 53.3103 58.1351C53.3103 56.8152 54.3609 55.7809 55.6573 55.7809C56.9536 55.7809 58.0094 56.8323 58.0094 58.1351C58.0094 59.4379 56.9589 60.5025 55.6573 60.5025Z" fill="#FFF8EE"/>
<path d="M62.8712 53.2766C63.405 53.2766 63.8665 53.5898 64.0677 54.0504C64.7672 53.6635 65.5587 53.424 66.4054 53.424C67.0497 53.424 67.5835 53.9583 67.5835 54.6031C67.5835 55.2479 67.0497 55.7822 66.4054 55.7822C65.0985 55.7822 64.0493 56.8323 64.0493 58.1391V61.675C64.0493 62.3198 63.5155 62.8541 62.8712 62.8541C62.227 62.8541 61.6932 62.3198 61.6932 61.675V58.1391C61.6932 57.2916 61.914 56.4994 62.319 55.819C61.8575 55.598 61.5459 55.1374 61.5459 54.6031C61.5459 53.8662 62.1349 53.2766 62.8712 53.2766Z" fill="#FFF8EE"/>
<path d="M76.2318 60.4852C76.6249 59.7733 76.8577 58.9903 76.8577 58.1362V51.0617C76.8577 50.4221 76.3212 49.8892 75.6822 49.8892C75.0432 49.8892 74.5068 50.4221 74.5068 51.0617V54.0726C73.7955 53.666 72.9961 53.433 72.1415 53.433C69.5579 53.433 67.4424 55.5543 67.4424 58.1362C67.4424 60.7182 69.5566 62.8566 72.1415 62.8566C72.9948 62.8566 73.7784 62.6237 74.4713 62.2341C74.6856 62.6947 75.1511 62.9987 75.6836 62.9987C76.412 62.9987 77.0023 62.4078 77.0023 61.6788C77.0023 61.1458 76.6986 60.6813 76.2331 60.4839L76.2318 60.4852ZM72.1415 60.5036C70.8398 60.5036 69.7893 59.4562 69.7893 58.1362C69.7893 56.8163 70.8398 55.782 72.1415 55.782C73.4431 55.782 74.5068 56.8335 74.5068 58.1362C74.5068 59.439 73.4563 60.5036 72.1415 60.5036Z" fill="#FFF8EE"/>
</g>
<defs>
<clipPath id="clip0_271_688">
<rect width="77" height="63" fill="white"/>
</clipPath>
</defs>
</svg>
