<svg width="24" height="24" viewBox="0 0 24 24" fill="none" xmlns="http://www.w3.org/2000/svg">
<g id="Iconsax/Linear/bag">
<path id="Vector" d="M8.80994 2L5.18994 5.63M15.1899 2L18.8099 5.63" stroke="#FFF8EE" stroke-width="1.5" stroke-miterlimit="10" stroke-linecap="round" stroke-linejoin="round"/>
<path id="Vector_2" d="M2 7.8501C2 6.0001 2.99 5.8501 4.22 5.8501H19.78C21.01 5.8501 22 6.0001 22 7.8501C22 10.0001 21.01 9.8501 19.78 9.8501H4.22C2.99 9.8501 2 10.0001 2 7.8501Z" stroke="#FFF8EE" stroke-width="1.5"/>
<path id="Vector_3" d="M9.76 14V17.55M14.36 14V17.55M3.5 10L4.91 18.64C5.23 20.58 6 22 8.86 22H14.89C18 22 18.46 20.64 18.82 18.76L20.5 10" stroke="#FFF8EE" stroke-width="1.5" stroke-linecap="round"/>
</g>
</svg>
