<svg width="21" height="23" viewBox="0 0 21 23" fill="none" xmlns="http://www.w3.org/2000/svg">
<path id="Vector" d="M18.4584 14.6598L18.3505 14.5805V9.68734C18.3505 6.36908 16.3093 3.52627 13.4341 2.35745C13.3556 2.32773 13.2673 2.29802 13.179 2.2683C13.1005 2.23859 13.0121 2.20887 12.914 2.17916C12.8944 2.0801 12.8846 1.98105 12.8551 1.8919C12.8355 1.78295 12.8061 1.68389 12.7668 1.58484C12.4234 0.663652 11.5304 0 10.5 0C9.46963 0 8.56682 0.663652 8.22336 1.59475C8.18411 1.6938 8.15467 1.79285 8.12523 1.90181C8.10561 2.00086 8.08598 2.09991 8.07617 2.19897C7.98785 2.22868 7.89953 2.2584 7.81121 2.28811C7.7229 2.32773 7.63458 2.35745 7.54626 2.39707C4.70047 3.5758 2.68878 6.39879 2.68878 9.68734V14.5805L2.57103 14.6598C0.961682 15.789 0 17.6611 0 19.6421C0 19.9987 0.284579 20.286 0.628037 20.286H7.24206C7.25187 20.3751 7.27149 20.4643 7.30093 20.5534C7.32056 20.6425 7.35 20.7317 7.38925 20.8109C7.85047 22.0887 9.0771 23 10.5 23C11.9229 23 13.1495 22.0887 13.6107 20.8109C13.65 20.7317 13.6794 20.6425 13.6991 20.5534C13.7285 20.4643 13.7481 20.3751 13.7579 20.286H20.3621C20.7154 20.286 21 19.9987 21 19.6421C21.0098 17.671 20.0579 15.7989 18.4584 14.6598ZM12.3449 20.5534L12.2762 20.6822C12.2762 20.6822 12.2173 20.7713 12.1878 20.8109C12.021 21.0685 11.7953 21.2864 11.5304 21.435C11.2065 21.6232 10.8533 21.7123 10.5 21.7123C9.84252 21.7123 9.19486 21.3953 8.81215 20.8109C8.7729 20.7713 8.75327 20.7317 8.72383 20.6822L8.64533 20.5534L8.48832 20.286H12.5019L12.3449 20.5534ZM1.29533 19.0082L1.36402 18.6912C1.63878 17.3441 2.46308 16.1852 3.64065 15.5017C3.83692 15.3829 3.96449 15.1748 3.95467 14.9371V9.68734C3.95467 6.85444 5.73084 4.43755 8.22336 3.50646C8.37056 3.44703 8.52757 3.3975 8.68458 3.35788H8.7042C9.26355 3.17959 9.88177 3.09044 10.5 3.09044C11.1182 3.09044 11.7364 3.17959 12.3154 3.35788C12.4626 3.3975 12.6196 3.44703 12.7668 3.50646C15.2593 4.43755 17.0355 6.85444 17.0355 9.68734V14.9371C17.0355 15.1748 17.1533 15.3829 17.3495 15.5017C18.5271 16.1852 19.3612 17.3441 19.6262 18.6912L19.6949 19.0082H1.29533Z" fill="#F28F1D"/>
</svg>
