<svg width="19" height="27" viewBox="0 0 19 27" fill="none" xmlns="http://www.w3.org/2000/svg">
<g id="a" clip-path="url(#clip0_212_7493)">
<path id="Vector" d="M16.2235 3.16795C14.4325 1.41266 12.0539 0.4375 9.51428 0.4375H9.49533C6.96515 0.4375 4.5866 1.39409 2.79557 3.14937C0.995076 4.90466 6.34836e-05 7.24505 6.34836e-05 9.72474C-0.00941283 12.223 1.04246 14.6563 2.86191 16.4116C3.82849 17.2938 4.40655 18.5569 4.43498 19.8478V20.5072C4.43498 20.8508 4.71927 21.1295 5.06989 21.1295H13.9302C14.2809 21.1295 14.5652 20.8508 14.5652 20.5072V19.9593C14.5936 18.6033 15.1811 17.2938 16.1951 16.3558C17.9671 14.6284 19.0001 12.223 19.0001 9.76189C19.0001 7.30077 18.0145 4.93252 16.2235 3.16795ZM15.3043 15.4643C14.1766 16.523 13.4754 17.9347 13.3238 19.4671L13.2858 19.885H5.71428L5.67637 19.4578C5.55318 17.9625 4.85193 16.523 3.74321 15.5107C2.16066 13.9969 1.26041 11.8887 1.26989 9.73403C1.26989 7.57939 2.13223 5.55477 3.68635 4.03166C5.24046 2.50855 7.3063 1.6727 9.49533 1.6727C11.7128 1.68199 13.7786 2.52713 15.3233 4.05024C16.8774 5.57334 17.7302 7.59796 17.7302 9.7526C17.7302 11.9072 16.8489 13.9783 15.3043 15.4643Z" fill="#F28F1D"/>
<path id="Vector_2" d="M14.565 23.767C14.565 24.1106 14.2807 24.3893 13.9301 24.3893H13.2383C13.371 24.5007 13.4563 24.6679 13.4563 24.8536C13.4563 25.1973 13.172 25.4759 12.8213 25.4759H10.1301V25.9402C10.1301 26.2839 9.84579 26.5625 9.49516 26.5625C9.14454 26.5625 8.86025 26.2839 8.86025 25.9402V25.4759H6.17846C5.82783 25.4759 5.54354 25.1973 5.54354 24.8536C5.54354 24.6679 5.62883 24.5007 5.7615 24.3893H5.06973C4.7191 24.3893 4.43481 24.1106 4.43481 23.767C4.43481 23.4234 4.7191 23.1448 5.06973 23.1448H13.9301C14.2807 23.1448 14.565 23.4234 14.565 23.767Z" fill="#F28F1D"/>
<path id="Vector_3" d="M11.1345 12.2694L10.0258 15.4363C9.94053 15.6685 9.73205 15.8078 9.49514 15.8078C9.43828 15.8078 9.38143 15.7985 9.31509 15.78C9.0308 15.6778 8.87918 15.3713 8.97394 15.0834L9.82681 12.6316H8.38641C8.20636 12.6316 8.04527 12.548 7.94103 12.4087C7.83679 12.2601 7.80836 12.0744 7.86522 11.9072L8.97394 8.8424C9.07818 8.55449 9.3909 8.4059 9.68467 8.50806C9.96896 8.61022 10.1206 8.9167 10.0163 9.2046L9.17295 11.545H10.6039C10.7839 11.545 10.9545 11.6379 11.0587 11.7772C11.163 11.9165 11.1914 12.1022 11.1345 12.2694Z" fill="#F28F1D"/>
</g>
<defs>
<clipPath id="clip0_212_7493">
<rect width="19" height="26.125" fill="white" transform="translate(0 0.4375)"/>
</clipPath>
</defs>
</svg>
