<svg width="33" height="32" viewBox="0 0 33 32" fill="none" xmlns="http://www.w3.org/2000/svg">
<g id="Group 651">
<path id="Vector" d="M11.8672 0.5L6.28571 5.5M21.7042 0.5L27.2857 5.5" stroke="#FFF8EE" stroke-miterlimit="10" stroke-linecap="round" stroke-linejoin="round"/>
<path id="Vector_2" d="M1.28571 9.49831C1.28571 6.72487 2.82021 6.5 4.72671 6.5H28.8447C30.7512 6.5 32.2857 6.72487 32.2857 9.49831C32.2857 12.7215 30.7512 12.4966 28.8447 12.4966H4.72671C2.82021 12.4966 1.28571 12.7215 1.28571 9.49831Z" stroke="#FFF8EE"/>
<path id="Vector_3" d="M13.2281 19.5V24.825M20.5339 19.5V24.825M3.28571 13.5L5.52512 26.46C6.03335 29.37 7.25629 31.5 11.7986 31.5H21.3757C26.3151 31.5 27.0457 29.46 27.6175 26.64L30.2857 13.5" stroke="#FFF8EE" stroke-linecap="round"/>
</g>
</svg>
