<svg
  width="120"
  height="270"
  viewBox="0 0 123 270"
  fill="#222"
  xmlns="http://www.w3.org/2000/svg"
>
<path
    d="M227 36.288V84.4799C222.571 76.4309 217.05 68.9423 210.519 62.1771C195.17 46.2728 175.617 35.7582 153.982 31.7541C143.246 29.7775 132.275 29.482 121.366 30.9084C64.0225 38.4072 23.467 91.0718 30.9678 148.321C31.4883 152.295 30.4269 156.238 27.9777 159.406C25.5284 162.595 21.9974 164.623 18.0072 165.143C16.4356 165.357 14.8538 165.316 13.3128 165.031C6.89367 163.838 2.00537 158.693 1.14813 152.213C-8.49581 78.5501 43.6835 10.7861 117.467 1.14769C131.499 -0.686249 145.624 -0.319461 159.441 2.22768C173.29 4.785 186.618 9.5023 199.058 16.2267C209.202 21.7184 218.581 28.4428 227 36.288Z"
    fill="#662472"
  />
<path
    d="M227 184.867V233.232C206.559 252.387 180.74 264.644 152.461 268.332C138.408 270.166 124.254 269.799 110.364 267.232C85.78 262.688 62.9407 251.399 44.3468 234.577C38.1931 229.025 37.7236 219.509 43.2855 213.375C46.8165 209.483 52.0109 207.731 57.185 208.688C59.92 209.198 62.4509 210.451 64.5225 212.315C78.9834 225.397 96.7302 234.17 115.855 237.705C126.652 239.702 137.643 239.988 148.563 238.571C183.046 234.068 211.457 213.222 227 184.867Z"
    fill="#662472"
  />
<path
    d="M144.246 191.684C144.613 195.454 143.46 199.101 141.001 201.984C138.643 204.746 135.357 206.457 131.744 206.804C129.673 206.997 127.55 207.109 125.448 207.109C123.09 207.109 120.723 206.977 118.386 206.742C100.863 204.878 85.0963 196.289 73.993 182.565C62.8796 168.841 57.7973 151.653 59.6649 134.159C60.4201 127.088 66.3493 121.76 73.4522 121.76C73.942 121.76 74.4523 121.79 74.9523 121.841C82.5756 122.656 88.1171 129.493 87.3007 137.094C85.0657 158.062 100.333 176.931 121.335 179.162C122.692 179.305 124.09 179.376 125.458 179.376C126.683 179.376 127.907 179.325 129.111 179.203C129.561 179.162 130.01 179.142 130.459 179.142C137.643 179.142 143.572 184.531 144.256 191.684H144.246Z"
    fill="#F28F1C"
  />
</svg>
