<svg width="532" height="532" viewBox="0 0 532 532" fill="none" xmlns="http://www.w3.org/2000/svg">
<path d="M532 265.99C532 412.906 412.906 532 265.99 532C217.526 532 172.091 518.981 132.955 496.294C131.089 495.231 129.224 494.128 127.378 493.004C124.53 491.259 121.701 489.474 118.913 487.628C117.87 486.946 116.847 486.264 115.824 485.562C113.818 484.198 111.852 482.814 109.906 481.41C109.746 481.289 109.585 481.169 109.425 481.049C108.562 480.427 107.7 479.785 106.857 479.163C99.3551 473.546 92.1738 467.569 85.3134 461.21C74.762 450.117 74.421 432.565 84.8319 421.05C91.7726 413.388 101.983 409.938 112.153 411.823C114.841 412.325 117.409 413.187 119.836 414.391H119.856C122.283 415.594 124.53 417.139 126.576 418.964C155 444.721 189.884 461.992 227.476 468.953C248.699 472.884 270.303 473.446 291.767 470.658C359.548 461.792 415.394 420.75 445.944 364.924C450.418 356.96 455.934 345.887 460.668 332.106C463.978 322.458 471.52 298.105 471.52 265.729C471.52 229.542 462.253 195.541 445.944 165.933C439.245 154.439 428.894 139.073 413.548 123.366C389.396 98.6329 365.506 85.9553 356.92 81.6826C339.829 73.1573 321.535 67.019 302.418 63.4685C281.316 59.5769 259.751 58.9952 238.308 61.8036C125.593 76.5674 45.8762 180.255 60.62 292.97C61.0613 296.28 60.9209 299.57 60.279 302.739C59.3964 307.092 57.5309 311.204 54.7426 314.795C49.9283 321.074 42.9877 325.065 35.1444 326.088C32.0552 326.51 28.946 326.429 25.917 325.868C14.5833 323.762 5.67686 315.357 2.76822 304.424C0.9428 291.867 0 279.049 0 265.99C0 238.448 4.19245 211.889 11.9555 186.895C13.0387 183.365 14.2222 179.874 15.486 176.404C15.9875 175 16.5291 173.576 17.0506 172.191C54.9632 71.5726 152.112 0 265.99 0C412.906 0 532 119.094 532 265.99Z" fill="#662472"/>
</svg>
