<svg width="143" height="142" viewBox="0 0 143 142" fill="none" xmlns="http://www.w3.org/2000/svg">
<circle cx="71.5" cy="70.9998" r="70" stroke="#662472" stroke-width="2"/>
<path d="M122.489 99.6612L115.418 77.3827L115.927 77.1928C117.329 76.5599 118.476 75.4207 119.176 73.965C119.941 72.3827 120.005 70.6106 119.367 69.0283C118.73 67.3827 117.52 66.1169 115.8 65.4207C114.207 64.7245 112.36 64.7245 111.022 65.2941L110.831 65.4207H109.684V64.7878C110.003 61.8131 110.003 56.9397 109.557 55.0409C108.346 49.7245 104.014 45.3574 98.9813 44.4713C97.962 44.2814 97.0064 44.2182 95.9234 44.2814H95.2864V43.6485C95.2864 41.7498 94.7767 39.9144 93.9485 38.4587C92.6107 36.1169 90.3173 34.408 87.5142 33.7118C84.1377 32.889 80.3153 33.522 77.5122 35.2941C76.6203 35.927 75.8559 36.5599 75.2188 37.2561L74.7729 37.7625L74.3269 37.2561C72.6068 35.3574 69.6763 32.7625 65.4717 31.6232C59.4833 29.9776 50.8829 31.3701 46.296 38.4587C44.2574 41.6232 44.4485 44.5979 44.9582 48.0789V48.5852L44.5759 48.7751C43.5566 49.0916 42.6647 49.5979 42.1551 49.7878C40.881 50.4207 39.7342 51.2435 38.6512 52.1928C35.9118 54.6612 34.5103 57.2561 34.3829 59.8511C34.3829 60.1675 34.3829 61.9397 34.3829 64.4713V65.1042H33.7458C33.7458 65.1042 33.2999 65.0409 33.0451 65.0409C30.3057 65.0409 27.8211 66.5599 26.7381 68.965C25.2091 72.2561 26.6107 76.1802 29.796 77.9523L30.242 78.2055L30.1146 78.6485L23.5528 99.5979C23.4254 99.9144 23.5528 100.294 23.6802 100.547C23.8713 100.8 24.1898 100.99 24.5084 100.99H121.406C121.406 100.99 122.043 100.8 122.234 100.547C122.425 100.294 122.489 99.9144 122.362 99.6612H122.489ZM36.5489 60.0409C36.6763 57.889 37.8868 55.8004 40.1802 53.7118C41.0721 52.889 42.1551 52.1928 43.1744 51.6232C43.5566 51.4333 45.5315 50.6738 46.1686 50.4207H46.3597C55.6609 48.8384 59.547 53.965 59.547 54.0283C59.8655 54.408 60.5663 54.5346 61.0122 54.2182C61.4582 53.9017 61.5856 53.2055 61.2034 52.7625C60.1203 51.4333 55.9157 47.3194 47.7613 48.1422H47.1879L47.0605 47.6359C46.6146 44.5979 46.4234 42.1295 48.0798 39.5979C52.0933 33.4587 59.6107 32.2561 64.8983 33.6485C69.2941 34.8511 72.2246 37.889 73.9447 40.1675C74.1358 40.484 74.518 40.6106 74.8366 40.6106C75.2188 40.6106 75.5373 40.4207 75.7284 40.1675C76.5566 38.9017 77.5759 37.8257 78.7227 37.1295C81.0798 35.6106 84.2651 35.1042 87.0682 35.8004C89.298 36.3701 91.1454 37.6992 92.2284 39.5346C92.9929 40.927 93.3115 42.5726 93.2477 44.5346V44.9144L92.8655 45.0409C91.8462 45.4207 90.9543 45.8637 90.1898 46.5599C87.1319 49.0283 86.5586 52.5726 86.4949 53.3321C86.4949 53.6485 86.4949 53.9017 86.686 54.0916C86.8771 54.2814 87.1319 54.4713 87.4505 54.4713C88.0875 54.4713 88.5335 54.0916 88.5972 53.5219C88.5972 53.5219 88.9157 50.2941 91.5277 48.2055C93.3115 46.7498 95.6686 46.2435 98.7902 46.5599C103.059 47.3827 106.562 50.9903 107.582 55.5473C107.964 57.2561 107.9 61.9397 107.709 64.3447V64.9144H36.5489V62.5726C36.5489 61.4333 36.5489 60.3574 36.5489 60.1042V60.0409ZM26.0373 98.9017L32.5991 77.9523C32.7902 77.446 32.5354 76.9397 32.0895 76.6865L31.1976 76.3068C28.7767 75.1675 27.63 72.2561 28.7767 69.9144C29.796 67.6992 32.4717 66.6232 34.8288 67.446C34.8288 67.446 35.0837 67.5093 35.1474 67.5093H110.958L111.595 67.3827C112.615 66.9397 113.825 66.8764 114.972 67.3827C116.055 67.8257 116.947 68.7118 117.329 69.7878C117.711 70.8637 117.711 72.0663 117.201 73.0789C116.692 74.1549 115.8 74.9776 114.653 75.4207L113.634 75.8004C113.124 75.9903 112.806 76.5599 112.997 77.1295L119.941 98.965H26.0373V98.9017Z" fill="#662472"/>
<path d="M90.5719 75.4208H53.8132C53.2399 75.4208 52.7939 75.9271 52.7939 76.4967V89.4081C52.7939 89.9777 53.2399 90.4841 53.8132 90.4841H90.5719C91.1453 90.4841 91.6549 89.9777 91.6549 89.4081V76.4967C91.6549 75.9271 91.1453 75.4208 90.5719 75.4208ZM89.4889 88.3322H54.8326V77.5727H89.4889V88.3322Z" fill="#662472"/>
</svg>
