<svg width="68" height="70" viewBox="0 0 68 70" fill="none" xmlns="http://www.w3.org/2000/svg">
<g id="Group 499">
<g id="Group 498">
<path id="Ellipse 2" d="M67.3524 35C67.3524 54.0686 52.3724 69.5 33.9262 69.5C15.48 69.5 0.500002 54.0686 0.500001 35C0.500001 15.9314 15.48 0.499999 33.9262 0.499999C52.3724 0.499998 67.3524 15.9314 67.3524 35Z" stroke="#662472"/>
<g id="Group 443">
<path id="Vector" d="M19.1251 31.9169C16.4288 31.9169 14.214 29.6625 14.214 26.8631C14.214 26.6401 14.0214 26.442 13.8048 26.442C13.5881 26.442 13.4196 26.6401 13.4196 26.8631C13.4196 29.6377 11.2048 31.9169 8.50848 31.9169C8.29181 31.9169 8.12329 32.1151 8.12329 32.3381C8.12329 32.561 8.29181 32.7344 8.50848 32.7344C11.2048 32.7344 13.4196 34.9888 13.4196 37.7882C13.4196 38.0112 13.5881 38.2094 13.8048 38.2094C14.0214 38.2094 14.214 38.0112 14.214 37.7882C14.214 35.0136 16.4048 32.7344 19.1251 32.7344C19.3418 32.7344 19.5344 32.561 19.5344 32.3381C19.5344 32.1151 19.3418 31.9169 19.1251 31.9169ZM16.5733 32.5362C15.49 33.106 14.5751 34.0227 14.0455 35.1622L13.8288 35.5834L13.6363 35.1622C13.0826 34.0474 12.1918 33.106 11.0844 32.5362L10.6751 32.3381L11.0844 32.1151C12.1677 31.5701 13.0826 30.6287 13.6363 29.5139L13.8288 29.0927L14.0455 29.5139C14.5992 30.6287 15.49 31.5701 16.5733 32.1151L16.9826 32.3381L16.5733 32.5362Z" fill="#662472"/>
<path id="Vector_2" d="M24.3493 20.9175C22.8567 20.9175 21.653 19.6788 21.653 18.1676C21.653 17.9446 21.4845 17.7465 21.2678 17.7465C21.0512 17.7465 20.8586 17.9446 20.8586 18.1676C20.8586 19.6788 19.6549 20.9175 18.1864 20.9175C17.9697 20.9175 17.7771 21.0909 17.7771 21.3139C17.7771 21.5368 17.9697 21.735 18.1864 21.735C19.679 21.735 20.8586 22.9737 20.8586 24.4849C20.8586 24.7078 21.0512 24.906 21.2678 24.906C21.4845 24.906 21.653 24.7078 21.653 24.4849C21.653 22.9737 22.8567 21.735 24.3493 21.735C24.566 21.735 24.7586 21.5616 24.7586 21.3139C24.7586 21.0661 24.566 20.9175 24.3493 20.9175ZM22.3993 21.512C22.0141 21.7845 21.7012 22.1066 21.4364 22.503L21.2438 22.8003L21.0512 22.503C20.7864 22.1066 20.4734 21.7845 20.0882 21.512L19.7993 21.3139L20.0882 21.1157C20.4734 20.8432 20.7864 20.5211 21.0512 20.1247L21.2438 19.8274L21.4364 20.1247C21.7012 20.5211 22.0141 20.8432 22.3993 21.1157L22.6882 21.3139L22.3993 21.512Z" fill="#662472"/>
<path id="Vector_3" d="M55.2603 19.9018C55.2603 19.9018 55.1159 19.8275 55.0196 19.8275C54.8992 19.8275 54.8029 19.877 54.7066 19.9761C54.7066 19.9761 52.9011 22.0818 52.2029 22.9737C51.3362 24.0885 50.4937 25.2281 49.7233 26.3677C48.014 28.8946 46.5936 31.471 45.4622 34.0227C44.2585 36.7478 43.3918 39.4977 42.8862 42.198L42.7899 42.7182C42.6936 43.2632 42.5733 43.9073 42.477 44.5515C42.477 44.6258 42.4529 44.7001 42.4288 44.7744C42.4288 44.8487 42.4048 44.9478 42.3807 45.0469C42.3085 44.9974 42.2362 44.9726 42.164 44.9726H38.0233C38.0233 44.9726 37.9992 44.9726 37.9751 44.9726C37.8788 44.9726 37.8066 45.0222 37.7344 45.0717C37.7344 44.9726 37.7344 44.8735 37.7344 44.7992C37.7344 44.7249 37.7344 44.6505 37.7344 44.5515C37.0362 31.6197 44.5955 20.6202 44.6677 20.4963C44.7881 20.3229 44.764 20.0752 44.5955 19.9265C44.5233 19.877 44.427 19.8522 44.3307 19.8522C44.2103 19.8522 44.114 19.9018 44.0418 19.9761C44.0418 20.0009 42.2122 22.0818 41.514 22.9737C40.6233 24.0885 39.8048 25.2281 39.0344 26.3677C37.3251 28.8946 35.8807 31.471 34.7492 34.0227C33.5455 36.7478 32.6788 39.4977 32.1733 42.198L32.077 42.7182C31.9807 43.2632 31.8603 43.8578 31.764 44.5019C31.764 44.5762 31.7399 44.6505 31.7159 44.7496C31.7159 44.824 31.6918 44.8983 31.6677 44.9974H31.6196H31.2103C31.1622 45.2699 31.1381 45.5424 31.114 45.8149H31.5714C31.5714 45.8149 31.5714 45.9635 31.5714 46.0626C31.5714 46.137 31.5714 46.2113 31.5714 46.3104C31.427 48.0198 31.5714 49.7291 32.4862 50.8192C33.0881 51.5376 34.027 51.934 34.9899 51.8101C37.0122 51.5624 37.9992 49.6548 37.8307 46.2856C37.8307 46.2113 37.8307 46.137 37.8307 46.0379C37.8307 45.9388 37.8307 45.8397 37.8307 45.7654C37.9029 45.8149 37.9751 45.8397 38.0473 45.8397H42.1881C42.1881 45.8397 42.2603 45.8397 42.3085 45.8397C42.3085 45.914 42.3085 45.9883 42.3085 46.0874C42.3085 46.1617 42.3085 46.2361 42.3085 46.3351C42.164 48.0445 42.3085 49.7539 43.2474 50.8687C43.8492 51.5871 44.8122 51.9835 45.7511 51.8596C47.7733 51.6119 48.7603 49.7291 48.5918 46.3351C48.5918 46.2608 48.5918 46.1865 48.5918 46.0874C48.5918 46.0131 48.5918 45.9388 48.5918 45.8397H54.0325C54.2492 45.8397 54.4418 45.6663 54.4418 45.4433C54.4418 45.2203 54.2492 45.0222 54.0325 45.0222H48.5437C48.5437 45.0222 48.5437 44.8735 48.5437 44.7744C48.5437 44.7001 48.5437 44.6258 48.5437 44.5267C47.8937 31.6197 55.4048 20.645 55.477 20.5211C55.5974 20.3477 55.5733 20.1 55.4048 19.9513L55.2603 19.9018ZM34.9177 50.9183C34.9177 50.9183 34.7492 50.9183 34.677 50.9183C34.0992 50.9183 33.4973 50.6457 33.1122 50.175C32.2936 49.1841 32.2455 47.4252 32.414 45.691C32.414 45.4928 32.4622 45.3194 32.4862 45.146C32.6066 44.3037 32.7511 43.4862 32.8714 42.8173L32.9677 42.2971C33.4492 39.6711 34.2918 36.9707 35.4714 34.2952C36.5788 31.7931 37.9751 29.2662 39.6603 26.764C39.8288 26.5163 39.9733 26.2933 40.1418 26.0456L40.527 26.2933C38.5288 30.8269 36.2899 37.8378 36.964 45.5672C37.2529 48.8868 36.5548 50.6705 34.8696 50.8687L34.9177 50.9183ZM47.6529 44.9231C47.6529 45.146 47.677 45.3938 47.7011 45.6167C47.7011 45.691 47.7011 45.7654 47.7011 45.8645C47.9418 49.0355 47.2436 50.7448 45.6066 50.9183C45.5344 50.9183 45.4381 50.9183 45.3659 50.9183C44.764 50.9183 44.1862 50.6457 43.8011 50.175C42.477 48.5895 43.1511 44.9726 43.5603 42.8173L43.6566 42.2971C44.1381 39.6463 44.9807 36.9707 46.1603 34.2952C47.2677 31.7931 48.664 29.2662 50.3492 26.764C50.4937 26.5163 50.6622 26.2933 50.8307 26.0456L51.2159 26.2933C49.2899 30.6783 47.1233 37.4167 47.6048 44.8735L47.6529 44.9231Z" fill="#662472"/>
<path id="Vector_4" d="M33.9067 19.9018C33.9067 19.9018 33.7382 19.8275 33.666 19.8275C33.5456 19.8275 33.4252 19.877 33.353 19.9761C33.353 19.9761 31.5474 22.0818 30.8493 22.9737C29.9586 24.0885 29.14 25.2281 28.3697 26.3677C26.6604 28.8946 25.216 31.471 24.1086 34.0227C22.9049 36.7478 22.0382 39.5224 21.5326 42.198L21.4363 42.7182C21.34 43.2632 21.2197 43.8826 21.1234 44.5267C21.1234 44.601 21.0993 44.6753 21.0752 44.7496C21.0752 44.824 21.0511 44.9231 21.0271 45.0222C20.9789 44.9726 20.9067 44.9478 20.8345 44.9478H15.2974C15.0567 44.9478 14.8882 45.146 14.8882 45.369C14.8882 45.5919 15.0567 45.7654 15.2974 45.7654H20.8345C20.8345 45.7654 20.9067 45.7654 20.9308 45.7654C20.9308 45.8397 20.9308 45.914 20.9308 46.0131C20.9308 46.0874 20.9308 46.1617 20.9308 46.2608C20.7863 47.9702 20.9308 49.6796 21.8456 50.7944C22.4474 51.5128 23.4104 51.9092 24.3493 51.7853C26.3956 51.5376 27.3586 49.63 27.19 46.2361C27.19 46.1617 27.19 46.0626 27.19 45.9635C27.19 45.8397 27.19 45.7158 27.166 45.6167C27.2141 45.691 27.2863 45.7654 27.4067 45.7901C27.4308 45.7901 27.4789 45.7901 27.503 45.7901H31.716C31.9326 45.7901 32.1012 45.6167 32.1012 45.3938C32.1012 45.1956 31.9567 45.0222 31.7641 44.9974H31.716H27.503C27.503 44.9974 27.4067 44.9974 27.3586 45.0469C27.2623 45.0717 27.19 45.146 27.1419 45.2451C27.1419 45.1212 27.1419 45.0222 27.1419 44.8983C27.1419 44.824 27.1419 44.7249 27.1419 44.6258C26.4197 31.6692 33.9789 20.645 34.0512 20.5211C34.1715 20.3477 34.1474 20.1 33.9789 19.9513L33.9067 19.9018ZM26.3234 45.6167C26.6123 48.9364 25.9141 50.7201 24.2289 50.9183C24.1567 50.9183 24.0604 50.9183 23.9882 50.9183C23.3863 50.9183 22.8086 50.6458 22.4234 50.1998C21.0993 48.6143 21.7734 44.9974 22.1826 42.8669L22.2789 42.3466C22.7845 39.6958 23.6271 37.0203 24.7826 34.3448C25.89 31.8426 27.3104 29.2909 28.9715 26.8136C29.14 26.5659 29.3086 26.3429 29.453 26.0952L29.8382 26.3429C27.84 30.8765 25.6012 37.8874 26.2752 45.6167H26.3234Z" fill="#662472"/>
</g>
</g>
</g>
</svg>
