<svg width="71" height="70" viewBox="0 0 71 70" fill="none" xmlns="http://www.w3.org/2000/svg">
<g id="Group 500">
<path id="Ellipse 1" d="M70.4263 35C70.4263 54.0538 54.9801 69.5 35.9263 69.5C16.8724 69.5 1.42627 54.0538 1.42627 35C1.42627 15.9462 16.8724 0.499999 35.9263 0.499999C54.9801 0.499998 70.4263 15.9462 70.4263 35Z" stroke="#662472"/>
<g id="Group 473">
<path id="Vector" d="M56.0241 33.0424C55.7682 31.0986 54.7165 26.2961 50.6515 23.752C49.9408 23.2946 48.7185 22.5513 47.0697 22.437C45.4494 22.3227 44.2839 22.8372 43.4027 23.2088C42.692 23.5233 42.1804 23.752 41.7255 23.609C39.9631 23.0945 39.7357 15.5478 40.1052 10.3737C40.1052 10.2307 40.0484 10.1164 39.9631 10.0021C39.8778 9.9163 39.7357 9.85913 39.622 9.85913H35.2159C34.9884 9.85913 34.7895 10.0306 34.761 10.2593C34.5052 11.6315 34.3062 12.8035 34.1925 14.0327C33.9651 16.2338 33.8798 19.4069 34.3062 21.7509C34.7895 24.4094 35.8412 26.582 37.291 29.0118C38.3712 30.8699 39.3946 32.8709 39.3661 34.9863C39.3661 36.73 38.627 38.6167 37.2341 40.5892C36.0118 42.3043 34.1356 44.191 32.5153 44.4197C31.9468 44.5055 31.4351 44.3625 30.9519 43.9623C30.3549 43.4764 29.8717 42.9332 29.4168 42.4187C28.5925 41.5039 27.7397 40.5606 26.4036 39.9317C24.1579 38.9026 21.8554 38.8454 20.0645 39.7602C19.0696 40.2747 18.1884 41.1609 17.4777 42.3615C15.6584 45.3916 15.63 49.0506 15.7437 52.5667C15.7437 52.824 15.9711 53.0241 16.2269 53.0241H21.9122C21.9122 53.0241 22.1681 52.9669 22.2534 52.8812C22.3386 52.7954 22.3955 52.6525 22.3671 52.5096V52.338C22.1681 50.2513 22.0544 47.3641 23.163 46.678C23.4188 46.5351 23.6463 46.4493 23.9021 46.4493C24.0727 46.4493 24.2148 46.4779 24.3853 46.5351C25.2097 46.8781 25.8635 47.9358 26.0625 48.7362C26.83 51.7377 28.6493 53.996 31.293 55.1966C32.7143 55.8541 34.3915 56.1972 36.1255 56.1972C38.4565 56.1972 40.8159 55.6254 42.9763 54.5106C44.0565 53.9674 45.1367 53.2814 46.2169 52.481C51.7885 48.2788 56.9621 40.6463 55.9388 33.0139L56.0241 33.0424ZM45.7337 51.7377C44.7103 52.5096 43.6585 53.1384 42.6352 53.6816C40.56 54.7393 38.3143 55.2538 36.2108 55.2538C34.6189 55.2538 33.0839 54.968 31.7478 54.3391C29.36 53.2528 27.7112 51.2232 27.0574 48.5075C26.7732 47.4498 25.9772 46.1349 24.8117 45.6489C24.1295 45.363 23.4188 45.4202 22.7366 45.849C21.2016 46.7923 21.23 49.6795 21.429 51.7663V52.0522H16.7386V51.7949C16.6533 48.679 16.7955 45.4202 18.3589 42.7903C18.9843 41.7326 19.7234 40.9894 20.5762 40.5606C22.0828 39.7888 24.1579 39.8459 26.0909 40.7321C27.2564 41.2752 27.9955 42.1042 28.7915 42.9904C29.2463 43.5049 29.7864 44.1052 30.4118 44.6484C31.094 45.1915 31.8615 45.4202 32.6859 45.3059C35.1306 44.9914 37.4331 41.9899 38.0585 41.0751C39.5935 38.9312 40.3611 36.873 40.3895 34.9291C40.3895 32.5565 39.3377 30.4411 38.1722 28.4687C36.7793 26.1246 35.7844 24.0664 35.3296 21.5222C34.9316 19.2925 35.0169 16.2052 35.2159 14.0613C35.3296 12.975 35.5001 11.8887 35.6707 10.974L35.7275 10.7453H39.224V11.0312C38.7407 18.8637 39.5935 23.8663 41.555 24.438C42.3509 24.6667 43.0616 24.3523 43.8859 24.0092C44.7387 23.6376 45.7337 23.1802 47.0981 23.2946C48.5195 23.3803 49.5144 24.0092 50.2535 24.4666C54.0911 26.8678 55.0007 31.6703 55.1713 33.071C56.1378 40.2461 50.9926 47.7357 45.8189 51.6234L45.7337 51.7377Z" fill="#662472"/>
<path id="Vector_2" d="M44.0562 46.4207C43.8572 44.7913 42.4359 43.5906 40.844 43.5906C40.7019 43.5906 40.5882 43.5906 40.446 43.5906C38.6836 43.8193 37.4328 45.4487 37.6602 47.2497C37.8877 48.9934 39.4795 50.3084 41.2704 50.0511C43.0329 49.8224 44.3121 48.193 44.0562 46.4207ZM42.6633 48.2502C42.2938 48.7361 41.7537 49.0506 41.1567 49.1363C41.0714 49.1363 40.9577 49.1363 40.844 49.1363C39.707 49.1363 38.7405 48.3073 38.5699 47.1353C38.3993 45.8775 39.2806 44.7341 40.5597 44.5626C41.7821 44.391 42.9476 45.3058 43.1181 46.5636C43.2034 47.1639 43.0329 47.7642 42.6633 48.2502Z" fill="#662472"/>
<path id="Vector_3" d="M51.5892 36.3584C51.3334 34.3288 49.5994 32.8423 47.6095 32.8423C47.439 32.8423 47.2684 32.8423 47.0979 32.8709C44.909 33.1568 43.3455 35.1864 43.6298 37.3875C43.9141 39.5601 45.9039 41.1323 48.1212 40.875C49.173 40.7321 50.1395 40.189 50.7933 39.3314C51.4471 38.4738 51.7314 37.4161 51.5892 36.3584ZM50.0542 38.7597C49.571 39.4171 48.8319 39.8173 48.0075 39.9317C47.8654 39.9317 47.7232 39.9317 47.6095 39.9317C46.9273 39.9317 46.3019 39.703 45.7618 39.3028C45.108 38.8168 44.6816 38.0736 44.5963 37.2446C44.3689 35.558 45.5628 34.0144 47.24 33.7857C48.9172 33.557 50.4806 34.7862 50.6796 36.4442C50.7649 37.2732 50.5659 38.0736 50.0542 38.7311V38.7597Z" fill="#662472"/>
</g>
</g>
</svg>
