<svg width="64" height="56" viewBox="0 0 64 56" fill="none" xmlns="http://www.w3.org/2000/svg">
<g id="a" clip-path="url(#clip0_212_7918)">
<g id="Group">
<path id="Vector" d="M14.2479 49.204C13.7214 49.8536 13.9024 50.4699 14.4617 51.2361L15.0705 52.0856C15.8767 53.2183 15.9425 54.251 15.2186 55.1338C14.2808 56.2831 12.8659 56.2665 11.5661 55.1838C10.727 54.4842 10.2664 53.6347 10.0525 52.7353L10.9409 52.1523C11.0396 53.085 11.4016 53.8846 12.0597 54.4509C12.833 55.1005 13.6391 55.1172 14.1985 54.4342C14.5769 53.9679 14.6098 53.4848 13.9682 52.5687L13.3594 51.6859C12.5533 50.5199 12.3887 49.4705 13.1785 48.5211C14.215 47.2552 15.7615 47.4051 17.0612 48.4878C18.0813 49.3373 18.509 50.3867 18.6407 51.2528L17.7193 51.8524C17.67 50.8364 17.3574 49.8869 16.5677 49.2207C15.7779 48.5544 14.8402 48.4711 14.2479 49.204Z" fill="#662472"/>
<path id="Vector_2" d="M15.3994 43.8739L16.0246 44.7733L9.29559 49.5705L8.6704 48.671L9.52593 48.0714C8.76911 48.2379 7.96294 47.8881 7.46937 47.1719C6.74546 46.1225 6.89354 44.5401 8.62104 43.3242C10.4308 42.0416 11.8786 42.4913 12.5861 43.5241C13.129 44.3069 13.0797 45.1564 12.7506 45.7727L15.383 43.8905L15.3994 43.8739ZM9.27914 44.2903C8.19328 45.0731 7.81487 46.0226 8.42361 46.8887C8.99945 47.7216 10.036 47.7049 11.1218 46.922C12.2406 46.1225 12.619 45.1398 12.0431 44.3069C11.4344 43.4408 10.3979 43.4908 9.27914 44.2903Z" fill="#662472"/>
<path id="Vector_3" d="M5.24837 43.041L4.8206 42.0083L5.85711 41.5586C5.05094 41.6086 4.39284 41.3254 3.88281 40.0928L4.96867 39.6764C4.96867 39.8263 5.05094 40.1761 5.11675 40.3093C5.61032 41.4753 6.64682 41.2421 7.69978 40.7924L10.3815 39.6431L10.8093 40.6758L5.26482 43.0577L5.24837 43.041Z" fill="#662472"/>
<path id="Vector_4" d="M1.87563 35.8453L2.04016 36.6948L0.246841 36.3616L0.032959 35.3123L1.87563 35.8286V35.8453ZM6.51522 38.2772C4.689 38.6436 3.24119 37.9274 2.87923 36.1784C2.53373 34.4295 3.60314 33.1969 5.41291 32.8304C7.20622 32.464 8.67049 33.1802 9.01599 34.9125C9.36149 36.6615 8.30854 37.9107 6.51522 38.2772ZM5.64324 33.9631C4.31059 34.2296 3.57023 34.9791 3.78412 35.9785C3.998 37.0113 4.95224 37.3944 6.28489 37.1112C7.56818 36.8447 8.34144 36.1118 8.12756 35.0791C7.93013 34.063 6.92653 33.6966 5.64324 33.9464V33.9631Z" fill="#662472"/>
<path id="Vector_5" d="M3.3892 29.9822C2.79691 29.6324 2.31979 28.9328 2.3856 27.9834C2.46787 26.7175 3.43856 25.5515 5.65964 25.7014C7.7491 25.8347 8.71979 27.0839 8.63753 28.3831C8.58817 29.2826 8.07815 29.9822 7.33779 30.2487L8.39074 30.3153L8.32493 31.4147L0 30.8983L0.0658098 29.799L3.3892 29.9988V29.9822ZM5.3964 30.1154C6.72905 30.1987 7.63393 29.6657 7.68329 28.633C7.7491 27.5836 6.92648 26.9507 5.59383 26.8674C4.22828 26.7841 3.32339 27.3004 3.25758 28.3498C3.19177 29.3825 4.03085 30.0155 5.3964 30.0988V30.1154Z" fill="#662472"/>
<path id="Vector_6" d="M3.47138 22.1535L6.58089 23.2029C8.16033 23.7359 8.60454 23.2861 8.88424 22.47C9.09812 21.837 8.9994 20.9042 7.51868 20.3879L4.42562 19.3385L4.77113 18.2725L10.4801 20.2046L10.1346 21.2707L9.16393 20.9375C9.59169 21.304 9.98655 22.1368 9.6575 23.1196C9.27909 24.2356 8.55519 25.0184 6.31766 24.2689L3.14233 23.2029L3.48784 22.1368L3.47138 22.1535Z" fill="#662472"/>
<path id="Vector_7" d="M3.98145 15.0744L4.50792 14.1083L5.49507 14.6579L4.96859 15.624L3.98145 15.0744ZM5.88993 16.1404L6.41641 15.1743L12.2077 18.4224C13.1784 18.972 13.4581 19.7383 13.0138 20.5711C12.8658 20.8543 12.619 21.0875 12.4215 21.2041L11.6647 20.6544C11.8293 20.5878 12.0431 20.4545 12.1419 20.2713C12.2735 20.0214 12.2406 19.7049 11.6976 19.4051L5.88993 16.1404Z" fill="#662472"/>
<path id="Vector_8" d="M7.69971 9.49434L8.42361 8.6615L9.27914 9.41105L8.55523 10.2439L7.69971 9.49434ZM9.34495 10.9435L10.0689 10.1106L14.6097 14.1249L13.8858 14.9578L9.34495 10.9435Z" fill="#662472"/>
<path id="Vector_9" d="M13.6392 6.49612L17.6865 3.79773L18.3281 4.79713L18.0649 9.26114L20.3353 7.74538L21.1086 8.94467L16.8803 11.7763L16.2222 10.7769L16.4854 6.32956L14.4124 7.71207L13.6392 6.51278V6.49612Z" fill="#662472"/>
<path id="Vector_10" d="M19.9404 3.41468C20.3846 2.88167 21.1579 2.0988 22.326 1.68238C23.9219 1.11605 24.761 1.74901 25.2381 3.14818L25.9291 5.14699C26.0278 5.4135 26.1595 5.54675 26.3404 5.48012C26.5214 5.4135 26.7024 5.19696 26.7024 5.19696L27.1301 6.57947C27.1301 6.57947 26.6366 7.01254 25.9949 7.24574C25.271 7.51225 24.8762 7.29571 24.5636 6.67941C24.399 7.07917 24.0042 7.94532 23.0006 8.31177C22.0463 8.6449 21.1744 8.31177 20.8289 7.31236C20.4669 6.24633 21.0592 5.56341 22.1451 4.84717L23.0828 4.23087C23.4448 3.98101 23.5435 3.81445 23.4448 3.54794C23.2967 3.11486 22.9677 3.01492 22.5399 3.16483C21.8325 3.41469 21.125 4.11427 20.7301 4.83051L19.9569 3.41468H19.9404ZM23.3296 6.77935C23.6751 6.66275 24.0042 6.27965 24.1687 5.77994L23.7903 4.66394C23.7409 4.78054 23.6093 4.91379 23.4613 5.01373L22.9677 5.36352C22.5399 5.69666 22.3918 5.96317 22.5235 6.36293C22.6551 6.74604 22.9677 6.9126 23.3296 6.77935Z" fill="#662472"/>
<path id="Vector_11" d="M28.9563 0.316435L29.1702 3.61447C29.2525 4.78044 29.6638 5.06361 30.289 5.0303C30.8484 4.99698 31.3584 4.59722 31.2926 3.48122L31.0787 0.183181L32.9872 0.0499268L33.382 6.24624L31.4736 6.37949L31.4077 5.38009C31.2597 5.86313 30.7167 6.54606 29.6309 6.61269C28.4134 6.69597 27.4263 6.21292 27.2782 3.96426L27.0479 0.449689L28.9563 0.316435Z" fill="#662472"/>
<path id="Vector_12" d="M35.2411 0L37.2154 0.533016L37.1166 4.29744L39.1732 1.08269L40.7855 1.53242L40.9665 5.33016L42.7269 2.06544L44.3228 2.49851L40.9665 8.0119L39.3542 7.56217L39.1238 3.26472L36.7876 6.86258L35.3233 6.46282L35.2246 0.0166568L35.2411 0Z" fill="#662472"/>
<path id="Vector_13" d="M45.6062 4.19751C46.2808 4.23082 47.3666 4.36408 48.4196 5.06366C49.8345 5.99644 49.8509 7.04581 49.0448 8.29507L47.9096 10.0607C47.7615 10.2939 47.745 10.4771 47.9096 10.5937C48.0741 10.7103 48.3538 10.7103 48.3538 10.7103L47.5311 11.9096C47.5311 11.9096 46.8895 11.793 46.3137 11.4099C45.672 10.9768 45.6062 10.5437 45.8859 9.92743C45.4746 10.044 44.5533 10.2606 43.6484 9.66093C42.8093 9.0946 42.5296 8.19513 43.1219 7.29567C43.7306 6.36289 44.6191 6.41286 45.8365 6.84593L46.8895 7.21238C47.3008 7.34564 47.4982 7.32898 47.6463 7.07913C47.8931 6.69602 47.7615 6.37954 47.3831 6.12969C46.7579 5.71327 45.7707 5.56336 44.981 5.69662L45.6227 4.19751H45.6062ZM45.0304 8.978C45.343 9.17788 45.8365 9.21119 46.3301 9.02797L46.9718 8.04522C46.8401 8.07853 46.6756 8.04522 46.4946 7.99525L45.9188 7.82868C45.3923 7.69543 45.0962 7.72874 44.8659 8.09519C44.6355 8.42833 44.7013 8.77812 45.0304 8.99466V8.978Z" fill="#662472"/>
<path id="Vector_14" d="M52.105 8.01191L55.3955 11.6098L54.5235 12.426L50.1307 12.8923L51.9898 14.9245L50.9533 15.8906L47.4983 12.1261L48.3703 11.3099L52.7466 10.8436L51.052 8.99466L52.0885 8.02857L52.105 8.01191ZM54.9841 7.69543L55.9877 8.79478L54.9348 9.77753L53.9312 8.67818L54.9841 7.69543Z" fill="#662472"/>
<path id="Vector_15" d="M57.9948 15.674L58.8174 17.4396L57.7809 17.9393C58.7187 17.8393 59.3439 18.2557 59.8539 19.3551L58.1758 20.1546C58.1758 19.9214 58.0606 19.4717 57.9619 19.2552C57.5671 18.4057 56.7938 18.4223 55.856 18.8887L53.2894 20.1213L52.4668 18.3557L58.0113 15.6906L57.9948 15.674Z" fill="#662472"/>
<path id="Vector_16" d="M57.2546 21.2706C59.0972 20.8542 60.6273 21.687 61.0715 23.6859C61.4993 25.668 60.4628 27.0672 58.6201 27.4836C56.7939 27.9 55.2638 27.0672 54.8361 25.085C54.3918 23.0862 55.4283 21.6704 57.2546 21.2706ZM58.1923 25.5181C59.1795 25.3016 59.7389 24.7352 59.5744 24.019C59.4098 23.2528 58.6859 23.0029 57.6823 23.2195C56.7116 23.436 56.1358 23.9857 56.3003 24.7519C56.4648 25.4681 57.2052 25.7346 58.1759 25.5181H58.1923ZM61.9764 24.2522L61.6803 22.9363L63.6381 23.2861L64.0001 24.9185L61.96 24.2522H61.9764Z" fill="#662472"/>
<path id="Vector_17" d="M61.6967 28.6829L61.5486 33.58L60.364 33.5467L56.909 30.7484L56.8268 33.5134L55.4119 33.4634L55.5764 28.3331L56.761 28.3664L60.1995 31.1481L60.2818 28.633L61.6967 28.6829ZM63.9671 30.4985L63.9178 31.981L62.5029 31.931L62.5522 30.4485L63.9836 30.4985H63.9671Z" fill="#662472"/>
<path id="Vector_18" d="M54.2601 37.9441L57.3696 38.8602C58.4555 39.1767 58.9326 38.8768 59.1136 38.2772C59.2617 37.7442 59.0478 37.1279 57.9619 36.8114L54.8524 35.8953L55.3953 34.0131L61.2853 35.7454L60.7424 37.6276L59.8046 37.3444C60.1501 37.6109 60.6766 38.3771 60.364 39.4432C60.0185 40.6591 59.1629 41.392 57.0406 40.7757L53.7336 39.8096L54.2601 37.9607V37.9441Z" fill="#662472"/>
<path id="Vector_19" d="M58.6529 43.3742L57.7645 45.0899L52.3352 42.1916L53.2236 40.476L58.6529 43.3742ZM60.726 44.4736L59.8375 46.1892L58.5378 45.4896L59.4262 43.774L60.726 44.4736Z" fill="#662472"/>
<path id="Vector_20" d="M54.5399 44.7401C56.0371 45.9394 56.3332 47.655 55.198 49.1042C54.4906 50.0203 53.5857 50.3701 52.8782 50.42L52.1872 48.9709C52.7631 49.0542 53.4047 48.9043 53.7996 48.3879C54.3096 47.7383 54.0299 46.9388 53.2566 46.3225C52.4505 45.6895 51.6608 45.6729 51.1836 46.2725C50.7888 46.7889 50.7888 47.4551 50.9204 47.9882L49.4561 47.6883C49.3081 46.9554 49.5219 45.9394 50.18 45.0899C51.2823 43.6574 53.0099 43.5241 54.5235 44.7401H54.5399Z" fill="#662472"/>
<path id="Vector_21" d="M45.8859 52.0024L44.7342 51.103L44.7836 49.7871C44.7836 49.4706 44.7507 49.304 44.6355 49.1708C44.5532 49.0708 44.3887 48.9876 44.2077 49.1375C43.9939 49.304 43.8787 49.6205 43.8293 49.9037L43.1548 49.0375C43.3029 48.7377 43.6813 48.3046 44.0432 48.0215C44.9152 47.3219 45.5897 47.3052 46.0011 47.8216C46.2314 48.1214 46.2314 48.5212 46.182 49.0375L46.2478 48.9876C47.7121 47.8216 49.3574 47.8549 50.5913 49.4539C52.0556 51.3362 51.562 52.9852 50.2622 54.0179C48.9954 55.0173 47.5969 54.9507 46.4288 53.4516C46.2972 53.2683 46.1327 53.0185 46.034 52.8186L48.9131 50.5366C48.3044 49.7538 47.6134 49.6538 46.9388 50.2035C46.3137 50.7032 45.9682 51.4528 45.9023 52.0024H45.8859ZM49.5877 51.3362L47.8437 52.7187C48.2057 53.2683 48.8638 53.6015 49.4725 53.1184C50.0155 52.6854 50.0155 51.9191 49.5712 51.3362H49.5877Z" fill="#662472"/>
</g>
<g id="Group_2">
<path id="Vector_22" d="M32.0163 38.0606C31.9012 38.0606 31.7696 38.0606 31.6544 38.0606H31.4241C27.9197 37.8941 25.2873 36.395 24.3001 35.812C20.2858 33.4967 17.9989 29.6157 17.1927 28.0499C17.0775 27.8334 17.1104 27.5502 17.275 27.367C18.8379 25.5014 20.6971 23.9357 22.8194 22.7031L22.951 22.6198C24.9418 21.4539 28.0184 19.6882 31.9505 19.7715H32.4441C36.623 20.0214 39.568 22.1035 41.3284 23.3527C43.3027 24.7519 45.0467 26.4342 46.5274 28.3831C46.6755 28.5829 46.6919 28.8661 46.5603 29.0826C45.6554 30.5818 43.1217 34.2962 38.9264 36.3283C37.9392 36.8114 35.3726 38.0606 32.0163 38.0606ZM18.476 27.85C19.3644 29.4991 21.4539 32.7471 24.8924 34.7293C25.896 35.3123 28.2487 36.6615 31.4734 36.7947H31.6708C34.8955 36.8947 37.3305 35.6954 38.3834 35.1957C41.9701 33.4467 44.2734 30.3486 45.277 28.7828C43.9444 27.0838 42.3649 25.6014 40.621 24.3521C38.8606 23.1029 36.1953 21.2207 32.3618 21.0041H31.9505C28.2158 20.9375 25.5176 22.5032 23.5433 23.6692L23.4117 23.7525C21.5361 24.8518 19.8744 26.2177 18.476 27.8334V27.85Z" fill="#662472"/>
<path id="Vector_23" d="M31.8847 37.3111C31.786 37.3111 31.6873 37.3111 31.5886 37.3111C26.9819 37.1445 23.3788 33.2635 23.5269 28.6329C23.6914 24.0023 27.5742 20.3712 32.1644 20.5377C34.4019 20.621 36.4585 21.5538 37.9886 23.2028C39.5186 24.8518 40.3084 26.9839 40.2261 29.2326C40.1438 31.4812 39.206 33.5467 37.5773 35.0791C36.0143 36.5449 34.0071 37.3277 31.9012 37.3277L31.8847 37.3111ZM31.8683 21.7537C28.0513 21.7537 24.8924 24.8019 24.7608 28.6496C24.6292 32.5972 27.7058 35.9119 31.6379 36.0452C33.5793 36.1451 35.3562 35.4289 36.7382 34.1296C38.1202 32.8304 38.9264 31.0648 38.9922 29.1493C39.058 27.2337 38.3834 25.4182 37.0837 24.019C35.7839 22.6198 34.0235 21.8203 32.115 21.7537C32.0328 21.7537 31.9505 21.7537 31.8683 21.7537Z" fill="#662472"/>
<path id="Vector_24" d="M31.8683 33.4467C31.8683 33.4467 31.7531 33.4467 31.7037 33.4467C30.5027 33.3967 29.3839 32.897 28.5613 31.9976C27.7387 31.1148 27.3109 29.9654 27.3603 28.7495C27.4425 26.301 29.4497 24.3688 31.8518 24.3688C31.9012 24.3688 31.967 24.3688 32.0163 24.3688C33.2174 24.4187 34.3361 24.9184 35.1587 25.8013C35.9814 26.6841 36.4091 27.85 36.3762 29.0493C36.3433 30.2486 35.8333 31.3813 34.9613 32.1974C34.1222 32.997 33.0364 33.43 31.8847 33.43L31.8683 33.4467ZM31.8683 25.618C30.1078 25.618 28.66 27.0172 28.5942 28.7995C28.5613 29.6656 28.8739 30.4985 29.4662 31.1481C30.0585 31.7977 30.8811 32.1641 31.7531 32.1974C32.6251 32.2141 33.4641 31.9143 34.1058 31.3146C34.731 30.715 35.1094 29.9155 35.1258 29.0327C35.1587 28.1499 34.8461 27.317 34.2539 26.6674C33.6616 26.0178 32.839 25.6513 31.967 25.618C31.9341 25.618 31.8847 25.618 31.8518 25.618H31.8683Z" fill="#662472"/>
<path id="Vector_25" d="M30.2395 29.0992C29.4169 29.0992 28.6107 28.6995 28.1007 27.9666C27.9197 27.7167 27.7223 27.1671 28.2652 26.3842C28.5285 26.0177 28.9398 25.618 29.4169 25.2849C29.894 24.9517 30.4041 24.7019 30.8483 24.5853C31.7532 24.3354 32.1809 24.7352 32.3619 25.0017C33.1681 26.201 32.8719 27.8167 31.7038 28.6329C31.2596 28.9493 30.7496 29.0826 30.256 29.0826L30.2395 29.0992ZM31.3254 25.7179C31.3254 25.7179 30.766 25.8678 30.1079 26.3176C29.4498 26.7673 29.1537 27.217 29.1537 27.3503C29.5485 27.8833 30.3876 28.0332 30.9963 27.6168C31.6051 27.1837 31.7532 26.3342 31.3254 25.7179Z" fill="#662472"/>
</g>
</g>
<defs>
<clipPath id="clip0_212_7918">
<rect width="64" height="56" fill="white"/>
</clipPath>
</defs>
</svg>
