<svg width="121" height="111" viewBox="0 0 121 111" fill="none" xmlns="http://www.w3.org/2000/svg">
<g clip-path="url(#clip0_989_417)">
<path d="M28.9023 90.4323L17.0918 99.242L13.9001 94.9631C11.4998 91.7452 12.8203 87.9989 16.1599 85.5078C19.6735 82.8869 23.3103 82.9355 25.7106 86.1534L28.9023 90.4323ZM17.2375 96.6427L26.3694 89.8311L24.501 87.3264C22.97 85.2739 20.6711 84.7687 17.4185 87.195C14.3223 89.5045 13.8382 92.0855 15.3692 94.138L17.2375 96.6427Z" fill="#662472"/>
<path d="M18.5688 75.8563C17.9413 74.1681 16.1087 73.7843 13.9322 74.5933C11.6745 75.4325 10.5984 76.8974 11.2259 78.5856C11.8686 80.3146 13.6326 80.7006 15.8904 79.8614C18.0668 79.0525 19.2114 77.5852 18.5688 75.8563ZM20.074 75.2968C21.1627 78.2258 19.6394 80.6673 16.6086 81.7938C13.5373 82.9354 10.7891 82.0817 9.70041 79.1527C8.61927 76.244 10.1502 73.8229 13.2216 72.6813C16.2523 71.5548 18.9928 72.3882 20.074 75.2968Z" fill="#662472"/>
<path d="M16.5717 60.0259L16.7669 61.9473L11.2401 62.5087C8.30402 62.8069 7.69465 63.894 7.84377 65.362C7.96 66.5062 8.82594 67.9451 11.762 67.6469L17.2888 67.0855L17.4862 69.0285L6.90759 70.103L6.71022 68.16L8.56687 67.9714C7.64444 67.6943 6.34083 66.6707 6.15882 64.8788C5.9483 62.8063 6.79193 61.0193 10.937 60.5983L16.5717 60.0259Z" fill="#662472"/>
<path d="M8.43922 57.5469L2.72478 57.4548L2.84797 55.6797L8.52185 56.3563L8.43922 57.5469Z" fill="#662472"/>
<path d="M9.34087 49.673L15.5479 50.9471C16.3981 51.1216 16.9394 50.9669 17.1096 50.1379C17.2623 49.3939 16.7942 48.5446 16.4263 48.0704L18.4032 48.4762C18.7699 49.1717 18.8074 50.1763 18.6722 50.8352C18.2664 52.8121 17.0045 53.2398 15.3039 52.8907L8.94816 51.5861L8.5511 53.5204L7.10564 53.2237C7.57252 50.9493 7.5742 50.6173 4.24561 49.8898L4.49432 48.6781L7.89541 49.3763L8.50628 46.4003L9.95174 46.697L9.34087 49.673Z" fill="#662472"/>
<path d="M14.5463 38.9189L12.7669 38.3218C12.5449 37.0292 12.4544 35.4123 13.4499 33.6319C14.7101 31.378 16.3754 31.2898 18.5157 32.4864L22.5879 34.7633C23.0425 35.0174 23.4258 35.1323 23.627 34.7724C23.807 34.4504 23.7113 33.9991 23.7113 33.9991L25.1652 34.9115C25.1652 34.9115 25.0369 35.5856 24.698 36.1917C24.158 37.1576 23.4136 37.2884 22.1696 36.6675C22.6073 37.7078 22.9719 39.279 22.1459 40.7564C21.3411 42.1958 19.8155 42.8345 18.1487 41.9026C16.5577 41.0131 16.4733 39.4742 17.0014 37.5071L17.5317 35.4915C17.7726 34.4825 17.6891 34.1872 17.1398 33.8801C16.098 33.2977 15.2561 33.6474 14.6949 34.6512C13.9853 35.9202 14.0803 37.4401 14.5463 38.9189ZM18.9798 40.1049C19.8321 40.5815 20.6695 40.3287 21.1355 39.4953C21.6015 38.6619 21.5733 37.3783 20.8984 36.0064L18.6444 34.7462C18.7446 35.1006 18.6994 35.4482 18.5968 35.9875L18.2298 37.6221C17.946 38.9302 18.1085 39.6178 18.9798 40.1049Z" fill="#662472"/>
<path d="M27.4784 30.3547C28.2831 29.4734 28.4316 28.3454 27.6624 27.643C27.0855 27.1162 26.3365 27.1963 25.3687 27.87L23.9682 28.8245C22.3455 29.958 21.0614 29.7552 20.1159 28.8919C18.9942 27.8677 18.34 25.9774 20.2715 23.8621C21.2665 22.7725 22.6447 22.0033 23.7574 21.8146L24.6053 23.2353C23.563 23.2826 22.1736 23.8065 21.3396 24.7199C20.4178 25.7294 20.617 26.7341 21.2419 27.3048C21.7868 27.8023 22.3971 27.7131 23.2918 27.1196L24.647 26.1825C26.315 25.0315 27.689 24.8463 28.8748 25.9291C30.3331 27.2606 30.2292 29.3697 28.5611 31.1964C27.3466 32.5265 25.8694 33.1465 24.5833 33.2356L23.7486 31.7683C24.8084 31.7662 26.4834 31.4444 27.4784 30.3547Z" fill="#662472"/>
<path d="M34.8767 24.084C35.8527 23.3971 36.2411 22.3277 35.6415 21.4759C35.1919 20.8371 34.4432 20.7537 33.3529 21.2027L31.7794 21.8325C29.9503 22.5892 28.7402 22.1141 28.0033 21.0672C27.129 19.825 26.8981 17.8381 29.2405 16.1894C30.4471 15.3401 31.9588 14.8864 33.086 14.9422L33.6074 16.5124C32.5794 16.3337 31.1098 16.5455 30.0983 17.2574C28.9804 18.0443 28.9581 19.0683 29.4452 19.7604C29.8699 20.3637 30.4851 20.4083 31.4868 20.0218L33.0122 19.3992C34.8893 18.6352 36.2709 18.7508 37.1952 20.0639C38.3318 21.6787 37.7753 23.7157 35.7523 25.1395C34.2795 26.1762 32.7034 26.4629 31.4282 26.2724L30.9299 24.6595C31.9651 24.8862 33.6701 24.9334 34.8767 24.084Z" fill="#662472"/>
<path d="M36.3447 11.8526L38.1608 11.1343L40.2838 16.5019C41.3693 19.2462 42.4811 19.3432 43.8734 18.7925C44.9631 18.3615 46.108 17.1852 45.0864 14.6023L42.9634 9.23472L44.7795 8.51641L48.6903 18.4041L46.8742 19.1224L46.2038 17.4274C46.2039 18.4307 45.5213 19.8909 43.8465 20.5533C41.9295 21.3115 40.04 21.1954 38.5156 17.3412L36.3447 11.8526Z" fill="#662472"/>
<path d="M59.5041 16.824L57.531 16.9019L57.3059 11.1992C57.2067 8.68397 56.3433 7.71907 54.8038 7.77982C53.0692 7.84828 52.2004 8.9467 52.2971 11.3969L52.5222 17.0995L50.5924 17.1757L50.1731 6.55098L52.1029 6.47482L52.173 8.25284C52.5665 7.21661 53.3953 6.20664 55.4769 6.1245C57.1898 6.05689 58.2335 7.18842 58.6934 8.38641C59.0349 7.13507 60.3339 5.93281 62.0469 5.86521C64.432 5.77108 66.0368 6.81531 66.1917 10.74L66.4211 16.551L64.4913 16.6272L64.2662 10.9245C64.1669 8.40929 63.3687 7.44181 61.6557 7.50942C60.0945 7.57103 59.1824 8.67115 59.2791 11.1213L59.5041 16.824Z" fill="#662472"/>
<path d="M73.6122 17.8523C74.9859 18.2574 76.2499 17.8836 77.1762 17.2744L77.1615 19.0121C76.2366 19.4633 74.7436 19.7696 73.016 19.2602C70.1853 18.4254 68.8068 16.1185 69.7827 12.8091C70.9243 8.93775 73.5029 7.86559 76.0422 8.61439C78.4774 9.33251 79.6037 11.4972 78.7813 14.2862C78.6708 14.6609 78.488 15.1273 78.2673 15.4921L71.7109 13.5587C71.0481 15.8066 71.6973 17.2876 73.6122 17.8523ZM75.6224 9.96116C74.1446 9.52538 72.6439 10.395 72.0352 12.229L77.0721 13.7144C77.6672 12.0799 77.2875 10.4522 75.6224 9.96116Z" fill="#662472"/>
<path d="M78.5647 21.1616L79.7291 18.8324L82.0777 20.0064L80.9133 22.3356L78.5647 21.1616Z" fill="#662472"/>
<path d="M91.4086 30.6165C88.365 27.4922 88.5256 23.4277 91.7743 20.263C94.852 17.2649 98.897 16.5659 102.274 20.0322C105.635 23.4829 104.77 27.4461 101.692 30.4442C98.4437 33.6089 94.4824 33.7719 91.4086 30.6165ZM94.3492 22.8441C91.8778 25.2517 92.3422 27.2834 93.5082 28.4802C94.7498 29.7548 96.693 30.1946 99.1644 27.787C101.714 25.3037 101.325 23.3497 100.083 22.0752C98.9173 20.8783 96.8984 20.3608 94.3492 22.8441Z" fill="#662472"/>
<path d="M111.499 33.0946L106.554 35.528C107.466 35.563 108.898 36.1156 109.684 37.7121C110.719 39.815 110.169 42.3832 106.567 44.1556C103.179 45.8227 100.613 44.8359 99.5593 42.6941C98.812 41.1754 99.2391 39.6351 99.8946 38.8046L98.2786 39.5998L96.784 36.5624L110.004 30.0572L111.499 33.0946ZM106.733 37.7613C106.149 36.5736 104.762 36.4095 103.127 37.2142C101.53 37.9999 100.834 39.1891 101.418 40.3768C102.022 41.6034 103.379 41.7577 104.976 40.972C106.611 40.1673 107.337 38.9879 106.733 37.7613Z" fill="#662472"/>
<path d="M104.419 50.9928C104.59 51.844 105.13 52.3333 105.811 52.197C106.301 52.099 106.62 51.7032 106.662 50.6988L106.734 49.1795C106.802 46.975 107.832 46.0386 109.257 45.7532C110.832 45.438 112.96 45.8972 113.633 49.2591C113.969 50.9401 113.833 52.6935 113.357 53.8511L111.084 53.6643C111.684 52.6811 112.046 51.0596 111.828 49.9744C111.645 49.0595 111.049 48.7361 110.432 48.8597C109.964 48.9534 109.675 49.2769 109.649 50.2557L109.577 51.775C109.505 53.9582 108.82 55.2903 107.097 55.6354C105.076 56.04 103.224 54.7509 102.611 51.6868C102.198 49.6229 102.542 48.0269 103.163 46.8182L105.436 47.1157C104.785 48.0648 104.168 49.7374 104.419 50.9928Z" fill="#662472"/>
<path d="M105.858 62.9857C105.796 64.3731 106.388 65.7029 107.052 66.4059L104.531 66.9231C103.879 65.9599 103.381 64.4606 103.467 62.5312C103.615 59.2361 105.557 57.0856 109.091 57.2436C113.253 57.4297 114.878 59.9569 114.747 62.8835C114.62 65.7233 112.911 67.515 109.594 67.3667C109.204 67.3492 108.685 67.2826 108.299 67.1785L108.588 60.7183C106.853 60.6408 105.926 61.4682 105.858 62.9857ZM112.663 62.8555C112.717 61.6415 111.713 60.7712 110.435 60.6923L110.261 64.5944C111.406 64.7325 112.601 64.2429 112.663 62.8555Z" fill="#662472"/>
<path d="M103.121 68.5135L113.571 71.3507L112.678 74.6386L110.73 74.1098C112.09 75.0637 112.47 76.3136 111.913 78.366L108.757 77.4864C109.021 77.1759 109.378 76.4409 109.486 76.043C109.912 74.4723 108.867 73.6038 107.086 73.1205L102.228 71.8013L103.121 68.5135Z" fill="#662472"/>
<path d="M99.2601 79.5388L110.817 80.8751L109.042 84.2077L101.947 83.0349L106.92 88.1915L105.471 90.9112L97.8728 82.1436L99.2601 79.5388Z" fill="#662472"/>
<path d="M93.7528 91.6042C92.8224 92.6354 92.4336 94.0381 92.4985 95.0028L90.2241 93.7982C90.3337 92.6403 90.9033 91.1667 92.1971 89.7329C94.4067 87.284 97.2735 86.8602 99.8996 89.2297C102.993 92.0208 102.639 95.0043 100.677 97.1793C98.7722 99.2899 96.3137 99.5851 93.8487 97.361C93.5587 97.0993 93.2011 96.7182 92.9693 96.3921L97.3013 91.591C96.0124 90.4281 94.7704 90.4765 93.7528 91.6042ZM99.0863 95.8321C99.9004 94.9299 99.6795 93.6199 98.7434 92.7461L96.1268 95.6461C96.9225 96.481 98.1559 96.8632 99.0863 95.8321Z" fill="#662472"/>
<path d="M87.8386 93.7644L90.173 96.8962L86.9542 99.2953L84.6199 96.1636L87.8386 93.7644Z" fill="#662472"/>
<path d="M86.41 56.93C83.78 53.52 80.67 50.54 77.15 48.09C74.01 45.9 68.74 42.21 61.26 41.8L60.36 41.76C58.13 41.71 56.08 41.97 54.21 42.43C50.04 43.43 46.74 45.37 44.29 46.79L44.05 46.93C40.28 49.11 36.96 51.87 34.17 55.15C33.78 55.6 33.71 56.23 33.98 56.75C35.41 59.51 39.49 66.37 46.68 70.46C48.44 71.46 53.14 74.13 59.43 74.4L59.86 74.42C60.07 74.42 60.28 74.43 60.5 74.43C63.6 74.43 66.33 73.84 68.49 73.15C70.5 72.5 72.01 71.78 72.87 71.37C80.36 67.76 84.91 61.22 86.51 58.57C86.82 58.05 86.78 57.4 86.42 56.93H86.41ZM71.6 68.75C71.21 68.93 70.72 69.18 70.12 69.43C69.21 69.82 68.06 70.27 66.73 70.65C64.82 71.19 62.5 71.6 59.91 71.52H59.57C55.21 71.33 51.76 69.88 49.62 68.77C49 68.45 48.5 68.17 48.11 67.95C42.25 64.61 38.64 59.2 37.03 56.3C39.46 53.59 42.31 51.29 45.5 49.45L45.76 49.3C47.03 48.57 48.45 47.74 50.08 46.98C51.53 46.3 53.14 45.69 54.92 45.27C56.59 44.87 58.42 44.64 60.42 44.67L61.12 44.69C65.15 44.91 68.43 46.19 71.09 47.64C72.83 48.59 74.3 49.61 75.52 50.46C78.52 52.55 81.2 55.06 83.51 57.9C81.85 60.42 77.78 65.79 71.63 68.75H71.6Z" fill="#662472"/>
<path d="M71.27 47.85C71.2 47.78 71.13 47.71 71.06 47.64C68.33 44.84 64.67 43.23 60.74 43.09C58.6 43.01 56.52 43.37 54.6 44.14C52.94 44.8 51.41 45.76 50.05 46.98C50 47.03 49.95 47.07 49.91 47.11C46.95 49.86 45.25 53.56 45.11 57.58C44.96 61.94 46.71 65.93 49.61 68.76C52.21 71.33 55.76 72.96 59.71 73.11C59.88 73.11 60.07 73.11 60.25 73.11C62.72 73.11 65.11 72.52 67.25 71.39C68.27 70.85 69.24 70.19 70.13 69.42C70.27 69.31 70.4 69.19 70.53 69.07C73.49 66.33 75.19 62.62 75.33 58.6C75.46 54.59 74.02 50.77 71.27 47.83V47.85ZM72.43 58.52C72.31 61.76 70.94 64.75 68.56 66.96C67.67 67.79 66.68 68.46 65.62 68.98C63.84 69.85 61.86 70.27 59.8 70.22C53.07 69.99 47.79 64.37 48.01 57.69C48.12 54.46 49.5 51.46 51.88 49.25C52.93 48.28 54.1 47.52 55.38 46.98C56.88 46.33 58.52 46 60.2 46H60.65C63.91 46.11 66.93 47.48 69.16 49.85C71.28 52.12 72.45 55.03 72.45 58.1C72.45 58.24 72.44 58.39 72.44 58.53L72.43 58.52Z" fill="#662472"/>
<path d="M66.3 52.45C64.78 50.84 62.73 49.91 60.51 49.83C59.1 49.76 57.76 50.06 56.57 50.64C53.9 51.94 52.02 54.65 51.9 57.81C51.82 60.02 52.62 62.13 54.14 63.75C55.66 65.36 57.71 66.29 59.93 66.36C60.03 66.37 60.13 66.37 60.24 66.37C61.41 66.37 62.55 66.13 63.6 65.67C64.44 65.3 65.23 64.78 65.92 64.13C67.54 62.63 68.47 60.59 68.54 58.38C68.61 56.17 67.82 54.06 66.3 52.45ZM65.64 58.28C65.59 59.71 64.98 61.03 63.94 62.01C63.41 62.5 62.8 62.88 62.15 63.12C61.48 63.36 60.76 63.48 60.03 63.46C58.59 63.42 57.24 62.81 56.25 61.76C55.29 60.74 54.77 59.43 54.79 58.05V57.91C54.86 55.95 55.98 54.26 57.6 53.38C58.37 52.96 59.27 52.71 60.21 52.71H60.4C61.02 52.73 61.63 52.85 62.18 53.07C62.93 53.36 63.62 53.82 64.18 54.42C65.13 55.42 65.64 56.72 65.64 58.07V58.27V58.28Z" fill="#662472"/>
<path d="M62.19 53.09C62.08 52.39 61.81 51.7 61.37 51.07C61.09 50.65 60.4 49.96 59.05 50.09C58.32 50.14 57.48 50.44 56.66 50.89C55.17 51.68 53.75 52.95 53.19 54.13C52.61 55.36 53.01 56.24 53.29 56.66C53.71 57.25 54.22 57.72 54.8 58.06C55.58 58.54 56.46 58.78 57.36 58.78C58.15 58.78 58.94 58.6 59.67 58.2C59.82 58.12 59.98 58.03 60.13 57.93C61.74 56.82 62.47 54.92 62.19 53.09ZM55.87 55.25C56.13 54.78 56.92 54.13 57.7 53.64C58.24 53.3 58.78 53.05 59.14 52.99C59.28 53.28 59.35 53.58 59.35 53.88C59.35 54.53 59.05 55.15 58.48 55.54C57.66 56.11 56.54 55.97 55.86 55.25H55.87Z" fill="#662472"/>
</g>
<defs>
<clipPath id="clip0_989_417">
<rect width="120.47" height="110.06" fill="white"/>
</clipPath>
</defs>
</svg>
