<svg width="15" height="24" viewBox="0 0 15 24" fill="none" xmlns="http://www.w3.org/2000/svg">
<path d="M13.3466 0.9H9.56057C6.76088 0.9 4.5018 3.09649 4.5018 5.79529V8.54654H1.65335C1.23448 8.54654 0.9 8.86192 0.9 9.26215V13.4418C0.9 13.8421 1.23448 14.1574 1.65335 14.1574H4.5018V22.3682C4.5018 22.7813 4.83284 23.1 5.2384 23.1H9.56057C9.96613 23.1 10.2972 22.7813 10.2972 22.3682V14.1574H13.1456C13.546 14.1574 13.899 13.8437 13.899 13.4418V9.26215C13.899 8.86031 13.546 8.54654 13.1456 8.54654H10.2972V6.5271H13.3466C13.7689 6.5271 14.1 6.19221 14.1 5.79529V1.63181C14.1 1.21704 13.7672 0.9 13.3466 0.9ZM8.80722 13.4418V21.6364H5.99175V13.4418C5.99175 13.0271 5.659 12.71 5.2384 12.71H2.4067V9.99396H5.2384C5.659 9.99396 5.99175 9.67692 5.99175 9.26215V5.79529C5.99175 3.89341 7.58555 2.34742 9.56057 2.34742H12.6101V5.06348H9.56057C9.13997 5.06348 8.80722 5.38052 8.80722 5.79529V9.26215C8.80722 9.67692 9.13997 9.99396 9.56057 9.99396H12.3923V12.71H9.56057C9.13997 12.71 8.80722 13.0271 8.80722 13.4418Z" fill="#FFFBF5" stroke="#FFFBF5" stroke-width="0.2"/>
</svg>
