<svg width="22" height="22" viewBox="0 0 22 22" fill="none" xmlns="http://www.w3.org/2000/svg">
<g clip-path="url(#clip0_276_1195)">
<path d="M16.1619 -0.1H5.83808C2.56689 -0.1 -0.1 2.569 -0.1 5.84246V16.174C-0.1 19.4479 2.56726 22.1 5.83808 22.1H16.1619C19.4327 22.1 22.1 19.4479 22.1 16.174V5.84246C22.1 2.569 19.4331 -0.1 16.1619 -0.1ZM16.1619 20.6457H5.83808C3.37038 20.6457 1.36987 18.6277 1.36987 16.174V5.84246C1.36987 3.37202 3.37061 1.35431 5.83808 1.35431H16.1619C18.6294 1.35431 20.6301 3.37202 20.6301 5.84246V16.174C20.6301 18.6277 18.6296 20.6457 16.1619 20.6457Z" fill="#FFFBF5" stroke="#FFFBF5" stroke-width="0.2"/>
<path d="M11.0001 4.71909C7.53099 4.71909 4.71567 7.53663 4.71567 11.0081C4.71567 14.48 7.53134 17.2807 11.0001 17.2807C14.469 17.2807 17.2845 14.4633 17.2845 11.0081C17.2845 7.55331 14.4693 4.71909 11.0001 4.71909ZM11.0001 15.8264C8.33446 15.8264 6.18554 13.6599 6.18554 11.0081C6.18554 8.35597 8.33489 6.17341 11.0001 6.17341C13.6655 6.17341 15.8146 8.33968 15.8146 11.0081C15.8146 13.6759 13.6496 15.8264 11.0001 15.8264Z" fill="#FFFBF5" stroke="#FFFBF5" stroke-width="0.2"/>
<path d="M18.7512 3.25123C18.3719 2.87163 17.8606 2.67358 17.3329 2.67358C16.228 2.67358 15.3374 3.56481 15.3374 4.65408C15.3374 5.74335 16.228 6.65108 17.3329 6.65108C18.4379 6.65108 19.3284 5.75986 19.3284 4.65408C19.3284 4.12595 19.1305 3.63082 18.7512 3.25123ZM17.3329 5.39676C16.9371 5.39676 16.6073 5.06668 16.6073 4.65408C16.6073 4.24148 16.9371 3.9279 17.3329 3.9279C17.7287 3.9279 18.075 4.25798 18.075 4.65408C18.075 5.05018 17.7452 5.39676 17.3329 5.39676Z" fill="#FFFBF5"/>
</g>
<defs>
<clipPath id="clip0_276_1195">
<rect width="22" height="22" fill="white"/>
</clipPath>
</defs>
</svg>
