<svg
  width="432"
  height="392"
  viewBox="0 0 152 392"
  fill="none"
  xmlns="http://www.w3.org/2000/svg"
>
<path
    d="M240.459 61.1495C228.382 40.9302 204.325 31.1578 185.061 30.2567C136.338 27.9737 93.7659 81.18 100.979 112.271C105.86 133.331 130.419 130.631 137.816 153.302C148.908 187.291 99.2785 210.359 102.804 258.839C105.426 294.773 135.234 316.94 138.587 319.343C168.444 340.829 207.773 338.66 235.955 324.556C277.42 303.796 297.891 255.591 290.441 220.061C283.395 186.495 256.54 188.518 245.449 149.299C234.085 109.111 257.232 89.2151 240.459 61.1495Z"
    fill="#F28F1D"
  />
<path
    opacity="0.7"
    d="M105.623 336.436C64.4575 310.041 44.8131 253.915 61.4381 220.941C80.4563 183.221 137.175 195.135 156.488 152.849C170.851 121.41 148.439 95.2274 160.789 85.727C180.385 70.6481 269.088 111.805 286.887 187.79C299.35 240.984 273.99 299.972 226.812 330.338C224.007 332.145 160.462 371.604 105.627 336.441L105.623 336.436Z"
    fill="#572D69"
  />
</svg>
