<svg
  width="321"
  height="187"
  viewBox="0 0 121 187"
  fill="none"
  xmlns="http://www.w3.org/2000/svg"
>
<path
    id="Vector"
    opacity="0.7"
    d="M-62.2507 184.89C-29.8526 188.717 -10.8758 140.688 17.4 145.395C40.1276 149.176 38.4324 181.948 61.9676 185.695C83.225 189.078 114.321 167.072 119.945 138.211C123.688 118.987 115.973 97.5386 100.193 87.4527C76.2762 72.1631 47.6784 91.8197 35.5215 77.3116C25.8641 65.7852 41.7196 50.7626 32.7439 29.8377C25.5988 13.1861 6.24615 0.99552 -13.8309 0.679017C-39.7244 0.264201 -62.3442 19.667 -71.4974 38.5221C-84.4244 65.1611 -64.6876 78.8147 -78.5522 112.538C-86.7785 132.544 -97.4727 136.854 -96.2938 150.731C-94.9804 166.184 -79.8523 182.807 -62.253 184.886L-62.2507 184.89Z"
    fill="#572D69"
  />
</svg>
