<svg
  width="364"
  height="313"
  viewBox="0 0 104 313"
  fill="none"
  xmlns="http://www.w3.org/2000/svg"
>
<path
    d="M-21.738 256.65C24.9071 266.113 82.0793 246.442 98.5376 207.643C100.448 203.133 108.34 184.532 100.796 167.144C89.5342 141.199 57.5011 149.323 38.5561 126.132C12.0621 93.6982 52.1556 48.2415 27.0214 18.9796C5.93735 -5.56866 -43.1894 -5.02171 -76.2598 13.2614C-114.467 34.3887 -124.012 75.1416 -126.876 87.6917C-141.279 150.755 -101.558 200.941 -95.3983 208.464C-86.787 218.99 -62.8986 248.302 -21.738 256.65Z"
    fill="#F28F1D"
  />
<path
    opacity="0.7"
    d="M31.2094 304.299C-4.36707 321.699 -51.4471 311.641 -67.2528 286.208C-85.3335 257.115 -53.2264 222.827 -74.3404 191.603C-90.037 168.386 -117.574 172.876 -118.947 160.309C-121.128 140.366 -55.3378 96.242 4.69805 115.957C46.7276 129.756 76.8471 172.216 77.9921 217.725C78.0614 220.432 78.6066 281.122 31.2143 304.299H31.2094Z"
    fill="#572D69"
  />
</svg>
