<svg
  width="150"
  height="174"
  viewBox="0 0 71 174"
  fill="none"
  xmlns="http://www.w3.org/2000/svg"
>
<g id="PHOTO GROUP 12">
<path
      id="Vector"
      d="M83.1748 19.0376C76.3543 12.369 65.9229 11.0305 58.2859 12.6702C38.97 16.816 27.8026 42.0547 33.843 53.4836C37.9327 61.2258 47.2706 57.6284 52.5125 65.7408C60.3718 77.9035 43.323 92.0702 49.7183 110.69C54.4616 124.49 68.4274 130.088 69.9889 130.682C83.903 136.008 99.0799 131.09 108.657 122.652C122.747 110.234 125.777 89.2393 119.185 76.0965C112.954 63.6809 102.647 67.251 94.2468 53.0404C85.6398 38.4784 92.646 28.293 83.1748 19.0376Z"
      fill="#F28F1D"
    />
<path
      id="Vector_2"
      opacity="0.7"
      d="M54.2351 149.877C39.5033 136.638 35.3154 112.92 44.1137 100.825C54.1786 86.9896 76.0727 95.4548 86.5538 79.813C94.3476 68.1836 87.0985 56.2545 92.655 53.2632C101.473 48.5152 134.243 70.7583 136.396 102.294C137.905 124.37 123.917 146.294 103.076 155.352C101.836 155.891 73.8597 167.515 54.236 149.879L54.2351 149.877Z"
      fill="#572D69"
    />
</g>
</svg>
