<svg width="145" height="25" viewBox="0 0 145 25" fill="none" xmlns="http://www.w3.org/2000/svg">
<path d="M2.21922 24.2643C1.00584 24.2643 0 23.2642 0 22.0577V4.4129C0 3.20641 1.00584 2.2063 2.21922 2.2063H8.87291C15.0077 2.2063 19.965 7.13542 19.965 13.2353C19.965 19.3352 15.0077 24.2643 8.87291 24.2643H2.21922ZM4.43845 6.61949V19.8551H8.8769C12.553 19.8551 15.5306 16.8905 15.5306 13.2393C15.5306 9.58808 12.549 6.62346 8.8769 6.62346H4.43845V6.61949Z" fill="#FAECD8"/>
<path d="M29.9435 24.2647C25.058 24.2647 21.0706 20.3 21.0706 15.4423C21.0706 10.5846 25.058 6.61987 29.9435 6.61987C34.829 6.61987 38.8164 10.5846 38.8164 15.4423C38.8164 16.6488 37.8105 17.6489 36.5972 17.6489H26.0957C26.8581 18.9903 28.279 19.8555 29.9435 19.8555H32.1627C33.3761 19.8555 34.3819 20.8556 34.3819 22.0621C34.3819 23.2686 33.3761 24.2687 32.1627 24.2687H29.9435V24.2647ZM26.0957 13.2357H33.7912C33.0288 11.926 31.572 11.0291 29.9435 11.0291C28.315 11.0291 26.8581 11.926 26.0957 13.2357Z" fill="#FAECD8"/>
<path d="M45.1909 22.058C45.1909 23.2645 44.1851 24.2646 42.9717 24.2646C41.7583 24.2646 40.7524 23.2645 40.7524 22.058V2.2066C40.7524 1.00011 41.7583 0 42.9717 0C44.1851 0 45.1909 1.00011 45.1909 2.2066V22.058Z" fill="#FAECD8"/>
<path d="M50.1802 0.551758C51.5692 0.551758 52.6748 1.65506 52.6748 3.03616C52.6748 4.41727 51.5652 5.5166 50.1802 5.5166C48.7952 5.5166 47.6855 4.4133 47.6855 3.03616C47.6855 1.65902 48.7952 0.551758 50.1802 0.551758ZM52.3994 22.0581C52.3994 23.2646 51.3936 24.2647 50.1802 24.2647C48.9668 24.2647 47.961 23.2646 47.961 22.0581V8.82253C47.961 7.61604 48.9668 6.61593 50.1802 6.61593C51.3936 6.61593 52.3994 7.61604 52.3994 8.82253V22.0581Z" fill="#FAECD8"/>
<path d="M73.925 19.4741C73.925 19.8511 73.8212 20.1964 73.6496 20.506C73.9968 20.9544 74.2044 21.4704 74.2044 22.0577C74.2044 23.4349 73.0948 24.5382 71.7057 24.5382C70.8396 24.5382 70.0773 24.1254 69.6262 23.4349C68.2731 23.9865 66.8522 24.2643 65.4312 24.2643C59.2964 24.2643 54.3391 19.3352 54.3391 13.2353C54.3391 7.13542 59.2964 2.2063 65.4312 2.2063C68.2731 2.2063 71.0831 3.3096 73.2664 5.44476C73.6815 5.8575 73.925 6.44487 73.925 6.99652C73.925 8.203 72.8872 9.20312 71.7057 9.20312C71.115 9.20312 70.5642 8.99674 70.1451 8.54828C68.8599 7.23861 67.1276 6.61949 65.4312 6.61949C61.7591 6.61949 58.7776 9.58411 58.7776 13.2353C58.7776 16.8865 61.7591 19.8511 65.4312 19.8511C66.8522 19.8511 68.2731 19.4384 69.4865 18.5057V15.4379H67.6505C66.4371 15.4379 65.4312 14.4378 65.4312 13.2313C65.4312 12.0249 66.4371 11.0247 67.6505 11.0247H71.7057C72.9191 11.0247 73.925 12.0249 73.925 13.2313V19.4701V19.4741Z" fill="#FAECD8"/>
<path d="M93.9897 15.4422C93.9897 17.0257 93.5387 18.51 92.8083 19.8197C93.6744 20.1967 94.2651 21.0619 94.2651 22.062C94.2651 23.4392 93.1555 24.5425 91.7705 24.5425C90.7647 24.5425 89.8985 23.9551 89.4834 23.0939C88.2022 23.8519 86.7094 24.2686 85.1168 24.2686C80.2273 24.2686 76.2439 20.3039 76.2439 15.4462V8.83038C76.2439 7.62389 77.2497 6.62378 78.4631 6.62378C79.6765 6.62378 80.6823 7.62389 80.6823 8.83038V15.4462C80.6823 17.8909 82.6581 19.8594 85.1208 19.8594C87.5835 19.8594 89.5592 17.8949 89.5592 15.4462V8.83038C89.5592 7.62389 90.5651 6.62378 91.7785 6.62378C92.9919 6.62378 93.9977 7.62389 93.9977 8.83038V15.4462L93.9897 15.4422Z" fill="#FAECD8"/>
<path d="M104.798 6.61572C109.688 6.61572 113.671 10.5805 113.671 15.4381C113.671 17.0217 113.22 18.5059 112.494 19.8156C113.36 20.1926 113.951 21.0578 113.951 22.0579C113.951 23.4351 112.841 24.5384 111.452 24.5384C110.446 24.5384 109.58 23.951 109.165 23.0898C107.884 23.8478 106.391 24.2645 104.798 24.2645C99.913 24.2645 95.9255 20.2998 95.9255 15.4421C95.9255 10.5844 99.913 6.61969 104.798 6.61969V6.61572ZM104.798 19.8513C107.261 19.8513 109.237 17.8868 109.237 15.4381C109.237 12.9895 107.261 11.0249 104.798 11.0249C102.336 11.0249 100.36 12.9895 100.36 15.4381C100.36 17.8868 102.336 19.8513 104.798 19.8513Z" fill="#FAECD8"/>
<path d="M118.381 6.34204C119.387 6.34204 120.253 6.92941 120.636 7.79062C121.954 7.06831 123.442 6.61985 125.039 6.61985C126.252 6.61985 127.258 7.61996 127.258 8.82645C127.258 10.0329 126.252 11.033 125.039 11.033C122.58 11.033 120.601 12.9975 120.601 15.4462V22.0621C120.601 23.2685 119.595 24.2687 118.381 24.2687C117.168 24.2687 116.162 23.2685 116.162 22.0621V15.4462C116.162 13.8627 116.577 12.3784 117.344 11.1045C116.477 10.6917 115.887 9.83053 115.887 8.83042C115.887 7.45328 116.996 6.34998 118.381 6.34998V6.34204Z" fill="#FAECD8"/>
<path d="M143.543 19.8157C144.409 20.1927 145 21.0579 145 22.058C145 23.4352 143.89 24.5385 142.501 24.5385C141.496 24.5385 140.629 23.9511 140.214 23.0899C138.933 23.8479 137.44 24.2646 135.848 24.2646C130.962 24.2646 126.975 20.2999 126.975 15.4422C126.975 10.5845 130.962 6.61979 135.848 6.61979C137.444 6.61979 138.969 7.06825 140.286 7.82627V2.2066C140.286 1.00011 141.292 0 142.505 0C143.719 0 144.725 1.00011 144.725 2.2066V15.4422C144.725 17.0257 144.274 18.51 143.547 19.8197L143.543 19.8157ZM135.848 11.029C133.389 11.029 131.409 12.9935 131.409 15.4422C131.409 17.8909 133.385 19.8554 135.848 19.8554C138.31 19.8554 140.286 17.8909 140.286 15.4422C140.286 12.9935 138.31 11.029 135.848 11.029Z" fill="#FAECD8"/>
</svg>
