<svg width="168" height="22" viewBox="0 0 168 22" fill="none" xmlns="http://www.w3.org/2000/svg">
<g id="Logo BioDose" clip-path="url(#clip0_212_9608)">
<path id="Vector" d="M0 14.0468V7.93566C0 6.30603 0.815362 5.49121 2.42836 5.49121H6.91285L7.62186 6.05804V6.71343H2.42836C1.70162 6.71343 1.34712 7.0677 1.34712 7.79395V14.1885C1.34712 14.9147 1.70162 15.269 2.42836 15.269H7.65731V15.9244L6.9483 16.4912H2.42836C0.797637 16.4912 0 15.6764 0 14.0645" fill="#662472"/>
<path id="Vector_2" d="M9.64258 16.4911V9.17552C10.0148 8.53783 10.7061 8.21899 11.7164 8.21899H13.3117L13.9498 8.69725V9.33494H11.7164C11.3442 9.33494 11.096 9.4235 10.9188 9.61835V16.4911H9.64258Z" fill="#662472"/>
<path id="Vector_3" d="M15.5098 14.0997V10.5925C15.5098 8.99827 16.3074 8.20117 17.9027 8.20117H19.9765C21.5718 8.20117 22.3694 8.99827 22.3694 10.5925V12.8952H16.786V14.2591C16.786 15.0031 17.1582 15.3751 17.9027 15.3751H22.0504V16.0128L21.4123 16.491H17.9027C16.3074 16.491 15.5098 15.6939 15.5098 14.0997ZM16.786 11.7793H21.0755V10.4508C21.0755 9.70681 20.7033 9.33483 19.9588 9.33483H17.885C17.1405 9.33483 16.7683 9.70681 16.7683 10.4508V11.7793H16.786Z" fill="#662472"/>
<path id="Vector_4" d="M26.7476 16.491C25.1346 16.491 24.3369 15.6939 24.3369 14.082C24.3369 12.4701 25.1346 11.673 26.7476 11.673H29.6545V10.4331C29.6545 9.68909 29.2823 9.31711 28.5378 9.31711H25.1168V8.67943L25.7549 8.20117H28.5378C30.1331 8.20117 30.9307 8.99827 30.9307 10.5925V16.491H26.7476ZM25.6131 14.2591C25.6131 15.0031 25.9854 15.3751 26.7298 15.3751H29.6545V12.7889H26.7298C25.9854 12.7889 25.6131 13.1609 25.6131 13.9049V14.2591Z" fill="#662472"/>
<path id="Vector_5" d="M33.3594 14.0998V5.50879H34.6356V8.21893H37.6666V9.33488H34.6356V14.2769C34.6356 15.0209 35.0078 15.3928 35.7523 15.3928H37.8261V16.0305L37.188 16.5088H35.7523C34.157 16.5088 33.3594 15.7117 33.3594 14.1175" fill="#662472"/>
<path id="Vector_6" d="M39.5273 14.0997V10.5925C39.5273 8.99827 40.325 8.20117 41.9203 8.20117H43.9941C45.5894 8.20117 46.387 8.99827 46.387 10.5925V12.8952H40.8036V14.2591C40.8036 15.0031 41.1758 15.3751 41.9203 15.3751H46.068V16.0128L45.4299 16.491H41.9203C40.325 16.491 39.5273 15.6939 39.5273 14.0997ZM40.8036 11.7793H45.0931V10.4508C45.0931 9.70681 44.7208 9.33483 43.9764 9.33483H41.9025C41.1581 9.33483 40.7858 9.70681 40.7858 10.4508V11.7793H40.8036Z" fill="#662472"/>
<path id="Vector_7" d="M48.6738 14.0999V10.5926C48.6738 8.99844 49.4715 8.20134 51.0667 8.20134H54.2573V4.69409H55.5335V16.4735H51.0667C49.4715 16.4735 48.6738 15.6764 48.6738 14.0822M49.95 14.2416C49.95 14.9856 50.3223 15.3575 51.0667 15.3575H54.2573V9.31728H51.0667C50.3223 9.31728 49.95 9.68926 49.95 10.4332V14.2593V14.2416Z" fill="#662472"/>
<path id="Vector_8" d="M61.8965 16.4911V4.71167H63.1727V8.21892H66.3633C67.9585 8.21892 68.7562 9.01602 68.7562 10.6102V14.1175C68.7562 15.7117 67.9585 16.5088 66.3633 16.5088H61.8965V16.4911ZM63.1727 15.3751H66.3633C67.1077 15.3751 67.4799 15.0031 67.4799 14.2592V10.4331C67.4799 9.68913 67.1077 9.31715 66.3633 9.31715H63.1727V15.3574V15.3751Z" fill="#662472"/>
<path id="Vector_9" d="M70.21 8.43156L70.3695 8.21899H71.4685L73.8791 15.3752H74.1981L76.6265 8.21899H77.7255L77.8673 8.43156L73.9677 19.6795H72.8687L72.7447 19.4493L73.8082 16.4911H73.0105L70.21 8.43156Z" fill="#662472"/>
<path id="Vector_10" d="M87.1729 4.71164C87.3324 6.55383 88.9454 7.91776 90.7534 7.75834C91.7106 7.66977 92.8273 6.83725 93.749 7.51035L94.5289 8.0949C94.7061 8.2366 94.8657 8.5023 94.9543 8.69715C95.0606 8.92742 95.0429 9.24626 95.0961 9.49425C95.1493 9.70681 95.2024 9.91937 95.3265 10.1142C95.5392 10.4685 95.8937 10.7519 96.2837 10.8759C96.4964 10.9467 96.7623 10.9822 96.9927 10.9645C97.9676 10.8759 98.6943 9.99022 98.6057 8.99828C98.5348 8.2366 97.9144 7.45721 97.1345 7.35093C96.7623 7.29779 96.4078 7.42179 96.0533 7.42179C95.6987 7.42179 95.362 7.29779 95.0784 7.08523C94.8302 6.89039 94.5289 6.71325 94.3162 6.48298C93.8553 5.987 93.7135 5.20762 93.7312 4.55222C93.7312 4.41052 93.7312 4.28652 93.7312 4.14481C93.5717 2.30262 91.9587 0.938695 90.1507 1.09812C88.3428 1.25754 86.9956 2.88717 87.1729 4.72936" fill="#662472"/>
<path id="Vector_11" d="M113.229 16.4026V5.59741H118.192C119.893 5.59741 120.744 6.46537 120.744 8.21899V9.1578C120.744 9.51207 120.638 9.81319 120.443 10.0612L119.911 10.7166L120.549 11.2657C120.886 11.5491 121.045 11.9565 121.045 12.5233V13.7633C121.045 15.5169 120.195 16.3849 118.493 16.3849H113.229V16.4026ZM115.426 9.83091H118.103C118.404 9.83091 118.564 9.67149 118.564 9.37036V8.11271C118.564 7.79387 118.404 7.63445 118.103 7.63445H115.426V9.83091ZM115.426 14.3655H118.404C118.706 14.3655 118.865 14.2061 118.865 13.905V12.3462C118.865 12.0274 118.706 11.8679 118.404 11.8679H115.426V14.3655Z" fill="#662472"/>
<path id="Vector_12" d="M124.732 8.13037H122.623V16.3848H124.732V8.13037Z" fill="#662472"/>
<path id="Vector_13" d="M126.398 13.8696V10.6812C126.398 8.99844 127.214 8.14819 128.862 8.14819H130.989C132.638 8.14819 133.453 8.99844 133.453 10.6812V13.8696C133.453 15.5524 132.638 16.4026 130.989 16.4026H128.862C127.214 16.4026 126.398 15.5524 126.398 13.8696ZM128.49 14.029C128.49 14.3656 128.65 14.525 128.969 14.525H130.865C131.184 14.525 131.344 14.3656 131.344 14.029V10.5218C131.344 10.1852 131.184 10.0258 130.865 10.0258H128.969C128.65 10.0258 128.49 10.1852 128.49 10.5218V14.029Z" fill="#662472"/>
<path id="Vector_14" d="M135.297 16.4026V5.59741H139.285C142.139 5.59741 143.575 7.06762 143.575 10.008V11.9742C143.575 14.9146 142.139 16.3849 139.285 16.3849H135.297V16.4026ZM137.495 14.3655H139.409C140.721 14.3655 141.394 13.6924 141.394 12.3285V9.67149C141.394 8.30756 140.739 7.63445 139.409 7.63445H137.495V14.3655Z" fill="#662472"/>
<path id="Vector_15" d="M145.117 13.8696V10.6812C145.117 8.99844 145.933 8.14819 147.581 8.14819H149.708C151.356 8.14819 152.172 8.99844 152.172 10.6812V13.8696C152.172 15.5524 151.356 16.4026 149.708 16.4026H147.581C145.933 16.4026 145.117 15.5524 145.117 13.8696ZM147.226 14.029C147.226 14.3656 147.386 14.525 147.705 14.525H149.584C149.903 14.525 150.063 14.3656 150.063 14.029V10.5218C150.063 10.1852 149.903 10.0258 149.584 10.0258H147.705C147.386 10.0258 147.226 10.1852 147.226 10.5218V14.029Z" fill="#662472"/>
<path id="Vector_16" d="M153.589 15.694V14.5249H157.081C157.418 14.5249 157.595 14.33 157.595 13.9226C157.595 13.5152 157.435 13.285 157.134 13.2318L155.486 12.9484C154.209 12.7358 153.571 11.9742 153.571 10.6634C153.571 8.9629 154.387 8.13037 156.035 8.13037H158.393L159.314 8.8389V10.008H156.177C155.84 10.008 155.663 10.2028 155.663 10.6102C155.663 11.0176 155.822 11.2479 156.124 11.3011L157.772 11.5845C159.048 11.797 159.686 12.5587 159.686 13.8695C159.686 15.57 158.871 16.4025 157.223 16.4025H154.493L153.589 15.694Z" fill="#662472"/>
<path id="Vector_17" d="M161.087 13.8696V10.6812C161.087 8.99844 161.902 8.14819 163.551 8.14819H165.536C167.184 8.14819 168 8.99844 168 10.6812V13.0902H163.196V14.029C163.196 14.3656 163.356 14.525 163.675 14.525H167.698V15.6941L166.794 16.4026H163.568C161.92 16.4026 161.105 15.5524 161.105 13.8696M163.214 11.3897H165.926V10.5218C165.926 10.1852 165.766 10.0258 165.447 10.0258H163.71C163.391 10.0258 163.232 10.1852 163.232 10.5218V11.3897H163.214Z" fill="#662472"/>
<path id="Vector_18" d="M100.201 2.19646C100.201 3.41868 99.208 4.42834 97.9495 4.42834C96.7087 4.42834 95.6807 3.45411 95.6807 2.23188C95.6807 1.00966 96.6733 0.0177134 97.9318 0C99.1725 0 100.201 0.974235 100.201 2.19646Z" fill="#662472"/>
<path id="Vector_19" d="M104.082 10.6634V15.1272L97.9317 19.3961L93.8194 16.6151L91.7279 15.1626V10.9468L89.6895 10.0434V15.8357C89.6895 16.2608 89.8844 16.6328 90.1858 16.8454L97.3468 21.8228C97.5063 21.9291 97.6835 21.9822 97.8608 21.9822H97.8785C98.0558 21.9822 98.233 21.9291 98.3926 21.8228L105.554 16.8631C105.554 16.8631 105.589 16.8454 105.589 16.8276C105.89 16.6151 106.085 16.2254 106.085 15.8003V9.76001L104.047 10.6634H104.082Z" fill="#662472"/>
<path id="Vector_20" d="M104.986 5.56192C103.072 5.2785 101.3 6.57158 101.016 8.44919C100.874 9.44114 101.441 10.7874 100.52 11.5667L99.7397 12.2044C99.5625 12.3638 99.2434 12.4347 99.0307 12.4878C98.7826 12.541 98.4458 12.4524 98.1799 12.4524C97.9495 12.4524 97.719 12.4524 97.4886 12.5233C97.0809 12.6473 96.691 12.9484 96.4783 13.3027C96.3542 13.5152 96.2478 13.7632 96.2124 14.0112C96.0529 15.0386 96.7796 15.9774 97.8254 16.1368C98.623 16.2608 99.5448 15.818 99.8461 15.0386C99.9879 14.6666 99.9524 14.2946 100.041 13.9226C100.13 13.5506 100.342 13.2495 100.626 13.0015C100.892 12.789 101.14 12.541 101.441 12.3638C102.062 12.0273 102.877 12.0804 103.533 12.2576C103.675 12.293 103.817 12.3284 103.958 12.3461C105.873 12.6295 107.645 11.3365 107.947 9.45886C108.23 7.58124 106.901 5.82762 104.986 5.52649" fill="#662472"/>
</g>
<defs>
<clipPath id="clip0_212_9608">
<rect width="168" height="22" fill="white"/>
</clipPath>
</defs>
</svg>
