<svg width="59" height="48" viewBox="0 0 59 48" fill="none" xmlns="http://www.w3.org/2000/svg">
<g clip-path="url(#clip0_212_7891)">
<path d="M31.8191 33.2985C31.425 33.2985 31.0687 33.0268 30.9751 32.6247C30.4685 30.4631 30.9821 29.2599 31.5006 28.6323C31.8788 28.174 32.5387 27.6707 33.1816 27.1955C33.4294 27.012 33.5936 26.9017 33.72 26.8155C33.8852 26.7042 33.934 26.6701 34.0485 26.5588C34.2933 26.3172 34.3809 26.1517 34.4933 25.9412C34.6287 25.6865 34.7969 25.3707 35.18 25.0358C35.394 24.8483 36.1624 24.338 37.1467 24.2066C37.7647 24.1244 38.1767 24.2066 38.5082 24.2748C38.7679 24.328 38.9122 24.357 39.1551 24.3109C39.3382 24.2758 39.3919 24.2387 39.593 24.1014C39.7522 23.9921 39.9692 23.8427 40.2926 23.6792C41.2411 23.201 41.9686 23.1709 42.5538 23.1469C42.9828 23.1288 43.3222 23.1148 43.7302 22.9303C44.3801 22.6365 44.7414 22.1181 45.2012 21.4624C46.2402 19.9755 46.4383 18.2751 46.4174 17.099C44.8827 16.9135 43.3938 16.7922 41.9826 16.738C41.8572 16.732 41.7238 16.735 41.5845 16.736C40.8311 16.74 39.804 16.7521 39.0506 15.966C38.6694 15.567 38.543 15.1469 38.4494 14.841C38.3818 14.6165 38.333 14.455 38.1947 14.2766C37.9966 14.0219 37.707 13.8434 36.6759 13.5727C36.4888 13.5236 36.3007 13.4715 36.1096 13.4193C34.8377 13.0694 33.524 12.7084 31.9564 12.9601C31.3931 13.0524 30.8666 13.2037 30.6129 13.2759C30.0087 13.4494 29.329 13.6449 28.5597 14.046C27.7963 14.444 26.9314 14.8942 26.613 15.5629C26.5413 15.7133 26.3721 16.1204 26.2208 16.5826C26.1004 16.9526 26.0287 17.2373 26.0098 17.3145C25.5003 19.3409 22.6748 23.8958 22.3543 24.4082C20.1687 27.9073 19.9189 28.1751 19.3934 28.5661C18.8341 28.9802 18.3693 29.2058 17.8309 29.4664L17.7244 29.5186C17.2925 29.7271 16.7729 29.5456 16.5659 29.1105C16.3579 28.6754 16.5381 28.153 16.97 27.9434L17.0795 27.8903C17.5771 27.6487 17.9374 27.4742 18.3653 27.1564C18.637 26.9559 18.8719 26.7002 20.8863 23.4747C21.7163 22.1462 23.9536 18.3743 24.3259 16.8944C24.3508 16.7962 24.4324 16.4663 24.5727 16.0352C24.7409 15.5228 24.936 15.0386 25.0484 14.805C25.6177 13.6068 26.807 12.9872 27.7625 12.4899C28.6861 12.0076 29.4892 11.777 30.1331 11.5915C30.3989 11.5153 31.0149 11.3379 31.6808 11.2296C33.6155 10.9177 35.183 11.3479 36.5664 11.7279C36.7515 11.778 36.9337 11.8291 37.1138 11.8763C38.2723 12.1801 39.0048 12.4809 39.5611 13.1937C39.8995 13.6289 40.0209 14.0319 40.1105 14.3257C40.1852 14.5713 40.216 14.6586 40.3016 14.7488C40.5355 14.9934 41.062 14.9884 41.5685 14.9834C41.7377 14.9814 41.9 14.9814 42.0512 14.9864C43.7322 15.0516 45.5177 15.209 47.3569 15.4517L48.0436 15.5429L48.1083 16.2367C48.2347 17.5863 48.2108 20.1901 46.6224 22.4621C46.082 23.2351 45.5257 24.0302 44.4418 24.5215C43.7262 24.8443 43.142 24.8684 42.6255 24.8904C42.1199 24.9115 41.685 24.9295 41.0699 25.2403C40.851 25.3506 40.7087 25.4479 40.5703 25.5431C40.3106 25.7216 40.016 25.9231 39.4755 26.0264C38.9023 26.1337 38.4932 26.0535 38.1658 25.9863C37.8981 25.9322 37.707 25.8931 37.3736 25.9372C36.7575 26.0194 36.3057 26.3623 36.3017 26.3653C36.1753 26.4766 36.1275 26.5658 36.023 26.7643C35.8857 27.022 35.6976 27.376 35.2646 27.8041C35.0347 28.0307 34.8815 28.1339 34.6874 28.2653C34.5759 28.3405 34.4306 28.4387 34.2107 28.6012C33.8265 28.8859 33.1109 29.4153 32.8362 29.7482C32.6601 29.9607 32.2918 30.6275 32.6651 32.2217C32.7755 32.6919 32.4859 33.1621 32.0191 33.2724C31.9525 33.2885 31.8848 33.2955 31.8201 33.2955V33.2975L31.8191 33.2985Z" fill="#FFF8EE"/>
<path d="M31.626 29.2046C31.3125 29.2046 31 29.1736 30.6934 29.1114C26.8667 28.3233 26.1362 23.0094 26.0655 22.4058C25.8704 20.7565 26.1382 19.0349 26.8398 17.4247C27.0319 16.9826 27.5455 16.781 27.9834 16.9755C28.4233 17.1691 28.6223 17.6854 28.4292 18.1276C27.852 19.451 27.631 20.8587 27.7893 22.2003C27.7953 22.2474 28.3635 26.8465 31.0408 27.3979C32.2719 27.6536 33.723 27.07 34.4147 26.0433C34.969 25.2192 34.8834 24.3178 34.6535 22.5171C34.2514 19.3768 33.0452 16.9394 32.1037 15.4485C30.4993 12.9059 29.532 11.3718 28.3745 11.2696C28.268 11.2595 28.1386 11.2565 27.9923 11.2525C27.0896 11.2244 25.5788 11.1773 24.5667 10.0353C24.4871 9.94509 24.4184 9.85184 24.4184 9.85184C24.3378 9.73253 24.286 9.63327 24.1954 9.43475C24.1258 9.28235 24.0163 9.04172 23.8023 8.62161C23.2818 7.59893 22.8827 6.95624 22.5612 6.44089C22.0636 5.64079 21.7342 5.1124 21.5929 4.14386C21.4456 3.1312 21.4535 2.45543 21.4545 2.42635C21.4565 2.30904 21.4605 2.19875 21.4655 2.09448C21.2017 2.28899 21.0843 2.46545 20.941 2.68202C20.7449 2.9768 20.5011 3.34476 19.9716 3.61447C19.5257 3.83906 19.262 3.81901 18.1483 3.73178C17.8816 3.71072 17.5522 3.68566 17.1431 3.65558C16.7062 3.6245 15.7985 3.55832 15.6423 3.5864C15.4383 3.66159 15.3785 3.73579 15.1576 4.03758C14.9655 4.30027 14.7028 4.66022 14.242 5.05325C13.4925 5.69393 12.8576 5.88042 12.4376 6.00374C12.0803 6.10902 12.0693 6.12606 12.0206 6.20226C11.6702 6.74368 11.9997 8.12431 12.8188 8.79407C13.1173 9.03871 13.3204 9.05976 13.7672 9.10689C14.1832 9.151 14.7018 9.20515 15.3676 9.47886C17.0894 10.1837 18.4847 11.8621 19.2958 14.2023C20.2961 17.0838 19.675 19.5844 19.3615 20.5259C19.2092 20.9841 18.7176 21.2307 18.2628 21.0773C17.8089 20.9239 17.5631 20.4286 17.7154 19.9714C17.9154 19.3698 18.5026 17.2172 17.6567 14.7798C17.0127 12.9199 15.9667 11.6125 14.7117 11.0981C14.2738 10.9176 13.9394 10.8825 13.5871 10.8455C13.0427 10.7883 12.4246 10.7231 11.726 10.1506C10.3884 9.05575 9.60909 6.72664 10.5685 5.24676C10.9795 4.61209 11.52 4.45267 11.9549 4.32634C12.3142 4.22006 12.6545 4.1208 13.1213 3.72175C13.4279 3.46006 13.598 3.22645 13.7633 2.99986C14.0369 2.62588 14.3465 2.20276 15.0451 1.94609C15.4422 1.80171 15.692 1.7977 17.2705 1.912C17.6835 1.94208 18.0159 1.96715 18.2857 1.9892C18.7634 2.0263 19.1416 2.05738 19.2341 2.04435C19.3028 1.99823 19.3466 1.94208 19.5019 1.71047C19.7138 1.38963 20.0064 0.950477 20.6862 0.518343C21.0893 0.264677 22.0099 -0.314844 22.7573 0.224572C23.3156 0.622617 23.2679 1.26831 23.2291 1.78667C23.2151 1.97015 23.1982 2.19073 23.1942 2.45342C23.1942 2.45743 23.1892 3.02994 23.3146 3.8922C23.4022 4.49679 23.5883 4.79457 24.0362 5.51446C24.3567 6.02981 24.7966 6.73566 25.3519 7.82653C25.5828 8.28272 25.7013 8.5414 25.7769 8.70684C25.8048 8.77 25.8227 8.81211 25.8406 8.8462C25.8446 8.85222 25.8545 8.86325 25.8655 8.87528C26.381 9.45681 27.3454 9.48689 28.049 9.50894C28.2322 9.51496 28.3944 9.52098 28.5307 9.532C30.5402 9.71147 31.6807 11.5192 33.5697 14.5131C35.0556 16.8693 36.026 19.5603 36.3763 22.2985C36.6132 24.1544 36.8013 25.6212 35.8518 27.0299C34.9461 28.3745 33.2711 29.2097 31.627 29.2097L31.629 29.2077L31.626 29.2046Z" fill="#FFF8EE"/>
<path d="M3.56996 38.9031H0.889752C0.40208 38.9031 0 39.3122 0 39.7995V46.9933C0 47.4806 0.403075 47.8897 0.889752 47.8897H3.56996C6.03319 47.8897 8.03066 45.8814 8.03066 43.3959C8.03066 40.9104 6.03419 38.9021 3.56996 38.9021V38.9031ZM3.56996 46.097H1.78946V40.7098H3.56996C5.05188 40.7098 6.25016 41.903 6.25016 43.3959C6.25016 44.8888 5.05188 46.096 3.56996 46.096V46.097Z" fill="#FFF8EE"/>
<path d="M12.0446 40.7109C10.078 40.7109 8.47461 42.3272 8.47461 44.2943C8.47461 46.2615 10.0789 47.8908 12.0446 47.8908H12.9343C13.418 47.8908 13.8241 47.4817 13.8241 46.9944C13.8241 46.5072 13.418 46.0981 12.9343 46.0981H12.0446C11.3708 46.0981 10.8055 45.7472 10.495 45.1907H14.7118C15.1995 45.1907 15.6016 44.7816 15.6016 44.2943C15.6016 42.3272 13.9972 40.7109 12.0446 40.7109ZM10.495 43.397C10.8065 42.8686 11.3847 42.5006 12.0446 42.5006C12.7044 42.5006 13.2836 42.8686 13.5812 43.397H10.495Z" fill="#FFF8EE"/>
<path d="M18.1692 46.9903C18.1692 47.4816 17.7652 47.8887 17.2775 47.8887C16.7898 47.8887 16.3857 47.4816 16.3857 46.9903V38.9081C16.3857 38.4168 16.7898 38.0098 17.2775 38.0098C17.7652 38.0098 18.1692 38.4168 18.1692 38.9081V46.9903Z" fill="#FFF8EE"/>
<path d="M20.1696 38.2383C19.6143 38.2383 19.1714 38.6885 19.1714 39.2439C19.1714 39.7994 19.6143 40.2596 20.1696 40.2596C20.725 40.2596 21.1778 39.7994 21.1778 39.2439C21.1778 38.6885 20.7349 38.2383 20.1696 38.2383ZM20.1696 40.7098C19.6819 40.7098 19.2799 41.1158 19.2799 41.6061V46.9933C19.2799 47.4805 19.6829 47.8896 20.1696 47.8896C20.6563 47.8896 21.0693 47.4805 21.0693 46.9933V41.6061C21.0693 41.1148 20.6662 40.7098 20.1696 40.7098Z" fill="#FFF8EE"/>
<path d="M29.7191 45.9376C29.7191 46.092 29.6773 46.2314 29.6076 46.3587C29.748 46.5412 29.8306 46.7518 29.8306 46.9904C29.8306 47.5519 29.3847 48.001 28.8264 48.001C28.478 48.001 28.1715 47.8326 27.9904 47.5519C27.446 47.7765 26.8757 47.8888 26.3044 47.8888C23.8382 47.8888 21.8457 45.8825 21.8457 43.399C21.8457 40.9154 23.8382 38.9092 26.3044 38.9092C27.448 38.9092 28.5756 39.3584 29.4544 40.2276C29.6216 40.3961 29.7181 40.6347 29.7181 40.8593C29.7181 41.3506 29.3011 41.7577 28.8264 41.7577C28.5895 41.7577 28.3676 41.6744 28.1994 41.492C27.6838 40.9596 26.9872 40.7059 26.3044 40.7059C24.8285 40.7059 23.6292 41.9121 23.6292 43.4C23.6292 44.8879 24.8275 46.094 26.3044 46.094C26.8757 46.094 27.448 45.9256 27.9346 45.5466V44.2973H27.1952C26.7075 44.2973 26.3034 43.8903 26.3034 43.399C26.3034 42.9077 26.7085 42.5006 27.1952 42.5006H28.8254C29.3131 42.5006 29.7171 42.9077 29.7171 43.399V45.9386L29.7191 45.9366V45.9376Z" fill="#FFF8EE"/>
<path d="M37.7855 44.2963C37.7855 44.942 37.6044 45.5456 37.3118 46.078C37.6611 46.2324 37.897 46.5823 37.897 46.9894C37.897 47.5508 37.4511 48 36.8938 48C36.4897 48 36.1404 47.7614 35.9742 47.4105C35.4587 47.7193 34.8595 47.8877 34.2186 47.8877C32.253 47.8877 30.6516 46.2745 30.6516 44.2963V41.6022C30.6516 41.1109 31.0557 40.7039 31.5434 40.7039C32.031 40.7039 32.4351 41.1109 32.4351 41.6022V44.2963C32.4351 45.2929 33.2293 46.092 34.2186 46.092C35.2079 46.092 36.0021 45.2919 36.0021 44.2963V41.6022C36.0021 41.1109 36.4061 40.7039 36.8938 40.7039C37.3815 40.7039 37.7855 41.1109 37.7855 41.6022V44.2963Z" fill="#FFF8EE"/>
<path d="M45.2299 46.07C45.5106 45.5416 45.7007 44.9451 45.7007 44.2934C45.7007 42.3122 44.0964 40.71 42.1307 40.71C40.1651 40.71 38.5608 42.3122 38.5608 44.2934C38.5608 46.2746 40.1651 47.8898 42.1307 47.8898C42.7767 47.8898 43.3698 47.7123 43.8834 47.4156C44.0556 47.7535 44.4079 47.9981 44.8109 47.9981C45.3663 47.9981 45.8092 47.5479 45.8092 46.9925C45.8092 46.5864 45.5793 46.2325 45.2309 46.068L45.2299 46.07ZM42.1297 46.0971C41.1484 46.0971 40.3532 45.299 40.3532 44.2934C40.3532 43.2877 41.1484 42.4997 42.1297 42.4997C43.1111 42.4997 43.9102 43.3008 43.9102 44.2934C43.9102 45.286 43.115 46.0971 42.1297 46.0971Z" fill="#FFF8EE"/>
<path d="M47.5909 40.5916C47.9949 40.5916 48.3443 40.8302 48.4965 41.1811C49.026 40.8863 49.6251 40.7038 50.2661 40.7038C50.7538 40.7038 51.1578 41.1109 51.1578 41.6022C51.1578 42.0935 50.7538 42.5006 50.2661 42.5006C49.2768 42.5006 48.4826 43.3007 48.4826 44.2963V46.9904C48.4826 47.4816 48.0785 47.8887 47.5909 47.8887C47.1032 47.8887 46.6991 47.4816 46.6991 46.9904V44.2963C46.6991 43.6506 46.8663 43.047 47.1729 42.5286C46.8235 42.3602 46.5876 42.0093 46.5876 41.6022C46.5876 41.0407 47.0335 40.5916 47.5909 40.5916Z" fill="#FFF8EE"/>
<path d="M57.7045 46.0839C58.0021 45.5415 58.1782 44.9449 58.1782 44.2942V38.9041C58.1782 38.4168 57.7722 38.0107 57.2885 38.0107C56.8048 38.0107 56.3987 38.4168 56.3987 38.9041V41.1981C55.8603 40.8883 55.2552 40.7108 54.6083 40.7108C52.6526 40.7108 51.0513 42.3271 51.0513 44.2942C51.0513 46.2614 52.6516 47.8907 54.6083 47.8907C55.2542 47.8907 55.8474 47.7132 56.3719 47.4164C56.5341 47.7674 56.8864 47.999 57.2895 47.999C57.8409 47.999 58.2877 47.5488 58.2877 46.9933C58.2877 46.5873 58.0578 46.2333 57.7055 46.0829L57.7045 46.0839ZM54.6083 46.098C53.623 46.098 52.8278 45.2999 52.8278 44.2942C52.8278 43.2886 53.623 42.5005 54.6083 42.5005C55.5936 42.5005 56.3987 43.3016 56.3987 44.2942C56.3987 45.2868 55.6035 46.098 54.6083 46.098Z" fill="#FFF8EE"/>
</g>
<defs>
<clipPath id="clip0_212_7891">
<rect width="58.2857" height="48" fill="white"/>
</clipPath>
</defs>
</svg>
