<svg width="165" height="127" viewBox="0 0 165 127" fill="none" xmlns="http://www.w3.org/2000/svg">
<g id="a" clip-path="url(#clip0_271_580)">
<path id="Vector" d="M54.6137 127C51.8738 127 49.5752 126.342 47.9938 125.702L47.6628 125.574L47.5157 125.263C46.3756 122.904 46.2469 121.076 47.1112 119.833C47.8467 118.772 49.0052 118.589 50.1085 118.406C50.9544 118.278 51.8186 118.132 52.6645 117.602C54.0068 116.761 54.9079 115.134 55.3676 112.775C55.1469 110.124 54.9079 107.473 54.6688 104.803C53.9701 96.996 53.1426 89.0973 52.168 80.6502C45.6585 76.3534 41.7969 71.4899 40.6936 66.1876C40.2523 64.0849 40.289 62.0737 40.3258 60.1539C40.3626 57.0273 40.4177 54.0836 38.7076 50.5183C37.8985 48.7996 36.7952 47.1906 35.4345 45.7462C34.4047 47.8488 32.0326 51.8347 29.1088 51.6702C27.3435 51.597 25.615 50.0612 24.3646 47.4649C23.1877 45.0514 22.489 41.9431 22.3235 38.4143C12.8534 38.6886 10.6652 38.1401 10.4445 38.0669C8.3666 37.4453 1.45252 34.977 0.220491 28.9798C-0.36794 26.219 0.47793 23.7324 1.28702 22.1234L1.52607 21.6663L2.04095 21.6297C7.30006 21.2092 11.3823 19.5271 14.1774 16.6382C15.6117 15.1755 16.1449 14.0053 16.6966 12.762C17.285 11.4639 17.8918 10.1108 19.5284 8.62985C25.0266 3.63834 34.1657 3.94917 39.9764 6.76489C42.1463 7.82536 44.4264 10.2388 48.5639 14.6453C51.4141 17.6987 53.1426 19.7465 54.8159 21.7394C56.3606 23.5678 57.942 25.451 60.4244 28.1571C67.6143 35.9643 69.8945 37.0247 70.8507 37.4818C74.8226 39.3651 78.2429 39.4382 81.8654 39.5296H82.3435C88.9082 39.6942 108.878 40.133 124.784 44.0275C129.363 45.1428 132.985 46.4044 134.567 46.9712C136.7 45.6913 138.649 44.2835 140.506 42.7293C144.57 39.3102 147.825 35.3061 151.76 28.8701C156.173 21.6663 159.98 13.7676 163.051 5.3936L165.018 0.0181274L164.834 5.74099C164.503 15.7971 162.003 30.6254 151.999 44.1189C149.627 47.3369 146.887 50.372 143.871 53.1329C145.526 55.8755 146.961 58.7095 148.101 61.58C151.3 69.5335 152.68 78.0538 152.201 86.9398C154.482 89.5178 156.725 92.0776 158.987 94.6556L159.152 94.8567L159.189 95.1127C159.851 99.0438 160.292 103.03 160.476 106.961C160.66 110.873 160.605 114.786 160.329 118.589V118.845L160.164 119.065C159.722 119.668 159.263 120.271 158.803 120.856C157.792 122.374 156.725 123.946 155.658 125.519L155.401 125.903L145.398 126.287L145.232 125.537C144.754 123.307 144.975 121.442 145.931 120.015C146.814 118.681 148.009 118.205 149.039 117.785C149.866 117.456 150.583 117.163 151.098 116.45C151.815 115.426 151.613 114.201 150.933 110.8L150.675 109.466C150.068 106.43 149.535 103.212 149.075 99.9214L147.384 99.7568C147.512 104.438 147.641 109.118 147.788 113.799V114.274L147.42 114.567C146.997 114.878 146.593 115.225 146.17 115.554L143.338 121.844L130.08 122.648L129.915 121.88C129.731 121.003 129.455 118.736 130.779 116.505C132.084 114.274 134.53 112.903 137.288 112.775L136.111 97.3068C133.482 95.6795 131.128 93.7231 129.105 91.4742C126.954 89.0973 126.145 87.47 125.575 86.2633C125.115 85.3308 124.821 84.7275 124.085 84.0692C121.272 81.5461 116.509 82.8808 109.945 84.764C103.821 86.501 96.1901 88.6585 86.8119 88.7316C83.3917 88.7682 79.8795 88.5488 76.5695 88.1466L76.7902 116.249L75.9443 117.62C75.2456 118.754 74.5652 119.869 73.848 120.984L73.6458 121.295L73.278 121.387C69.8026 122.209 65.9042 122.52 63.8815 121.387L61.6565 125.482L61.3622 125.61C59.9279 126.232 58.4017 126.652 56.8571 126.872C56.1031 126.982 55.3492 127.018 54.6504 127.018L54.6137 127ZM49.0236 124.129C50.8072 124.806 53.4552 125.446 56.5628 125.043C57.8317 124.861 59.1005 124.532 60.2957 124.038L62.2449 120.472C62.2449 120.472 62.3552 120.162 62.4839 119.851L63.4769 117.437L64.3596 119.412C64.709 120.198 67.504 120.783 72.4505 119.668C73.0757 118.662 73.7009 117.638 74.3261 116.633L74.8962 115.7L74.6755 86.0073L75.7237 86.1536C79.2359 86.6473 83.0791 86.885 86.7568 86.8667C95.8775 86.7935 103.38 84.6726 109.393 82.9722C116.546 80.9427 121.713 79.48 125.281 82.6797C126.274 83.5756 126.697 84.4349 127.175 85.4222C127.745 86.5741 128.443 88.0186 130.429 90.1944C132.434 92.4067 134.788 94.3448 137.417 95.9172L137.822 96.1549L139.219 114.603L138.171 114.53C135.689 114.366 133.445 115.444 132.305 117.346C131.588 118.553 131.496 119.814 131.551 120.637L142.051 119.997L144.607 114.329L144.772 114.183C145.159 113.872 145.508 113.598 145.857 113.323C145.71 108.442 145.582 103.578 145.453 98.6964V97.6725L150.491 98.1479L150.749 98.8792C151.227 102.39 151.797 105.809 152.44 109.027L152.698 110.343C153.415 113.89 153.764 115.682 152.569 117.401C151.76 118.553 150.657 118.991 149.701 119.375C148.8 119.741 148.009 120.052 147.439 120.93C146.869 121.789 146.685 122.923 146.869 124.312L154.371 124.038C155.346 122.593 156.32 121.149 157.295 119.705C157.736 119.138 158.123 118.626 158.509 118.114C158.766 114.457 158.821 110.709 158.637 106.961C158.454 103.194 158.049 99.3729 157.424 95.5881C155.144 92.9918 152.863 90.3955 150.565 87.7992L150.307 87.5249V87.1409C150.859 78.4012 149.535 69.9906 146.391 62.2017C145.195 59.2031 143.688 56.2411 141.904 53.3888L141.499 52.7306L142.069 52.2187C145.214 49.403 148.064 46.2947 150.51 42.9853C158.38 32.3624 161.469 20.8618 162.536 11.6833C159.869 18.0643 156.78 24.1346 153.323 29.7843C149.278 36.3848 145.913 40.5353 141.702 44.0823C139.66 45.801 137.509 47.3186 135.137 48.7264L134.769 48.9459L134.365 48.7996C133.114 48.3425 129.308 46.9712 124.361 45.7645C108.657 41.9248 88.8347 41.4677 82.3251 41.3215H81.847C78.1877 41.23 74.3997 41.1386 70.0784 39.0908C68.3131 38.2681 65.6284 36.4579 59.0821 29.3638C56.5629 26.6395 54.963 24.7197 53.4184 22.873C51.6899 20.8069 50.0533 18.8688 47.2215 15.852C43.2496 11.6101 41.043 9.28807 39.1857 8.37387C33.8347 5.77756 25.4863 5.66785 20.7788 9.94629C19.4181 11.1713 18.94 12.2318 18.3883 13.4568C17.8183 14.7184 17.1747 16.1628 15.5197 17.8632C12.504 20.9715 8.2011 22.8182 2.73972 23.3484C2.1329 24.6831 1.61802 26.5481 2.04095 28.541C3.07071 33.5325 9.13891 35.7083 10.9778 36.2568C11.0513 36.2751 13.2763 36.8236 23.1877 36.4945L24.1255 36.458V37.3904C24.2175 40.9741 24.8795 44.2469 26.0379 46.6055C26.9574 48.5253 28.171 49.7503 29.2008 49.7869C31.3154 49.9149 33.7059 45.3439 34.2944 43.7715L34.7725 42.4734L35.7838 43.4241C37.7514 45.2708 39.296 47.3734 40.381 49.6772C42.2566 53.6448 42.2198 56.9359 42.1647 60.1356C42.1279 62.0554 42.1095 63.8655 42.4956 65.7853C43.507 70.7037 47.2215 75.2564 53.5287 79.3154L53.8965 79.5531L53.9517 79.9736C54.9631 88.6037 55.7905 96.6486 56.5077 104.584C56.7651 107.29 57.0042 109.996 57.2248 112.684V112.812V112.94C56.6732 115.883 55.4779 117.949 53.6759 119.101C52.5174 119.814 51.3589 120.015 50.4395 120.162C49.4833 120.308 48.95 120.418 48.6558 120.82C48.2329 121.423 48.38 122.593 49.0603 124.093L49.0236 124.129ZM64.4883 115.865L64.4147 114.384C64.2676 111.221 64.2676 108.003 64.378 104.821C64.4699 102.499 64.6354 100.141 64.8561 97.8187L64.8928 97.3616L65.279 97.1239C65.7939 96.8131 66.4007 96.6851 66.9523 96.7766C67.173 96.8131 67.3937 96.8863 67.5959 96.9777L68.1476 97.2519L68.1108 97.8553C67.9821 99.8117 67.9637 101.75 68.0557 103.615C68.0924 104.218 68.1108 104.693 68.1476 105.151C68.1844 105.717 68.2212 106.266 68.2579 107.07C68.3315 108.826 68.2947 110.599 68.1844 112.3L68.0924 112.647C67.7247 113.397 67.2282 114.037 66.603 114.549C66.3088 114.786 66.0145 114.987 65.7571 115.134L64.4515 115.865H64.4883ZM66.272 103.907C66.272 104.236 66.2352 104.547 66.2352 104.876C66.1433 107.345 66.1249 109.85 66.1984 112.336C66.272 112.226 66.3455 112.098 66.4191 111.97C66.511 110.38 66.5294 108.734 66.4743 107.107C66.4375 106.339 66.4007 105.809 66.3639 105.26C66.3271 104.84 66.3088 104.419 66.272 103.907Z" fill="#F38F1A"/>
</g>
<defs>
<clipPath id="clip0_271_580">
<rect width="165" height="127" fill="white"/>
</clipPath>
</defs>
</svg>
