<svg width="151" height="135" viewBox="0 0 151 135" fill="none" xmlns="http://www.w3.org/2000/svg">
<path id="Vector" d="M114.877 135L114.667 134.369C113.794 131.846 113.863 130.093 114.842 129.042C115.575 128.271 116.483 128.236 117.252 128.271C117.706 128.271 118.23 128.271 118.754 128.131C121.758 127.395 123.156 123.785 124.099 120.35C124.727 118.107 125.147 116.11 124.413 114.428C123.994 113.411 123.156 112.605 122.317 111.729C122.003 111.414 121.723 111.133 121.444 110.818C120.047 109.311 118.929 107.558 117.811 105.841C115.785 102.652 113.829 99.6378 110.58 98.6215C109.532 98.3061 107.331 98.4813 103.034 99.007C99.4364 99.4276 97.3404 99.8481 94.9301 100.339C92.8341 100.759 90.4238 101.215 86.6162 101.776C82.0749 102.442 79.3153 102.617 76.1713 102.547C74.8439 102.512 73.4816 102.407 72.1541 102.266C73.0624 104.509 73.6562 106.787 73.9706 109.1C74.1802 110.853 74.1453 111.974 74.1103 112.991C74.0754 114.147 74.0405 115.128 74.3199 116.881C74.6343 118.773 75.0884 119.86 75.5426 120.876C75.9618 121.893 76.4159 122.979 76.6953 124.696C77.1145 127.395 76.87 130.304 75.9268 133.283L75.7871 133.738L75.333 133.879C73.3069 134.474 71.2109 134.79 69.115 134.825C67.543 134.825 66.0759 134.72 64.6087 134.439L64.2594 134.369L64.0498 134.054C63.0367 132.512 61.7792 130.269 62.7922 128.727C63.3511 127.886 64.2244 127.745 64.958 127.675C65.5519 127.605 66.0759 127.535 66.53 127.114C67.578 126.133 67.6129 123.68 66.5999 122.068C66.2505 121.472 65.9012 121.297 65.4471 121.016C64.993 120.736 64.3991 120.386 63.7703 119.614C62.6874 118.283 62.6525 117.091 62.6176 115.864C62.6176 114.988 62.5477 114.007 62.1984 112.675C61.6045 110.572 59.9976 108.61 56.7489 104.65C56.1201 103.879 55.4913 103.213 54.5132 102.897C53.605 102.617 52.557 102.827 51.5789 103.107C45.7452 104.685 40.4704 108.189 36.7675 112.991C35.8593 114.147 35.3004 115.058 34.8113 115.829C34.0079 117.126 33.3791 118.143 31.7373 119.369C30.5146 120.28 29.5016 120.736 28.6283 121.121C27.6152 121.577 26.7419 121.963 25.5542 123.014C24.5062 123.96 24.087 124.626 23.4932 125.572C23.0041 126.343 22.4802 127.185 21.4671 128.376C19.8253 130.339 17.904 132.091 15.6683 133.633L15.4587 133.773L0.298035 134.93L0.158305 134.124C-0.260884 131.39 0.158305 129.428 1.34601 128.236C2.56865 127.079 4.10567 127.15 5.60777 127.185C6.97014 127.255 8.40237 127.29 9.8346 126.484C10.7079 125.993 11.0223 125.537 12.21 123.645L13.1182 122.208C14.4108 120.21 15.8779 118.283 17.2752 116.46C18.2184 115.234 19.1266 114.007 20.0349 112.745L20.6637 111.869C25.9385 104.404 26.1481 104.124 26.4974 103.423C28.2091 99.743 28.5933 96.764 29.1523 92.5935C30.1304 85.2336 30.5845 81.5537 29.0125 77.0678C26.4974 69.9182 22.6897 67.0794 19.965 65.9579C18.5677 65.3621 17.4848 65.257 16.4368 65.1519C15.0046 65.0117 13.6772 64.8715 12.0703 63.5748C8.57703 60.736 7.17973 55.1285 9.17088 52.0444C10.0093 50.7827 11.0572 50.4673 12.1751 50.1519C13.223 49.8364 14.4457 49.486 15.9827 48.1542C16.9608 47.3131 17.5197 46.5421 18.0088 45.9112C18.7074 44.965 19.3362 44.0888 20.8383 43.528C21.6068 43.2477 22.1658 43.2126 26.3926 43.528L29.2221 43.7383C31.9468 43.9486 32.1564 43.9486 32.5407 43.7383C33.2393 43.3878 33.5537 42.9322 33.9729 42.2664C34.5318 41.4603 35.1956 40.4439 36.8025 39.4276C37.7107 38.8668 39.5621 37.6752 40.8197 38.5514C41.6581 39.1472 41.5882 40.1285 41.4834 41.4953C41.4485 42.021 41.3786 42.6869 41.3786 43.4579C41.3786 43.4579 41.3786 45.1402 41.7279 47.6986C42.0074 49.6963 42.6711 50.7126 43.9287 52.7804C44.802 54.1822 45.9897 56.1098 47.5267 59.0537C48.1555 60.2804 48.4699 60.9813 48.6795 61.4369C48.924 61.9977 48.959 62.0327 49.1686 62.278C52.033 65.4322 57.7619 64.6963 61.2203 64.2407C70.2678 63.0841 77.1844 62.1729 81.027 61.6472L83.5072 61.2967C87.1052 60.8411 90.5985 60.4556 93.9869 60.1051C100.904 59.4042 106.842 58.7734 110.51 57.5117C111.348 57.2313 112.816 56.7056 114.842 56.3902C116.798 56.0748 118.055 56.1449 119.034 56.1799C119.872 56.215 120.501 56.25 121.269 56.0397C123.61 55.4089 124.902 53.271 127.103 49.6963C128.395 47.5935 130.352 44.3692 130.98 39.8481C131.295 37.6752 131.085 36.5187 130.456 33.1192C130.212 31.7874 129.897 30.1051 129.548 27.9322C128.291 20.3271 127.592 16.1215 128.081 12.757C128.815 7.60514 131.749 0 135.626 0C137.163 0 138.561 1.26168 139.12 2.52336C140.028 4.52103 138.945 6.41355 137.827 8.37617C136.954 9.84813 136.011 11.5304 135.557 13.5981C135.277 14.965 135.417 15.4556 136.011 17.6285C136.395 19.0304 136.884 20.9229 137.548 23.972C138.7 29.3341 139.888 34.9065 139.748 41.6355C139.679 43.8435 139.644 45.9112 139.155 48.6449C138.7 51.0981 138.142 52.8855 137.618 54.4276C136.954 56.4953 136.43 58.1075 136.5 60.4556C136.535 61.5771 136.674 61.9626 136.954 62.7336C137.198 63.4346 137.548 64.4159 137.932 66.3084C139.224 72.4416 140.447 78.2243 138.072 83.7266C137.757 84.4276 137.408 85.0935 137.094 85.7243C136.255 87.2663 135.591 88.493 135.941 90.1051C136.255 91.6822 137.338 92.7336 137.548 92.9439C138.456 93.785 139.329 93.9953 140.482 94.2757C141.565 94.521 142.823 94.8364 144.15 95.7827C145.303 96.5888 146.246 97.6752 146.945 98.972L147.049 99.3925C147.049 101.881 147.189 104.369 147.399 106.787C147.853 111.974 148.691 116.706 149.006 118.528C149.25 119.895 149.46 120.806 149.599 121.472C149.879 122.699 149.984 123.259 150.019 124.416C150.088 127.325 149.495 130.304 148.202 133.213L147.993 133.703L138.072 134.124L137.862 133.458C137.303 131.636 137.443 130.199 138.211 129.217C139.085 128.096 140.377 128.026 141.425 127.956C142.089 127.921 142.683 127.886 142.892 127.605C143.032 127.395 142.753 126.799 142.299 125.888C141.67 124.661 140.796 123.014 140.412 120.631C140.203 119.404 140.203 118.528 140.203 117.722C140.203 116.671 140.203 115.829 139.714 114.428C139.434 113.586 139.05 112.85 138.7 112.255C138.7 112.921 138.805 113.937 139.015 115.444L139.085 115.829L138.84 116.11C136.081 119.474 133.635 123.119 131.609 126.904C130.421 129.112 129.374 131.39 128.465 133.668L128.256 134.194L114.911 135H114.877ZM117.077 130.058C116.518 130.058 116.274 130.058 116.099 130.269C115.68 130.689 115.68 131.741 116.099 133.178L126.998 132.512C127.871 130.339 128.884 128.166 130.002 126.063C132.028 122.278 134.439 118.633 137.198 115.269C136.605 110.818 136.954 109.871 137.862 109.591C139.504 109.1 141.006 112.991 141.285 113.762C141.879 115.444 141.879 116.53 141.879 117.652C141.879 118.388 141.879 119.194 142.054 120.245C142.403 122.383 143.172 123.82 143.766 124.977C144.429 126.273 145.023 127.395 144.255 128.516C143.591 129.463 142.473 129.533 141.46 129.603C140.482 129.673 139.853 129.743 139.504 130.199C139.19 130.619 139.12 131.285 139.294 132.196L146.735 131.881C147.748 129.393 148.237 126.834 148.167 124.346C148.167 123.364 148.027 122.909 147.783 121.717C147.643 121.016 147.434 120.105 147.189 118.703C146.84 116.881 146.001 112.079 145.547 106.787C145.338 104.404 145.233 101.951 145.198 99.4977C144.604 98.4813 143.905 97.6752 143.032 97.0794C141.949 96.3435 141.006 96.0981 139.958 95.8528C138.735 95.5724 137.478 95.257 136.22 94.1005C135.836 93.715 134.544 92.3481 134.124 90.3154C133.67 88.1075 134.544 86.4953 135.452 84.778C135.766 84.1822 136.081 83.5864 136.395 82.9206C138.561 77.9089 137.408 72.4065 136.15 66.5537C135.766 64.7663 135.452 63.8902 135.207 63.1893C134.928 62.3481 134.718 61.7523 134.648 60.3855C134.544 57.722 135.137 55.8645 135.836 53.7266C136.325 52.2196 136.884 50.5023 137.303 48.1893C137.792 45.5607 137.827 43.5981 137.897 41.4953C138.037 34.9416 136.919 29.7547 135.731 24.2173C135.067 21.2033 134.578 19.3458 134.194 17.979C133.6 15.736 133.356 14.8949 133.74 13.1425C134.229 10.7944 135.312 8.90187 136.185 7.39486C137.303 5.43224 137.932 4.2757 137.408 3.15421C137.024 2.31308 136.185 1.68224 135.487 1.68224C133.391 1.68224 130.491 7.25467 129.653 12.9322C129.234 15.9112 129.793 19.5561 131.12 27.5467C131.469 29.7196 131.784 31.3668 132.028 32.6986C132.657 36.2033 132.902 37.5 132.587 39.9883C131.924 44.8598 129.758 48.3995 128.465 50.5023C126.16 54.2874 124.623 56.8107 121.618 57.6168C120.571 57.8972 119.767 57.8621 118.859 57.8271C117.881 57.7921 116.798 57.722 115.016 58.0023C113.165 58.2827 111.802 58.7734 111.139 59.0187C107.156 60.3855 101.078 61.0164 94.0917 61.7523C90.7033 62.1028 87.21 62.4533 83.6469 62.9439L81.1667 63.2593C77.3591 63.785 70.4075 64.6963 61.36 65.8528C57.5873 66.3435 51.2645 67.1145 47.8062 63.3294C47.4219 62.9089 47.3171 62.6636 47.0027 62.0327C46.7931 61.6121 46.4788 60.9112 45.8849 59.7196C44.4177 56.8107 43.265 55.0234 42.3567 53.5514C41.0293 51.4486 40.2258 50.1519 39.8765 47.8037C39.4923 45.1402 39.4923 43.3878 39.4923 43.3178C39.4923 42.5117 39.5621 41.8107 39.5971 41.25C39.632 40.6893 39.7019 39.9883 39.5971 39.8131C39.5621 39.8131 39.108 39.8131 37.571 40.7944C36.2785 41.6355 35.7545 42.4065 35.2654 43.1425C34.7764 43.8785 34.2524 44.6495 33.1695 45.2103C32.3311 45.6308 31.877 45.5958 28.9427 45.3855L26.1131 45.1752C22.061 44.8949 21.7116 44.9299 21.2924 45.0701C20.2794 45.4206 19.8951 45.9813 19.2664 46.8224C18.7424 47.5234 18.1136 48.3995 16.9608 49.3808C15.1443 50.9579 13.6073 51.3785 12.5244 51.6939C11.5463 51.9743 10.9874 52.1495 10.4983 52.8855C8.99622 55.1986 10.2887 59.8248 13.0484 62.0678C14.2361 63.0491 15.1793 63.1192 16.4718 63.2593C17.5896 63.3645 18.8472 63.5047 20.489 64.1706C23.5631 65.4322 27.7899 68.5514 30.5146 76.2967C32.2263 81.1682 31.7373 84.9883 30.7242 92.6285C30.1653 96.7991 29.7461 100.058 27.9296 103.984C27.5454 104.825 27.4406 104.965 21.9562 112.71L21.3274 113.586C20.4191 114.848 19.476 116.11 18.5328 117.336C17.1355 119.159 15.7033 121.051 14.4457 123.014L13.5374 124.416C12.3148 126.308 11.8257 127.114 10.5332 127.815C8.68183 128.832 6.86534 128.797 5.39817 128.727C3.96594 128.657 3.0577 128.657 2.42892 129.287C1.7652 129.953 1.48574 131.145 1.6604 132.827L14.7251 131.811C16.7163 130.409 18.4978 128.797 19.965 127.009C20.8733 125.888 21.3972 125.082 21.8514 124.381C22.4802 123.4 23.0041 122.558 24.2268 121.472C25.6241 120.21 26.707 119.72 27.755 119.264C28.6283 118.878 29.4317 118.528 30.5146 117.722C31.877 116.706 32.401 115.9 33.1346 114.673C33.6236 113.902 34.2175 112.921 35.1956 111.659C39.1429 106.577 44.7321 102.862 50.9501 101.18C52.2077 100.829 53.5351 100.584 54.8625 101.005C56.4345 101.495 57.3428 102.582 57.9366 103.318C61.3251 107.453 63.0367 109.521 63.7005 111.974C64.1197 113.516 64.1546 114.673 64.1895 115.584C64.2244 116.776 64.2594 117.407 64.958 118.283C65.3772 118.808 65.7615 119.019 66.1807 119.264C66.7396 119.579 67.3334 119.965 67.9273 120.911C69.2198 123.014 69.3945 126.449 67.578 128.166C66.7396 128.937 65.7615 129.077 65.0628 129.182C64.5039 129.252 64.2244 129.322 64.1197 129.463C64.0498 129.568 63.7354 130.269 65.1676 132.547C66.4252 132.757 67.6828 132.827 68.9753 132.827C70.7568 132.827 72.5384 132.547 74.2501 132.091C74.9837 129.533 75.1583 127.079 74.809 124.766C74.5645 123.259 74.2151 122.383 73.7959 121.367C73.3418 120.28 72.8528 119.089 72.4685 116.986C72.1192 115.058 72.189 113.867 72.224 112.745C72.2589 111.764 72.2938 110.748 72.0843 109.136C71.7699 106.542 71.0013 103.914 69.8136 101.39L69.115 99.9182L70.7219 100.164C72.4685 100.409 74.285 100.584 76.0666 100.619C79.1057 100.724 81.7605 100.514 86.197 99.8832C89.9697 99.3224 92.3102 98.8668 94.4061 98.4463C96.8514 97.9556 98.9822 97.535 102.65 97.1145C107.191 96.5888 109.497 96.3785 110.929 96.7991C114.807 97.9556 117.007 101.425 119.138 104.72C120.186 106.367 121.304 108.084 122.562 109.451C122.841 109.731 123.121 110.012 123.4 110.327C124.343 111.273 125.321 112.255 125.88 113.551C126.823 115.759 126.299 118.178 125.636 120.631C124.623 124.311 122.946 128.692 119.034 129.673C118.265 129.848 117.601 129.848 117.112 129.848C117.042 129.848 116.972 129.848 116.938 129.848L117.077 130.058Z" fill="#F38F1A"/>
</svg>
