<svg width="65" height="64" viewBox="0 0 65 64" fill="none" xmlns="http://www.w3.org/2000/svg">
<g clip-path="url(#clip0_212_8312)">
<path d="M41.9277 30.1901C41.8158 30.1901 41.7039 30.1528 41.6106 30.0595L34.2251 22.8385C34.0573 22.6705 34.0386 22.3907 34.2251 22.2041C34.393 22.0361 34.6727 22.0361 34.8592 22.2041L42.2447 29.4251C42.4126 29.593 42.4312 29.8729 42.2447 30.0408C42.1515 30.1341 42.0396 30.1714 41.9277 30.1714" fill="#662472"/>
<path d="M30.4578 41.9079C30.3459 41.9079 30.234 41.8705 30.1408 41.7772L22.7553 34.5562C22.5874 34.3883 22.5688 34.1084 22.7553 33.9218C22.9231 33.7539 23.2029 33.7539 23.3894 33.9218L30.7749 41.1428C30.9427 41.3108 30.9614 41.5907 30.7749 41.7586C30.6816 41.8519 30.5697 41.8892 30.4578 41.8892" fill="#662472"/>
<path d="M50.3763 37.5416L44.8372 31.9999L44.2031 31.3655L43.5689 31.9999L44.2031 32.6343L49.7422 38.176C52.3719 40.8069 52.3719 45.0985 49.7422 47.7294L48.2129 49.2594C45.5832 51.8903 41.2936 51.8903 38.6639 49.2594L33.1248 43.7177L32.4907 43.0833L31.8566 43.7177L38.0298 49.8938C39.5218 51.3865 41.4801 52.1329 43.4384 52.1329C45.3967 52.1329 47.3549 51.3865 48.847 49.8938L50.3763 48.3638C53.3603 45.3784 53.3603 40.5457 50.3763 37.5603M32.5094 20.9352L33.1435 20.3008L32.5094 19.6664L26.9516 14.106C23.9675 11.1393 19.1371 11.1393 16.1531 14.1247L14.6238 15.6547C11.6397 18.6215 11.6397 23.4728 14.6238 26.4582L20.797 32.6343L21.4311 31.9999L20.797 31.3655L15.2392 25.8052C13.9524 24.5364 13.2623 22.8384 13.2623 21.0285C13.2623 19.2186 13.971 17.5206 15.2392 16.2518L16.7685 14.7218C18.0368 13.453 19.7339 12.7439 21.543 12.7439C23.3521 12.7439 25.0493 13.453 26.3175 14.7218L31.8752 20.2821L32.5094 20.9165V20.9352Z" fill="#662472"/>
<path d="M17.4959 21.01C17.9062 21.4205 17.9062 22.0736 17.4959 22.4841C17.0856 22.8946 16.4329 22.8946 16.0226 22.4841C15.6123 22.0736 15.6123 21.4205 16.0226 21.01C16.4329 20.5995 17.0856 20.5995 17.4959 21.01Z" fill="#662472"/>
<path d="M20.2375 18.2671C20.6478 18.6776 20.6478 19.3307 20.2375 19.7412C19.8272 20.1516 19.1745 20.1516 18.7641 19.7412C18.3538 19.3307 18.3538 18.6776 18.7641 18.2671C19.1745 17.8566 19.8272 17.8566 20.2375 18.2671Z" fill="#662472"/>
<path d="M22.9978 15.5056C23.4081 15.9161 23.4081 16.5692 22.9978 16.9797C22.5875 17.3902 21.9347 17.3902 21.5244 16.9797C21.1141 16.5692 21.1141 15.9161 21.5244 15.5056C21.9347 15.0951 22.5875 15.0951 22.9978 15.5056Z" fill="#662472"/>
<path d="M20.0136 23.5476C20.4239 23.9581 20.4239 24.6112 20.0136 25.0217C19.6033 25.4322 18.9506 25.4322 18.5403 25.0217C18.13 24.6112 18.13 23.9581 18.5403 23.5476C18.9506 23.1371 19.6033 23.1371 20.0136 23.5476Z" fill="#662472"/>
<path d="M22.7739 20.7861C23.1842 21.1966 23.1842 21.8497 22.7739 22.2602C22.3636 22.6707 21.7108 22.6707 21.3005 22.2602C20.8902 21.8497 20.8902 21.1966 21.3005 20.7861C21.7108 20.3756 22.3636 20.3756 22.7739 20.7861Z" fill="#662472"/>
<path d="M25.5155 18.0432C25.9258 18.4537 25.9258 19.1068 25.5155 19.5173C25.1052 19.9278 24.4524 19.9278 24.0421 19.5173C23.6318 19.1068 23.6318 18.4537 24.0421 18.0432C24.4524 17.6327 25.1052 17.6327 25.5155 18.0432Z" fill="#662472"/>
<path d="M40.6222 44.147C41.0325 44.5575 41.0325 45.2105 40.6222 45.621C40.2119 46.0315 39.5591 46.0315 39.1488 45.621C38.7385 45.2105 38.7385 44.5575 39.1488 44.147C39.5591 43.7365 40.2119 43.7365 40.6222 44.147Z" fill="#662472"/>
<path d="M43.3637 41.4041C43.774 41.8146 43.774 42.4676 43.3637 42.8781C42.9534 43.2886 42.3007 43.2886 41.8904 42.8781C41.4801 42.4676 41.4801 41.8146 41.8904 41.4041C42.3007 40.9936 42.9534 40.9936 43.3637 41.4041Z" fill="#662472"/>
<path d="M46.124 38.6426C46.5343 39.0531 46.5343 39.7061 46.124 40.1166C45.7137 40.5271 45.0609 40.5271 44.6506 40.1166C44.2403 39.7061 44.2403 39.0531 44.6506 38.6426C45.0609 38.2321 45.7137 38.2321 46.124 38.6426Z" fill="#662472"/>
<path d="M43.14 46.6846C43.5503 47.0951 43.5503 47.7481 43.14 48.1586C42.7297 48.5691 42.0769 48.5691 41.6666 48.1586C41.2563 47.7481 41.2563 47.0951 41.6666 46.6846C42.0769 46.2741 42.7297 46.2741 43.14 46.6846Z" fill="#662472"/>
<path d="M45.9002 43.9231C46.3105 44.3336 46.3105 44.9867 45.9002 45.3972C45.4899 45.8077 44.8372 45.8077 44.4269 45.3972C44.0166 44.9867 44.0166 44.3336 44.4269 43.9231C44.8372 43.5126 45.4899 43.5126 45.9002 43.9231Z" fill="#662472"/>
<path d="M48.6418 41.1802C49.0521 41.5907 49.0521 42.2437 48.6418 42.6542C48.2315 43.0647 47.5788 43.0647 47.1684 42.6542C46.7581 42.2437 46.7581 41.5907 47.1684 41.1802C47.5788 40.7697 48.2315 40.7697 48.6418 41.1802Z" fill="#662472"/>
<path d="M50.3764 15.6548L48.8471 14.1248C45.863 11.1394 41.014 11.1394 38.0486 14.1248L32.5095 19.6852L20.7971 31.3843L20.163 32.0187L14.6052 37.5604C11.6212 40.5458 11.6212 45.3785 14.6052 48.3639L16.1345 49.8939C17.6266 51.3866 19.5848 52.133 21.5431 52.133C23.5014 52.133 25.4597 51.3866 26.9517 49.8939L32.5095 44.3522L33.1436 43.7178L44.8559 32.0187L50.395 26.4583C53.3791 23.4729 53.3791 18.6403 50.395 15.6548M49.7609 25.8239L44.2218 31.3843L43.5877 32.0187L32.5095 43.1021L31.8753 43.7365L26.3176 49.2782C23.6879 51.9091 19.3983 51.9091 16.7686 49.2782L15.2393 47.7481C12.6096 45.1172 12.6096 40.8443 15.2393 38.1948L20.7971 32.6531L21.4312 32.0187L32.5095 20.9353L33.1436 20.3009L38.6827 14.7592C40.0068 13.4344 41.7227 12.7814 43.4571 12.7814C45.1916 12.7814 46.9074 13.4531 48.2316 14.7592L49.7609 16.2892C51.0478 17.558 51.7379 19.256 51.7379 21.0659C51.7379 22.8758 51.0291 24.5738 49.7609 25.8426" fill="#662472"/>
<path d="M43.4757 16.9797C43.0654 17.3902 42.4126 17.3902 42.0023 16.9797C41.592 16.5692 41.592 15.9161 42.0023 15.5056C42.4126 15.0951 43.0654 15.0951 43.4757 15.5056C43.886 15.9161 43.886 16.5692 43.4757 16.9797Z" fill="#662472"/>
<path d="M46.2359 19.7412C45.8256 20.1516 45.1729 20.1516 44.7626 19.7412C44.3523 19.3307 44.3523 18.6776 44.7626 18.2671C45.1729 17.8566 45.8256 17.8566 46.2359 18.2671C46.6462 18.6776 46.6462 19.3307 46.2359 19.7412Z" fill="#662472"/>
<path d="M48.9962 22.4841C48.5859 22.8946 47.9331 22.8946 47.5228 22.4841C47.1125 22.0736 47.1125 21.4205 47.5228 21.01C47.9331 20.5995 48.5859 20.5995 48.9962 21.01C49.4065 21.4205 49.4065 22.0736 48.9962 22.4841Z" fill="#662472"/>
<path d="M40.9579 19.5173C40.5476 19.9278 39.8948 19.9278 39.4845 19.5173C39.0742 19.1068 39.0742 18.4537 39.4845 18.0432C39.8948 17.6327 40.5476 17.6327 40.9579 18.0432C41.3682 18.4537 41.3682 19.1068 40.9579 19.5173Z" fill="#662472"/>
<path d="M43.7181 22.2788C43.3078 22.6892 42.655 22.6892 42.2447 22.2788C41.8344 21.8683 41.8344 21.2152 42.2447 20.8047C42.655 20.3942 43.3078 20.3942 43.7181 20.8047C44.1284 21.2152 44.1284 21.8683 43.7181 22.2788Z" fill="#662472"/>
<path d="M46.4597 25.0217C46.0494 25.4322 45.3966 25.4322 44.9863 25.0217C44.576 24.6112 44.576 23.9581 44.9863 23.5476C45.3966 23.1371 46.0494 23.1371 46.4597 23.5476C46.87 23.9581 46.87 24.6112 46.4597 25.0217Z" fill="#662472"/>
<path d="M20.3493 40.1166C19.939 40.5271 19.2863 40.5271 18.876 40.1166C18.4657 39.7061 18.4657 39.0531 18.876 38.6426C19.2863 38.2321 19.939 38.2321 20.3493 38.6426C20.7596 39.0531 20.7596 39.7061 20.3493 40.1166Z" fill="#662472"/>
<path d="M23.1096 42.8781C22.6993 43.2886 22.0465 43.2886 21.6362 42.8781C21.2259 42.4676 21.2259 41.8146 21.6362 41.4041C22.0465 40.9936 22.6993 40.9936 23.1096 41.4041C23.5199 41.8146 23.5199 42.4676 23.1096 42.8781Z" fill="#662472"/>
<path d="M25.8512 45.621C25.4409 46.0315 24.7881 46.0315 24.3778 45.621C23.9675 45.2105 23.9675 44.5575 24.3778 44.147C24.7881 43.7365 25.4409 43.7365 25.8512 44.147C26.2615 44.5575 26.2615 45.2105 25.8512 45.621Z" fill="#662472"/>
<path d="M17.8316 42.6542C17.4213 43.0647 16.7686 43.0647 16.3583 42.6542C15.948 42.2437 15.948 41.5907 16.3583 41.1802C16.7686 40.7697 17.4213 40.7697 17.8316 41.1802C18.2419 41.5907 18.2419 42.2437 17.8316 42.6542Z" fill="#662472"/>
<path d="M20.5732 45.3972C20.1629 45.8077 19.5101 45.8077 19.0998 45.3972C18.6895 44.9867 18.6895 44.3336 19.0998 43.9231C19.5101 43.5126 20.1629 43.5126 20.5732 43.9231C20.9835 44.3336 20.9835 44.9867 20.5732 45.3972Z" fill="#662472"/>
<path d="M23.3335 48.1586C22.9232 48.5691 22.2704 48.5691 21.8601 48.1586C21.4498 47.7481 21.4498 47.0951 21.8601 46.6846C22.2704 46.2741 22.9232 46.2741 23.3335 46.6846C23.7438 47.0951 23.7438 47.7481 23.3335 48.1586Z" fill="#662472"/>
</g>
<path d="M64 32C64 49.397 49.897 63.5 32.5 63.5C15.103 63.5 1 49.397 1 32C1 14.603 15.103 0.499999 32.5 0.499999C49.897 0.499998 64 14.603 64 32Z" stroke="#662472"/>
<defs>
<clipPath id="clip0_212_8312">
<rect width="40.2286" height="40.2286" fill="white" transform="translate(12.3857 11.8857)"/>
</clipPath>
</defs>
</svg>
