<svg width="11" height="11" viewBox="0 0 11 11" fill="none" xmlns="http://www.w3.org/2000/svg">
<g id="a" clip-path="url(#clip0_477_461)">
<g id="Group 565">
<path id="Vector" d="M5.49966 0C4.53974 0 3.76367 0.778402 3.76367 1.73556V9.26444C3.76367 10.2232 4.53974 11 5.49966 11C6.45957 11 7.23564 10.2232 7.23564 9.26444V1.73556C7.23564 0.778402 6.45957 0 5.49966 0Z" fill="#BFA7C7"/>
<path id="Vector_2" d="M0 5.49906C0 6.45784 0.779323 7.23462 1.73599 7.23462H9.26401C10.2239 7.23462 11 6.45784 11 5.49906C11 4.54028 10.2239 3.7635 9.26401 3.7635H1.73599C0.779323 3.7635 0 4.54028 0 5.49906Z" fill="#BFA7C7"/>
</g>
</g>
<defs>
<clipPath id="clip0_477_461">
<rect width="11" height="11" fill="white" transform="matrix(1 0 0 -1 0 11)"/>
</clipPath>
</defs>
</svg>
