<svg width="21" height="22" viewBox="0 0 21 22" fill="none" xmlns="http://www.w3.org/2000/svg">
<g id="a" clip-path="url(#clip0_276_1354)">
<g id="Group 565">
<path id="Vector" d="M10.4985 21.4998C8.66591 21.4998 7.18433 20.0137 7.18433 18.1864V3.8131C7.18433 1.98269 8.66591 0.499756 10.4985 0.499756C12.3311 0.499756 13.8126 1.98269 13.8126 3.8131V18.1864C13.8126 20.0137 12.3311 21.4998 10.4985 21.4998Z" fill="#F28F1D"/>
<path id="Vector_2" d="M0 11.0013C0 9.17092 1.4878 7.68799 3.31415 7.68799H17.6858C19.5184 7.68799 21 9.17092 21 11.0013C21 12.8317 19.5184 14.3147 17.6858 14.3147H3.31415C1.4878 14.3147 0 12.8317 0 11.0013Z" fill="#F28F1D"/>
</g>
</g>
<defs>
<clipPath id="clip0_276_1354">
<rect width="21" height="21" fill="white" transform="translate(0 0.499756)"/>
</clipPath>
</defs>
</svg>
