<svg width="35" height="35" viewBox="0 0 35 35" fill="none" xmlns="http://www.w3.org/2000/svg">
<g id="Symbol +" clip-path="url(#clip0_771_2847)">
<path id="Vector" d="M17.4972 35C14.4429 35 11.9736 32.5233 11.9736 29.4778V5.52223C11.9736 2.47156 14.4429 0 17.4972 0C20.5515 0 23.0208 2.47156 23.0208 5.52223V29.4778C23.0208 32.5233 20.5515 35 17.4972 35Z" fill="#F28F1D"/>
<path id="Vector_2" d="M0 17.5027C0 14.452 2.47966 11.9805 5.52359 11.9805H29.4764C32.5307 11.9805 35 14.452 35 17.5027C35 20.5534 32.5307 23.0249 29.4764 23.0249H5.52359C2.47966 23.0249 0 20.5534 0 17.5027Z" fill="#F28F1D"/>
</g>
<defs>
<clipPath id="clip0_771_2847">
<rect width="35" height="35" fill="white"/>
</clipPath>
</defs>
</svg>
