<svg width="22" height="22" viewBox="0 0 22 22" fill="none" xmlns="http://www.w3.org/2000/svg">
<path d="M11.2456 1C5.72276 1 1.24561 5.47715 1.24561 11C1.24561 16.5228 5.72276 21 11.2456 21C16.7684 21 21.2456 16.5228 21.2456 11C21.2456 5.47715 16.7684 1 11.2456 1Z" stroke="#662472" stroke-width="1.5" stroke-linecap="round" stroke-linejoin="round"/>
<path d="M3.5166 17.3456C3.5166 17.3456 5.74562 14.4999 11.2456 14.4999C16.7456 14.4999 18.9747 17.3456 18.9747 17.3456" stroke="#662472" stroke-width="1.5" stroke-linecap="round" stroke-linejoin="round"/>
<path d="M11.2456 11.0001C12.9025 11.0001 14.2456 9.65696 14.2456 8.00006C14.2456 6.34321 12.9025 5.00006 11.2456 5.00006C9.58871 5.00006 8.24561 6.34321 8.24561 8.00006C8.24561 9.65696 9.58871 11.0001 11.2456 11.0001Z" stroke="#662472" stroke-width="1.5" stroke-linecap="round" stroke-linejoin="round"/>
</svg>
