<svg width="28" height="28" viewBox="0 0 28 28" fill="none" xmlns="http://www.w3.org/2000/svg">
<g id="Group 501">
<path id="Ellipse 10" d="M28 14C28 6.26801 21.732 -1.90735e-06 14 -1.90735e-06C6.26801 -1.90735e-06 0 6.26801 0 14C0 21.732 6.26801 28 14 28C21.732 28 28 21.732 28 14Z" fill="#5E286D"/>
<g id="Group 382">
<rect id="Rectangle 127" x="-0.2" y="-0.2" width="15.0359" height="2.06974" rx="1.03487" transform="matrix(-4.37114e-08 -1 -1 4.37114e-08 19.3771 21.0359)" fill="white" stroke="#5E286D" stroke-width="0.4"/>
<rect id="Rectangle 128" x="-0.2" y="-0.2" width="15.0359" height="2.06974" rx="1.03487" transform="matrix(-4.37114e-08 -1 -1 4.37114e-08 15.2235 21.0359)" fill="white" stroke="#5E286D" stroke-width="0.4"/>
<rect id="Rectangle 129" x="-0.2" y="-0.2" width="15.0359" height="2.06974" rx="1.03487" transform="matrix(-4.37114e-08 -1 -1 4.37114e-08 11.0697 21.0359)" fill="white" stroke="#5E286D" stroke-width="0.4"/>
</g>
</g>
</svg>
