<svg
  width="125"
  height="167"
  viewBox="0 0 55 167"
  fill="none"
  xmlns="http://www.w3.org/2000/svg"
>
<g id="PHOTO GROUP 13">
<path
      id="Vector"
      d="M-12.1677 137.739C12.7495 142.817 43.2902 132.26 52.0821 111.438C53.1028 109.018 57.3184 99.0346 53.2884 89.7028C47.2725 75.7784 30.1608 80.1387 20.0407 67.6927C5.88785 50.2859 27.3053 25.8902 13.879 10.1859C2.6161 -2.98859 -23.6268 -2.69505 -41.2926 7.11713C-61.7026 18.4557 -66.8011 40.327 -68.331 47.0623C-76.0251 80.9073 -54.8065 107.841 -51.5162 111.878C-46.9161 117.528 -34.1553 133.258 -12.1677 137.739Z"
      fill="#F28F1D"
    />
<path
      id="Vector_2"
      opacity="0.7"
      d="M16.0608 162.348C-2.90123 171.651 -27.9947 166.273 -36.419 152.676C-46.0559 137.121 -28.943 118.789 -40.1966 102.095C-48.5629 89.6816 -63.2401 92.0824 -63.9719 85.3634C-65.1342 74.7006 -30.0684 51.1096 1.93044 61.6502C24.332 69.0279 40.3855 91.7292 40.9958 116.061C41.0328 117.508 41.3233 149.956 16.0635 162.348H16.0608Z"
      fill="#572D69"
    />
</g>
</svg>
