<svg width="91" height="71" viewBox="0 0 91 71" fill="none" xmlns="http://www.w3.org/2000/svg">
<path id="Vector" d="M81.1018 30.5793C80.2973 31.369 79.2734 31.9934 78.9991 32.8198C78.4506 34.4358 79.2917 36.3825 80.0413 38.6964C81.0469 41.8183 80.535 43.4528 80.8458 45.7299C81.1566 48.0071 82.4 48.6315 83.3873 48.9437C86.331 49.8803 86.6052 48.8335 87.5012 52.7635C88.0314 55.1141 88.2142 57.3362 89.037 59.7603C90.518 64.1127 90.3717 64.1678 88.0314 69.016C87.3732 69.0527 80.6447 69.7873 80.5716 69.3282C80.3704 68.2079 79.5477 66.8673 80.0962 65.5084C80.4801 64.5351 83.9907 63.4516 83.8809 62.7721C83.5701 60.8805 83.8809 59.0074 82.0891 57.1526C81.3943 56.418 78.6152 55.8854 76.5674 55.0223C74.0808 53.9572 72.2158 52.5982 70.8628 52.3227C72.5998 55.6651 73.2946 55.6467 70.5885 59.5399C69.8389 60.6234 69.2173 62.1661 67.8094 63.9658C66.7306 65.3431 66.2553 67.8039 63.7138 68.9425C62.7813 69.3649 60.5872 69.4751 59.0148 69.5118C54.901 69.5853 57.5338 65.3982 58.8137 65.0676C60.569 64.5902 61.922 65.2513 63.1653 61.4498C64.2806 58.0157 63.6224 55.3161 60.313 50.8352C53.8588 51.3311 47.3863 51.8269 40.9321 52.3411C38.2626 55.4263 39.1219 59.0257 38.1895 63.0108C37.8786 64.3147 36.4159 66.8306 35.6663 67.7121C35.2458 68.2079 33.8745 68.9609 33.2162 69.2547C31.6073 69.9893 28.755 70.43 25.7016 69.3649C24.184 68.8507 25.4456 66.5184 26.9997 65.6736C28.4441 64.884 29.5595 65.3798 30.9125 62.8088C31.7535 61.2111 28.7001 53.9572 29.0109 51.9004C27.7494 50.2659 28.7001 51.7902 26.6158 50.7067C25.4456 52.6349 24.568 57.0424 21.6425 62.515C20.5638 64.5351 19.4302 65.8573 18.26 67.1795C16.3036 69.42 8.58782 69.5853 8.8438 68.2079C8.97178 67.5101 9.17291 64.6085 11.9155 64.5718C13.3782 64.5534 13.4331 62.8088 14.9323 61.9824C15.0969 61.8906 19.2291 52.6349 20.5272 45.5463C21.1123 42.3509 19.6496 38.6597 19.5399 38.072C19.2473 36.5294 19.2291 35.1704 18.7171 33.2605C18.0406 30.7262 18.8451 29.9182 17.3824 28.1369C13.3599 26.8514 9.37403 29.0183 7.1251 28.192C4.67506 27.2921 1.5668 23.0867 0.999999 20.2953C3.87057 16.4755 7.85647 17.559 10.6173 13.5923C11.8789 12.2517 12.4457 10.9662 13.0125 10.25C14.4935 8.39515 17.1264 7.97277 19.2108 7.25656C20.7832 6.72399 20.8929 6.6689 21.6242 5.23648C22.4287 3.6755 22.7944 2.70219 23.9097 1.36159C25.921 -1.04414 29.1938 9.33173 29.3766 9.6072C30.5102 11.4069 31.4061 12.821 32.302 14.4003C39.4145 27.0534 31.205 24.5007 51.2625 25.2904C56.126 25.474 56.3454 25.6026 61.1906 26.1902C65.3593 26.7044 70.9542 29.0918 74.4282 28.9633C77.3902 28.8531 79.4928 27.4206 81.4126 26.5024C84.0089 25.272 84.0272 27.7328 81.1749 30.5242" stroke="#F38F1A" stroke-width="1.5" stroke-miterlimit="10"/>
</svg>
