<svg width="73" height="69" viewBox="0 0 73 69" fill="none" xmlns="http://www.w3.org/2000/svg">
<path id="Vector" d="M14.6496 53.746C14.8254 55.5376 14.7199 57.312 14.6496 59.0864C14.5617 61.412 14.052 63.7032 13.841 66.0117C13.7883 66.5112 13.9465 66.8385 14.3156 67.1314C15.8097 68.389 18.464 67.9239 19.4308 66.2356C20.2569 64.7885 20.3624 63.1864 20.3976 61.5843C20.4503 59.362 20.4855 57.1397 20.9601 54.9691C20.9776 54.8658 20.9952 54.7624 21.0304 54.6591C21.4698 52.8675 21.8038 52.5918 23.6846 52.6607C25.4424 52.7296 27.2178 52.833 28.9756 53.0053C31.3837 53.2292 33.7743 53.212 36.1649 52.9191C39.6277 52.4885 42.5105 53.6254 45.0768 55.7788C46.0788 56.6229 46.9928 57.5704 47.8014 58.6213C48.7858 59.8961 48.8561 61.0847 47.942 62.4457C47.2741 63.4621 46.694 64.4957 46.7292 65.7532C46.7467 66.7524 47.3268 67.3209 48.3463 67.2175C50.315 67.028 51.8971 66.1667 53.0045 64.4957C54.6744 61.9805 54.9556 59.207 54.6919 56.3128C54.6568 55.9683 54.5337 55.641 54.6919 55.2965C56.2739 56.2612 57.0122 58.2595 56.5552 60.2923C56.3267 61.2742 55.8697 62.17 55.4302 63.0831C55.0611 63.841 54.6919 64.6163 54.7095 65.4776C54.7798 67.3726 56.3618 68.3717 58.4536 67.8722C60.5278 67.3726 62.5492 64.9264 62.9008 62.4801C63.2523 60.0683 62.5492 57.8288 61.6703 55.6238C60.475 52.678 59.1567 49.801 58.3305 46.7174C56.7837 40.7913 57.4165 35.072 59.7543 29.4904C60.8442 26.8719 62.7074 24.6668 64.3773 22.3929C66.0296 20.1534 67.7523 17.9828 69.3694 15.7088C70.635 13.9172 71.6545 11.9878 71.9182 9.78271C72.2522 6.92303 71.5491 4.30453 70.0725 1.85829C69.5276 0.962488 69.1409 0.859126 68.139 1.13476C67.137 1.41039 66.4691 2.04779 65.9769 2.90914C65.1859 4.32175 64.7816 5.88941 64.5179 7.45707C63.7973 11.626 61.934 15.1575 58.77 18.0861C57.3462 19.3954 56.0982 20.8941 54.7622 22.3067C52.9693 24.1845 51.5455 26.3034 50.649 28.7152C50.4029 29.387 50.0162 29.5938 49.278 29.456C47.151 29.077 44.989 29.077 42.8445 29.1114C39.2937 29.1803 35.7254 29.5249 32.1747 29.3354C29.081 29.1803 26.0049 28.8702 23.1924 27.4059C21.3819 26.4585 21.3995 26.4757 22.085 24.5807C23.2803 21.3076 23.4561 17.9311 23.2276 14.5029C23.1045 12.6769 22.8409 10.9025 22.1378 9.197C21.9972 8.86968 21.8389 8.5596 21.6807 8.24951C21.3995 7.62934 20.9776 7.50875 20.3448 7.81883C18.9562 8.50791 17.6554 9.33481 16.6183 10.489C15.5637 11.6777 14.4738 12.4184 12.7336 12.0395C11.6789 11.8155 10.5364 11.9189 9.42898 12.0911C8.97195 12.16 8.7786 11.9189 8.55009 11.626C7.38995 10.1962 6.05404 8.93859 4.52477 7.90497C3.52284 7.23312 3.25916 7.30203 2.67909 8.3701C2.15176 9.35204 1.7299 10.4029 1.58928 11.5054C1.11468 15.192 0.798274 18.8786 1.14983 22.5824C1.20256 23.2198 1.4135 23.7883 1.67717 24.374C2.04631 25.2009 2.48575 25.9933 3.04824 26.6824C4.27869 28.1812 4.48961 29.7316 3.9447 31.6093C3.03065 34.7102 2.92519 37.8972 3.34706 41.1014C3.7162 43.9266 4.96422 46.304 7.05599 48.2678C7.65363 48.8363 8.02276 49.4737 8.09307 50.3006C8.35674 53.1603 8.47977 56.02 8.11064 58.8797C7.93486 60.3267 7.3548 61.636 6.52865 62.8591C5.89584 63.7894 5.36851 64.8058 6.03647 65.8911C6.66927 66.9247 7.81182 67.1142 8.9368 67.1486C10.8528 67.2175 11.9778 66.5112 12.7688 64.7885C13.5071 63.1864 13.6828 61.4637 13.8762 59.741C14.0871 57.915 14.3332 56.0889 14.5617 54.2628C14.5793 54.1078 14.6496 53.97 14.6848 53.8149" stroke="#F38F1A" stroke-width="1.5" stroke-miterlimit="10"/>
</svg>
