<svg width="65" height="64" viewBox="0 0 65 64" fill="none" xmlns="http://www.w3.org/2000/svg">
<path d="M64 32C64 49.397 49.897 63.5 32.5 63.5C15.103 63.5 1 49.397 1 32C1 14.603 15.103 0.499999 32.5 0.499999C49.897 0.499998 64 14.603 64 32Z" stroke="#662472"/>
<g clip-path="url(#clip0_212_8345)">
<path d="M39.4272 49.3716C39.3103 49.3716 39.1933 49.3716 39.0959 49.3521C37.576 49.0981 36.894 47.3396 35.9392 44.8974C35.1988 43.0022 34.8091 41.3219 34.4778 39.9737C34.0491 38.1176 33.7568 36.8867 32.9579 36.6523C32.7046 36.5741 32.4903 36.6132 32.3929 36.6523C31.4381 36.8672 30.9314 38.5084 30.113 41.2046C29.8402 42.1425 29.509 43.1975 29.1193 44.3698C27.6773 48.6878 27.0733 49.1567 26.4497 49.2934C25.8652 49.4302 25.1832 49.2739 24.4622 48.8245C22.9228 47.8672 21.5394 45.8352 21.0912 43.8814C20.9158 43.0998 20.9353 42.5919 20.9548 41.9862C20.9743 41.3414 21.0133 40.599 20.7989 39.2899C20.7794 39.1141 20.7599 38.8991 20.7405 38.6647C20.682 37.8832 20.5846 36.8086 19.9415 35.8121C16.9992 31.2206 16.3757 29.9311 15.5183 26.5119C15.2065 25.281 14.3881 20.9826 16.7849 17.7393C19.7272 13.734 26.1575 12.718 29.3531 14.6914C29.4895 14.7695 29.6259 14.8672 29.7818 14.9649C30.4248 15.3947 31.1653 15.9027 32.2565 15.9809C32.9969 16.0395 33.4451 15.8246 34.1855 15.4924C34.4973 15.3557 34.8286 15.1798 35.2378 15.0235C36.1731 14.6523 39.5051 13.48 42.7397 14.3006C44.8052 14.8281 46.2471 15.9809 46.9096 16.6256C49.8909 19.4977 49.9689 23.4445 49.8715 25.027C49.774 26.4143 49.3453 28.5635 47.7865 30.9862C47.3578 31.6505 46.9681 32.0999 46.6368 32.5102C46.1302 33.1158 45.721 33.6043 45.2923 34.6007C44.9416 35.4604 44.7273 36.4764 44.5129 38.5084C44.3181 40.4427 44.357 41.4977 44.3765 42.2597C44.396 43.0998 44.4155 43.6665 44.1232 44.6043C43.3633 46.9684 41.2978 49.3716 39.4466 49.3716H39.4272ZM32.6267 35.6167C32.8021 35.6167 33.0164 35.6363 33.2307 35.6949C34.5558 36.0856 34.926 37.6292 35.4131 39.7393C35.7249 41.0679 36.1146 42.7091 36.8356 44.5457C37.654 46.6167 38.297 48.2384 39.2518 48.3947C40.4794 48.6292 42.4474 46.5776 43.1879 44.3112C43.4412 43.5492 43.4217 43.0998 43.4022 42.2988C43.3827 41.4977 43.3438 40.4036 43.5386 38.3912C43.7725 36.2615 43.9868 35.1674 44.3765 34.21C44.8442 33.0768 45.3508 32.4906 45.8769 31.8654C46.2082 31.4551 46.5589 31.0448 46.9681 30.4391C48.41 28.1922 48.8192 26.2189 48.8972 24.9489C48.9946 23.5226 48.9167 19.908 46.2276 17.329C45.6236 16.7624 44.357 15.7073 42.4864 15.258C39.5246 14.5155 36.4654 15.5901 35.5885 15.9418C35.1988 16.0981 34.887 16.2544 34.5947 16.3912C33.7958 16.7624 33.1528 17.0555 32.1785 16.9773C30.834 16.8601 29.8987 16.2349 29.2362 15.7855C29.0998 15.6878 28.9634 15.6097 28.8465 15.5315C26.0405 13.7926 20.1754 14.7695 17.5643 18.3059C15.4209 21.2171 16.1808 25.1443 16.4731 26.2775C17.311 29.599 17.8566 30.7713 20.7405 35.2455C21.5199 36.4373 21.6173 37.7073 21.6953 38.5475C21.6953 38.7624 21.7342 38.9382 21.7537 39.1141C21.968 40.5208 21.9486 41.3414 21.9096 41.9862C21.8901 42.5723 21.8706 42.9826 22.0265 43.6274C22.4747 45.5421 23.8387 47.2615 24.9688 47.9649C25.456 48.2579 25.8847 48.3947 26.2159 48.3165C26.4887 48.2579 27.0343 47.4569 28.184 44.0181C28.5737 42.8459 28.8854 41.8103 29.1777 40.8725C30.0936 37.8245 30.6586 35.988 32.1785 35.6558C32.2759 35.6363 32.4513 35.5972 32.6462 35.5972L32.6267 35.6167Z" fill="#662472"/>
<path d="M18.0711 31.9435L17.6814 31.0448C17.9347 30.9471 18.0711 30.4977 18.266 29.8725C18.4803 29.2277 18.4803 28.7979 18.4998 28.4071C18.4998 27.9382 18.5388 27.5084 18.87 26.9808C19.3766 26.1993 20.234 25.8085 20.8381 25.6327C21.4032 25.4764 21.9682 25.3982 22.5138 25.3396L22.9815 25.281C23.8389 25.1638 24.9106 24.9489 25.6705 24.265C26.294 23.718 26.6838 22.8583 26.7812 21.8618C26.8591 21.0412 26.7812 20.162 26.4694 18.9897L26.333 18.5013C26.1187 17.7002 25.8848 16.8601 25.9043 15.9613C25.9043 15.3752 26.2161 14.3396 26.2356 14.2224L27.1709 14.4959C27.093 14.7695 26.8786 15.5901 26.8591 15.9808C26.8591 16.7233 27.0345 17.4462 27.2683 18.2277L27.4047 18.7357C27.736 20.0252 27.8529 21.0022 27.7555 21.94C27.6191 23.1709 27.1124 24.265 26.3135 24.9684C25.3587 25.8085 24.0922 26.0821 23.0984 26.2188L22.6113 26.2775C22.0851 26.3361 21.5785 26.3947 21.0914 26.551C20.6237 26.6878 20.0002 26.9613 19.6689 27.4888C19.4741 27.7819 19.4741 28.0164 19.4546 28.4267C19.4546 28.8565 19.4156 29.384 19.1818 30.146C18.9285 30.9471 18.7141 31.6309 18.0516 31.924L18.0711 31.9435Z" fill="#662472"/>
<path d="M43.5972 44.9364C42.5839 44.8388 41.5707 44.3503 40.5964 43.4906C39.2519 42.3183 38.6868 40.2668 39.2129 38.6256C39.4078 38.059 39.6611 37.7269 39.8754 37.4533C40.0898 37.1993 40.2067 37.043 40.2262 36.7304C40.2457 36.3592 40.1288 36.1638 39.8365 35.7535C39.5832 35.4018 39.2714 34.972 39.0376 34.2686C38.8817 33.7802 38.414 32.0608 39.2324 30.3024C39.9339 28.7784 40.9082 28.1336 41.5902 27.8601C42.4281 27.5279 43.149 27.6256 43.6556 27.7038C44.1818 27.7819 44.3766 27.7819 44.552 27.6256C44.7274 27.4693 44.7468 27.2935 44.7468 26.8441C44.7468 26.3556 44.7468 25.6914 45.2924 25.0271C45.9744 24.1674 47.202 23.718 48.2737 23.9329C48.7804 24.0306 49.2675 24.2846 49.6767 24.6558L49.0337 25.3983C48.7414 25.1443 48.4296 24.9684 48.0789 24.9098C47.3579 24.7731 46.5005 25.0857 46.0329 25.6523C45.7211 26.043 45.7016 26.4338 45.7016 26.8636C45.7016 27.3326 45.7016 27.8992 45.1755 28.3485C44.6494 28.8175 44.0454 28.7393 43.4998 28.6612C43.0126 28.583 42.5255 28.5244 41.9214 28.7588C41.1615 29.0519 40.538 29.7162 40.0898 30.6931C39.4273 32.1389 39.817 33.5457 39.9339 33.956C40.1288 34.5226 40.3626 34.8547 40.5964 35.1869C40.9082 35.6167 41.2199 36.0466 41.181 36.789C41.142 37.4338 40.8497 37.7855 40.6159 38.0785C40.421 38.313 40.2457 38.5279 40.1093 38.9187C39.7001 40.1887 40.1677 41.8299 41.2005 42.7482C42.0189 43.4711 42.8373 43.8814 43.6556 43.9595L43.5582 44.9364H43.5972Z" fill="#662472"/>
<path d="M23.5464 17.1336C23.9553 17.1336 24.2868 16.8012 24.2868 16.3911C24.2868 15.9811 23.9553 15.6487 23.5464 15.6487C23.1374 15.6487 22.8059 15.9811 22.8059 16.3911C22.8059 16.8012 23.1374 17.1336 23.5464 17.1336Z" fill="#662472"/>
<path d="M22.124 24.1868C22.5329 24.1868 22.8645 23.8544 22.8645 23.4444C22.8645 23.0343 22.5329 22.7019 22.124 22.7019C21.7151 22.7019 21.3835 23.0343 21.3835 23.4444C21.3835 23.8544 21.7151 24.1868 22.124 24.1868Z" fill="#662472"/>
<path d="M18.2658 26.0625C18.6748 26.0625 19.0063 25.7301 19.0063 25.3201C19.0063 24.91 18.6748 24.5776 18.2658 24.5776C17.8569 24.5776 17.5254 24.91 17.5254 25.3201C17.5254 25.7301 17.8569 26.0625 18.2658 26.0625Z" fill="#662472"/>
<path d="M21.7344 20.4942C22.1433 20.4942 22.4748 20.1618 22.4748 19.7517C22.4748 19.3417 22.1433 19.0093 21.7344 19.0093C21.3254 19.0093 20.9939 19.3417 20.9939 19.7517C20.9939 20.1618 21.3254 20.4942 21.7344 20.4942Z" fill="#662472"/>
<path d="M25.5144 22.6824C25.9233 22.6824 26.2548 22.35 26.2548 21.94C26.2548 21.5299 25.9233 21.1975 25.5144 21.1975C25.1054 21.1975 24.7739 21.5299 24.7739 21.94C24.7739 22.35 25.1054 22.6824 25.5144 22.6824Z" fill="#662472"/>
<path d="M17.8762 21.178C18.2851 21.178 18.6166 20.8456 18.6166 20.4356C18.6166 20.0255 18.2851 19.6931 17.8762 19.6931C17.4673 19.6931 17.1357 20.0255 17.1357 20.4356C17.1357 20.8456 17.4673 21.178 17.8762 21.178Z" fill="#662472"/>
<path d="M42.3501 35.1282C42.759 35.1282 43.0905 34.7958 43.0905 34.3858C43.0905 33.9757 42.759 33.6433 42.3501 33.6433C41.9411 33.6433 41.6096 33.9757 41.6096 34.3858C41.6096 34.7958 41.9411 35.1282 42.3501 35.1282Z" fill="#662472"/>
<path d="M41.6096 31.5137C42.0185 31.5137 42.35 31.1813 42.35 30.7713C42.35 30.3612 42.0185 30.0288 41.6096 30.0288C41.2007 30.0288 40.8691 30.3612 40.8691 30.7713C40.8691 31.1813 41.2007 31.5137 41.6096 31.5137Z" fill="#662472"/>
<path d="M45.3703 31.5137C45.7793 31.5137 46.1108 31.1813 46.1108 30.7713C46.1108 30.3612 45.7793 30.0288 45.3703 30.0288C44.9614 30.0288 44.6299 30.3612 44.6299 30.7713C44.6299 31.1813 44.9614 31.5137 45.3703 31.5137Z" fill="#662472"/>
<path d="M47.2409 27.5083C47.6499 27.5083 47.9814 27.1759 47.9814 26.7659C47.9814 26.3558 47.6499 26.0234 47.2409 26.0234C46.832 26.0234 46.5005 26.3558 46.5005 26.7659C46.5005 27.1759 46.832 27.5083 47.2409 27.5083Z" fill="#662472"/>
<path d="M42.1941 39.9932C42.603 39.9932 42.9345 39.6608 42.9345 39.2508C42.9345 38.8407 42.603 38.5083 42.1941 38.5083C41.7851 38.5083 41.4536 38.8407 41.4536 39.2508C41.4536 39.6608 41.7851 39.9932 42.1941 39.9932Z" fill="#662472"/>
</g>
<defs>
<clipPath id="clip0_212_8345">
<rect width="34.7429" height="35.6571" fill="white" transform="translate(15.1287 13.7144)"/>
</clipPath>
</defs>
</svg>
